<svg xmlns="http://www.w3.org/2000/svg" viewBox="0 0 1200 800" font-family="Pretendard, -apple-system, sans-serif">
  <defs>
    <filter id="shadow2" x="-5%" y="-5%" width="110%" height="110%">
      <feDropShadow dx="2" dy="2" stdDeviation="3" flood-opacity="0.15"/>
    </filter>
  </defs>

  <!-- Background -->
  <rect width="1200" height="800" fill="#fafbfc"/>

  <!-- Title -->
  <text x="600" y="40" text-anchor="middle" font-size="26" font-weight="800" fill="#1a1f36">부하테스트 — 최적화 전후 비교</text>
  <text x="600" y="65" text-anchor="middle" font-size="14" fill="#5e6478">"DB 사양 문제가 아니라 앱이 쿼리를 너무 많이 보내는 문제였다" — 앱단 최적화로 해결 (비용 $0)</text>

  <!-- ========== BEFORE BOX ========== -->
  <rect x="40" y="90" width="540" height="310" rx="14" fill="#fef2f2" stroke="#fca5a5" stroke-width="2" filter="url(#shadow2)"/>
  <rect x="40" y="90" width="540" height="40" rx="14" fill="#dc2626"/>
  <rect x="40" y="116" width="540" height="14" fill="#dc2626"/>
  <text x="310" y="118" text-anchor="middle" font-size="18" font-weight="800" fill="white">BEFORE (최적화 전)</text>

  <!-- Before metrics -->
  <text x="70" y="158" font-size="13" font-weight="700" fill="#991b1b">Queue Flow (1,000 VU)</text>

  <rect x="70" y="168" width="150" height="60" rx="8" fill="white" stroke="#fca5a5" stroke-width="1"/>
  <text x="145" y="188" text-anchor="middle" font-size="11" fill="#6b7280">P99 레이턴시</text>
  <text x="145" y="216" text-anchor="middle" font-size="26" font-weight="800" fill="#dc2626">6,887ms</text>

  <rect x="240" y="168" width="150" height="60" rx="8" fill="white" stroke="#fca5a5" stroke-width="1"/>
  <text x="315" y="188" text-anchor="middle" font-size="11" fill="#6b7280">503 에러</text>
  <text x="315" y="216" text-anchor="middle" font-size="26" font-weight="800" fill="#dc2626">58건</text>

  <rect x="410" y="168" width="150" height="60" rx="8" fill="white" stroke="#fca5a5" stroke-width="1"/>
  <text x="485" y="188" text-anchor="middle" font-size="11" fill="#6b7280">DB 커넥션 peak</text>
  <text x="485" y="216" text-anchor="middle" font-size="26" font-weight="800" fill="#dc2626">270</text>
  <text x="485" y="228" text-anchor="middle" font-size="9" fill="#991b1b">(한계 도달)</text>

  <!-- Before diagnosis -->
  <text x="70" y="260" font-size="13" font-weight="700" fill="#991b1b">진단 결과 — DB는 놀고 있었다</text>

  <rect x="70" y="272" width="110" height="50" rx="8" fill="white" stroke="#fca5a5" stroke-width="1"/>
  <text x="125" y="292" text-anchor="middle" font-size="11" fill="#6b7280">RDS CPU</text>
  <text x="125" y="313" text-anchor="middle" font-size="22" font-weight="800" fill="#059669">10%</text>

  <rect x="200" y="272" width="110" height="50" rx="8" fill="white" stroke="#fca5a5" stroke-width="1"/>
  <text x="255" y="292" text-anchor="middle" font-size="11" fill="#6b7280">RDS 메모리</text>
  <text x="255" y="313" text-anchor="middle" font-size="22" font-weight="800" fill="#059669">25%</text>

  <rect x="330" y="272" width="230" height="50" rx="8" fill="#fef3c7" stroke="#f59e0b" stroke-width="1"/>
  <text x="445" y="292" text-anchor="middle" font-size="11" fill="#92400e">진짜 원인</text>
  <text x="445" y="313" text-anchor="middle" font-size="12" font-weight="700" fill="#92400e">커넥션 풀 포화 + 쿼리 과다</text>

  <!-- Before flow diagram -->
  <rect x="70" y="338" width="490" height="45" rx="6" fill="white" stroke="#e5e7eb" stroke-width="1"/>
  <text x="315" y="356" text-anchor="middle" font-size="10" fill="#6b7280">스레드 200 → HikariCP 20개 경합 → 커넥션 대기 → accept-queue 포화 → 503</text>
  <text x="315" y="372" text-anchor="middle" font-size="10" font-weight="600" fill="#dc2626">매 요청마다 Match·Section·Block·User DB 직접 조회</text>

  <!-- ========== AFTER BOX ========== -->
  <rect x="620" y="90" width="540" height="310" rx="14" fill="#ecfdf5" stroke="#6ee7b7" stroke-width="2" filter="url(#shadow2)"/>
  <rect x="620" y="90" width="540" height="40" rx="14" fill="#059669"/>
  <rect x="620" y="116" width="540" height="14" fill="#059669"/>
  <text x="890" y="118" text-anchor="middle" font-size="18" font-weight="800" fill="white">AFTER (Phase 4 완료)</text>

  <!-- After metrics -->
  <text x="650" y="158" font-size="13" font-weight="700" fill="#065f46">Queue Flow (1,000 VU)</text>

  <rect x="650" y="168" width="150" height="60" rx="8" fill="white" stroke="#6ee7b7" stroke-width="1"/>
  <text x="725" y="188" text-anchor="middle" font-size="11" fill="#6b7280">P99 레이턴시</text>
  <text x="725" y="216" text-anchor="middle" font-size="26" font-weight="800" fill="#059669">65ms</text>

  <rect x="820" y="168" width="150" height="60" rx="8" fill="white" stroke="#6ee7b7" stroke-width="1"/>
  <text x="895" y="188" text-anchor="middle" font-size="11" fill="#6b7280">503 에러</text>
  <text x="895" y="216" text-anchor="middle" font-size="26" font-weight="800" fill="#059669">0건</text>

  <rect x="990" y="168" width="150" height="60" rx="8" fill="white" stroke="#6ee7b7" stroke-width="1"/>
  <text x="1065" y="188" text-anchor="middle" font-size="11" fill="#6b7280">DB 커넥션 peak</text>
  <text x="1065" y="216" text-anchor="middle" font-size="26" font-weight="800" fill="#059669">~100</text>
  <text x="1065" y="228" text-anchor="middle" font-size="9" fill="#065f46">(-63% 여유)</text>

  <!-- After - what was done -->
  <text x="650" y="260" font-size="13" font-weight="700" fill="#065f46">적용한 최적화 (Phase 1~4)</text>

  <rect x="650" y="272" width="240" height="110" rx="8" fill="white" stroke="#6ee7b7" stroke-width="1"/>
  <text x="660" y="292" font-size="11" font-weight="600" fill="#065f46">Phase 1: Caffeine 로컬 캐시</text>
  <text x="660" y="308" font-size="10" fill="#374151">Match·Section·Block → 불변 데이터 캐싱</text>
  <text x="660" y="326" font-size="11" font-weight="600" fill="#065f46">Phase 2: Redis 분산 캐시</text>
  <text x="660" y="342" font-size="10" fill="#374151">User·auth-me → Pod 간 즉시 전파</text>
  <text x="660" y="360" font-size="11" font-weight="600" fill="#065f46">Phase 3: 응답 캐시 + 인프라 튜닝</text>
  <text x="660" y="376" font-size="10" fill="#374151">seat-groups 5s · Tomcat 200→400</text>

  <rect x="910" y="272" width="230" height="110" rx="8" fill="white" stroke="#6ee7b7" stroke-width="1"/>
  <text x="920" y="292" font-size="11" font-weight="600" fill="#065f46">Phase 4: 커넥션 회전율 핫픽스</text>
  <text x="920" y="308" font-size="10" fill="#374151">Queue OSIV OFF → 회전율 2배</text>
  <text x="920" y="326" font-size="10" fill="#374151">Resilience4j @Retry → 300ms→60ms</text>
  <text x="920" y="344" font-size="10" fill="#374151">Redis Lua 통합 → 3 RTT→1 RTT</text>
  <text x="920" y="368" font-size="11" font-weight="700" fill="#059669">비용: $0</text>
  <text x="920" y="382" font-size="9" fill="#065f46">(DB 업그레이드 ~$100/월 회피)</text>

  <!-- ========== IMPROVEMENT BARS ========== -->
  <rect x="40" y="420" width="1120" height="170" rx="14" fill="white" stroke="#e5e7eb" stroke-width="1" filter="url(#shadow2)"/>
  <text x="600" y="448" text-anchor="middle" font-size="16" font-weight="800" fill="#1a1f36">개선 수치 요약</text>

  <!-- P99 Bar -->
  <text x="100" y="480" font-size="12" font-weight="600" fill="#374151">P99 레이턴시</text>
  <rect x="220" y="468" width="550" height="22" rx="4" fill="#fecaca"/>
  <text x="230" y="484" font-size="11" font-weight="600" fill="#991b1b">6,887ms (AS-IS)</text>
  <rect x="220" y="468" width="5" height="22" rx="2" fill="#059669"/>
  <text x="228" y="500" font-size="10" fill="#059669">65ms (TO-BE)</text>
  <rect x="850" y="468" width="120" height="22" rx="11" fill="#059669"/>
  <text x="910" y="484" text-anchor="middle" font-size="13" font-weight="800" fill="white">-99.1%</text>

  <!-- 503 Bar -->
  <text x="100" y="530" font-size="12" font-weight="600" fill="#374151">503 에러</text>
  <rect x="220" y="518" width="200" height="22" rx="4" fill="#fecaca"/>
  <text x="230" y="534" font-size="11" font-weight="600" fill="#991b1b">58건 (1.7%)</text>
  <rect x="850" y="518" width="120" height="22" rx="11" fill="#059669"/>
  <text x="910" y="534" text-anchor="middle" font-size="13" font-weight="800" fill="white">0건</text>

  <!-- E2E Bar -->
  <text x="100" y="580" font-size="12" font-weight="600" fill="#374151">E2E 전체 Avg</text>
  <rect x="220" y="568" width="300" height="22" rx="4" fill="#fed7aa"/>
  <text x="230" y="584" font-size="11" font-weight="600" fill="#9a3412">503ms (Phase 3,4 적용 전)</text>
  <rect x="220" y="568" width="90" height="22" rx="4" fill="#bbf7d0"/>
  <text x="230" y="584" font-size="11" font-weight="600" fill="#065f46">149ms (적용 후)</text>
  <rect x="850" y="568" width="120" height="22" rx="11" fill="#059669"/>
  <text x="910" y="584" text-anchor="middle" font-size="13" font-weight="800" fill="white">-70.4%</text>

  <!-- ========== PHASE TIMELINE ========== -->
  <rect x="40" y="610" width="1120" height="85" rx="14" fill="#f8fafc" stroke="#e2e8f0" stroke-width="1"/>
  <text x="600" y="635" text-anchor="middle" font-size="14" font-weight="800" fill="#1a1f36">Phase별 P99 개선 흐름</text>

  <!-- Phase dots -->
  <circle cx="120" cy="670" r="20" fill="#dc2626"/>
  <text x="120" y="675" text-anchor="middle" font-size="9" font-weight="700" fill="white">AS-IS</text>
  <text x="120" y="695" text-anchor="middle" font-size="9" fill="#6b7280">6,887ms</text>

  <line x1="140" y1="670" x2="270" y2="670" stroke="#94a3b8" stroke-width="2" stroke-dasharray="4"/>

  <circle cx="290" cy="670" r="20" fill="#f59e0b"/>
  <text x="290" y="675" text-anchor="middle" font-size="9" font-weight="700" fill="white">1차</text>
  <text x="290" y="695" text-anchor="middle" font-size="9" fill="#6b7280">2,434ms</text>

  <line x1="310" y1="670" x2="440" y2="670" stroke="#94a3b8" stroke-width="2" stroke-dasharray="4"/>

  <circle cx="460" cy="670" r="20" fill="#f59e0b"/>
  <text x="460" y="675" text-anchor="middle" font-size="9" font-weight="700" fill="white">P1확대</text>
  <text x="460" y="695" text-anchor="middle" font-size="9" fill="#6b7280">60ms*</text>

  <line x1="480" y1="670" x2="610" y2="670" stroke="#94a3b8" stroke-width="2" stroke-dasharray="4"/>

  <circle cx="630" cy="670" r="20" fill="#3b82f6"/>
  <text x="630" y="675" text-anchor="middle" font-size="9" font-weight="700" fill="white">P2</text>
  <text x="630" y="695" text-anchor="middle" font-size="9" fill="#6b7280">Redis캐시</text>

  <line x1="650" y1="670" x2="780" y2="670" stroke="#94a3b8" stroke-width="2" stroke-dasharray="4"/>

  <circle cx="800" cy="670" r="20" fill="#8b5cf6"/>
  <text x="800" y="675" text-anchor="middle" font-size="9" font-weight="700" fill="white">P3</text>
  <text x="800" y="695" text-anchor="middle" font-size="9" fill="#6b7280">응답캐시</text>

  <line x1="820" y1="670" x2="950" y2="670" stroke="#94a3b8" stroke-width="2" stroke-dasharray="4"/>

  <circle cx="970" cy="670" r="20" fill="#059669"/>
  <text x="970" y="675" text-anchor="middle" font-size="9" font-weight="700" fill="white">P4</text>
  <text x="970" y="695" text-anchor="middle" font-size="9" fill="#6b7280">OSIV/Lua</text>

  <line x1="990" y1="670" x2="1080" y2="670" stroke="#059669" stroke-width="3"/>

  <rect x="1080" y="655" width="70" height="30" rx="6" fill="#059669"/>
  <text x="1115" y="675" text-anchor="middle" font-size="12" font-weight="800" fill="white">65ms</text>

  <!-- Footer -->
  <text x="600" y="780" text-anchor="middle" font-size="11" fill="#9ca3af">테스트 환경: AWS staging · db.t4g.small · 1,001 VU · k6 Load Test · 2026-04-14~16 (3일간)</text>
  <text x="1170" y="790" text-anchor="end" font-size="9" fill="#bdbdbd">PlayBall Backend · v1.13.0-staging</text>
</svg>
