<svg width="16" height="16" viewBox="0 0 16 16" fill="none" xmlns="http://www.w3.org/2000/svg">
  <g clip-path="url(#clip0_4281_22083)">
    <path d="M8.59393 0.553432C8.61526 0.728445 8.66204 0.898573 8.73162 1.0541C8.8012 1.20963 8.89223 1.34756 8.99946 1.45992C9.10669 1.57228 9.22805 1.6569 9.3566 1.70898C9.48516 1.76107 9.6184 1.77959 9.74871 1.76347C9.87903 1.74735 10.0039 1.69692 10.1161 1.61505C10.2283 1.53319 10.3257 1.4215 10.4028 1.28636C10.4799 1.1512 10.5351 0.995181 10.5652 0.827314C10.5954 0.659454 10.5999 0.48298 10.5786 0.307967L13.0686 0C13.0899 0.175015 13.1453 0.344078 13.2315 0.497549C13.3177 0.651025 13.433 0.785951 13.571 0.894515C13.7089 1.00308 13.8668 1.08317 14.0355 1.13029C14.1936 1.17447 14.3584 1.18885 14.5215 1.17276L14.5541 1.16913L14.7199 2.52884C14.7104 2.53347 14.701 2.53837 14.6918 2.5436C14.6347 2.57617 14.5845 2.6197 14.544 2.6718C14.5036 2.72391 14.4739 2.78355 14.4563 2.84727C14.4388 2.91099 14.4338 2.97757 14.4418 3.04321C14.4498 3.10884 14.4706 3.17224 14.5029 3.22979C14.5353 3.28734 14.5785 3.33796 14.6302 3.37867C14.6819 3.41938 14.7411 3.44937 14.8044 3.46704C14.8146 3.46988 14.8248 3.47229 14.8351 3.47447L14.9636 4.528C14.9541 4.53263 14.9447 4.53752 14.9355 4.54276C14.8784 4.57532 14.8281 4.61886 14.7877 4.67096C14.7473 4.72307 14.7175 4.78271 14.7 4.84643C14.6824 4.91015 14.6775 4.97673 14.6855 5.04236C14.6935 5.108 14.7143 5.1714 14.7466 5.22895C14.7789 5.2865 14.8222 5.33711 14.8739 5.37782C14.9256 5.41853 14.9848 5.44853 15.0481 5.4662C15.0583 5.46904 15.0685 5.47145 15.0788 5.47363L15.2072 6.52715C15.1978 6.53178 15.1884 6.53668 15.1792 6.54192C15.1221 6.57448 15.0718 6.61801 15.0314 6.67012C14.991 6.72222 14.9612 6.78187 14.9437 6.84559C14.9261 6.90931 14.9212 6.97589 14.9292 7.04152C14.9372 7.10715 14.958 7.17055 14.9903 7.22811C15.0226 7.28566 15.0658 7.33627 15.1176 7.37698C15.1693 7.41769 15.2285 7.44769 15.2918 7.46536C15.3019 7.4682 15.3122 7.4706 15.3225 7.47278L15.4509 8.52631C15.4415 8.53094 15.4321 8.53584 15.4229 8.54108C15.3658 8.57364 15.3155 8.61717 15.2751 8.66928C15.2347 8.72138 15.2049 8.78102 15.1874 8.84474C15.1698 8.90846 15.1649 8.97504 15.1729 9.04068C15.1809 9.10631 15.2017 9.16971 15.234 9.22726C15.2663 9.28481 15.3095 9.33543 15.3613 9.37614C15.413 9.41685 15.4722 9.44684 15.5355 9.46451C15.5456 9.46735 15.5559 9.46976 15.5662 9.47194L15.6946 10.5255C15.6851 10.5301 15.6758 10.535 15.6666 10.5402C15.6094 10.5728 15.5592 10.6163 15.5188 10.6684C15.4784 10.7205 15.4486 10.7802 15.431 10.8439C15.4135 10.9076 15.4086 10.9742 15.4166 11.0398C15.4246 11.1055 15.4454 11.1689 15.4777 11.2264C15.51 11.284 15.5532 11.3346 15.6049 11.3753C15.6567 11.416 15.7159 11.446 15.7791 11.4637C15.7893 11.4665 15.7996 11.4689 15.8099 11.4711L16 13.0308C15.6491 13.0742 15.3296 13.2562 15.112 13.5368C14.8943 13.8175 14.7963 14.1737 14.8394 14.5272L12.3494 14.8352C12.3063 14.4817 12.1604 14.1556 11.9438 13.9287C11.7273 13.7018 11.4578 13.5926 11.1946 13.6251C10.9314 13.6577 10.6961 13.8293 10.5405 14.1023C10.3849 14.3752 10.3216 14.7272 10.3647 15.0806L2.93142 16C2.91009 15.825 2.85474 15.6559 2.76854 15.5025C2.68234 15.349 2.56699 15.2141 2.42905 15.1055C2.2911 14.9969 2.13323 14.9168 1.96454 14.8697C1.79585 14.8226 1.61961 14.8094 1.44586 14.8309L0 2.96921C0.173746 2.94772 0.341583 2.89196 0.49394 2.80513C0.646302 2.7183 0.78025 2.60212 0.888026 2.46316C0.995802 2.32421 1.07531 2.16518 1.12209 1.99526C1.16887 1.82534 1.18198 1.64781 1.16065 1.47279L8.59393 0.553432Z" fill="#0A0A0A"/>
    <path d="M7.49217 3.84402C11.2433 3.38344 12.3359 3.95168 12.6057 6.14895C12.8695 8.29766 11.7509 9.22365 10.0271 9.43531C8.87383 9.57691 7.95804 9.34432 7.30954 8.98034L7.43027 9.96364L8.41358 9.84291L8.70126 12.1859L3.79686 12.788L3.50918 10.4451L4.38323 10.3378C4.33277 9.82642 4.25526 9.19516 4.15688 8.39395C4.07341 7.71413 4.00783 7.17998 3.94054 6.73231C3.55356 6.79215 3.23942 6.84304 3.07095 6.87605L2.78328 4.5331C3.93974 4.31717 5.8169 4.04972 7.49217 3.84402ZM8.51139 7.42799C9.4947 7.30725 9.60929 6.93583 9.57351 6.64447C9.53774 6.35312 9.33372 5.99617 8.36255 6.11542C7.98622 6.16163 7.50064 6.22125 6.99226 6.29599C7.02335 6.64953 7.07552 7.07442 7.13663 7.57214C7.55236 7.54574 8.01367 7.4891 8.51139 7.42799Z" fill="#0BEAB2"/>
  </g>
  <defs>
    <clipPath id="clip0_4281_22083">
      <rect width="16" height="16" fill="white"/>
    </clipPath>
  </defs>
</svg>
