<svg xmlns="http://www.w3.org/2000/svg" xmlns:xlink="http://www.w3.org/1999/xlink" viewBox="0 0 1200 675" font-family="'Noto Sans KR','Apple SD Gothic Neo','Malgun Gothic',sans-serif">
  <rect width="1200" height="675" fill="#f0f2f5"/>

  <!-- Header -->
  <rect x="0" y="0" width="1200" height="76" fill="#4a148c"/>
  <text x="48" y="44" font-size="24" font-weight="700" fill="#ffffff">AI Defense — Offline Plane</text>
  <text x="48" y="68" font-size="12" fill="#ce93d8">런타임이 못 잡은 회색지대는 LLM이 재검토하고, 정책 파라미터를 자동 튜닝한다.</text>
  <text x="1160" y="44" text-anchor="end" font-size="12" fill="#9c4dcc">9-2 / 11</text>

  <!-- Left narrow panel -->
  <rect x="32" y="84" width="220" height="558" rx="10" fill="#ffffff" stroke="#e0e0e0" stroke-width="1.2"/>
  <rect x="32" y="84" width="220" height="34" rx="10" fill="#ede7f6"/>
  <rect x="32" y="108" width="220" height="10" fill="#ede7f6"/>
  <text x="52" y="107" font-size="11" font-weight="700" fill="#4a148c">두 갈래 병렬</text>
  <text x="52" y="134" font-size="11" fill="#37474f">Track A</text>
  <text x="52" y="152" font-size="10" fill="#546e7a">backoffice_copilot</text>
  <text x="52" y="170" font-size="10" fill="#546e7a">T1·T2 세션 재판단</text>
  <text x="52" y="188" font-size="10" fill="#546e7a">→ NORMAL/SUSPICIOUS</text>
  <line x1="52" y1="202" x2="232" y2="202" stroke="#ede7f6"/>
  <text x="52" y="220" font-size="11" fill="#37474f">Track B</text>
  <text x="52" y="238" font-size="10" fill="#546e7a">OfflineOptimizer</text>
  <text x="52" y="256" font-size="10" fill="#546e7a">집계 지표 기반</text>
  <text x="52" y="274" font-size="10" fill="#546e7a">파라미터 단계 배포</text>
  <line x1="52" y1="288" x2="232" y2="288" stroke="#ede7f6"/>
  <text x="52" y="306" font-size="11" fill="#37474f">안전장치</text>
  <text x="52" y="324" font-size="10" fill="#546e7a">LLM 장애 →</text>
  <text x="52" y="340" font-size="10" fill="#546e7a">규칙 기반 폴백</text>
  <text x="52" y="356" font-size="10" fill="#546e7a">운영 연속성 유지</text>

  <!-- Right main: overview image -->
  <rect x="262" y="84" width="906" height="558" rx="10" fill="#fafafa" stroke="#e0e0e0" stroke-width="1"/>
  <image x="266" y="88" width="898" height="550" href="slide6_overview.png" preserveAspectRatio="xMidYMid meet"/>
</svg>
