<svg xmlns="http://www.w3.org/2000/svg" viewBox="0 0 1200 720" font-family="'Noto Sans KR','Apple SD Gothic Neo','Malgun Gothic',sans-serif">
  <defs>
    <marker id="arrG" viewBox="0 0 10 10" refX="9" refY="5" markerWidth="8" markerHeight="8" orient="auto-start-reverse">
      <path d="M 0 0 L 10 5 L 0 10 z" fill="#616161"/>
    </marker>
    <marker id="arrR" viewBox="0 0 10 10" refX="9" refY="5" markerWidth="8" markerHeight="8" orient="auto-start-reverse">
      <path d="M 0 0 L 10 5 L 0 10 z" fill="#d32f2f"/>
    </marker>
    <marker id="arrOk" viewBox="0 0 10 10" refX="9" refY="5" markerWidth="8" markerHeight="8" orient="auto-start-reverse">
      <path d="M 0 0 L 10 5 L 0 10 z" fill="#2e7d32"/>
    </marker>
  </defs>
  <rect width="1200" height="720" fill="#ffffff"/>

  <!-- ============ Title ============ -->
  <text x="600" y="40" text-anchor="middle" font-size="22" font-weight="700" fill="#212121">Online Plane — 등급 대응 + VQA 관문</text>
  <text x="600" y="64" text-anchor="middle" font-size="13" fill="#757575">요청 경로에서 결정론 룰로 즉시 판정 · VQA는 좌석 선택 단계 진입 전의 독립 게이트</text>

  <!-- ============ Section 1 — Tier Matrix ============ -->
  <text x="60" y="108" font-size="14" font-weight="700" fill="#263238">① 위험도 등급별 대응 (Tier → Action)</text>

  <!-- T0 -->
  <rect x="55" y="130" width="250" height="160" rx="12" fill="#e8f5e9" stroke="#66bb6a" stroke-width="2"/>
  <text x="180" y="168" text-anchor="middle" font-size="28" font-weight="700" fill="#2e7d32">T0</text>
  <text x="180" y="202" text-anchor="middle" font-size="17" font-weight="600" fill="#2e7d32">통과</text>
  <line x1="95" y1="220" x2="265" y2="220" stroke="#a5d6a7"/>
  <text x="180" y="246" text-anchor="middle" font-size="12" fill="#33691e">정상 사용자</text>
  <text x="180" y="270" text-anchor="middle" font-size="11" fill="#558b2f">추가 조치 없음</text>

  <!-- T1 -->
  <rect x="335" y="130" width="250" height="160" rx="12" fill="#fffde7" stroke="#fdd835" stroke-width="2"/>
  <text x="460" y="168" text-anchor="middle" font-size="28" font-weight="700" fill="#f57f17">T1</text>
  <text x="460" y="202" text-anchor="middle" font-size="17" font-weight="600" fill="#f57f17">약한 지연</text>
  <line x1="375" y1="220" x2="545" y2="220" stroke="#fff59d"/>
  <text x="460" y="246" text-anchor="middle" font-size="14" font-weight="700" fill="#9e7d0a">~80 ms</text>
  <text x="460" y="270" text-anchor="middle" font-size="11" fill="#9e7d0a">약한 의심</text>

  <!-- T2 -->
  <rect x="615" y="130" width="250" height="160" rx="12" fill="#fff3e0" stroke="#fb8c00" stroke-width="2"/>
  <text x="740" y="168" text-anchor="middle" font-size="28" font-weight="700" fill="#e65100">T2</text>
  <text x="740" y="202" text-anchor="middle" font-size="17" font-weight="600" fill="#e65100">강한 지연</text>
  <line x1="655" y1="220" x2="825" y2="220" stroke="#ffcc80"/>
  <text x="740" y="246" text-anchor="middle" font-size="14" font-weight="700" fill="#bf360c">~250 ms</text>
  <text x="740" y="270" text-anchor="middle" font-size="11" fill="#bf360c">강한 의심</text>

  <!-- T3 -->
  <rect x="895" y="130" width="250" height="160" rx="12" fill="#ffebee" stroke="#e53935" stroke-width="2"/>
  <text x="1020" y="168" text-anchor="middle" font-size="28" font-weight="700" fill="#b71c1c">T3</text>
  <text x="1020" y="202" text-anchor="middle" font-size="17" font-weight="600" fill="#b71c1c">차단</text>
  <line x1="935" y1="220" x2="1105" y2="220" stroke="#ffcdd2"/>
  <text x="1020" y="246" text-anchor="middle" font-size="14" font-weight="700" fill="#b71c1c">Block</text>
  <text x="1020" y="270" text-anchor="middle" font-size="11" fill="#b71c1c">봇 확신</text>

  <!-- Arrows between tier cards (centered at y=210) -->
  <line x1="308" y1="210" x2="332" y2="210" stroke="#9e9e9e" stroke-width="2" marker-end="url(#arrG)"/>
  <line x1="588" y1="210" x2="612" y2="210" stroke="#9e9e9e" stroke-width="2" marker-end="url(#arrG)"/>
  <line x1="868" y1="210" x2="892" y2="210" stroke="#9e9e9e" stroke-width="2" marker-end="url(#arrG)"/>

  <text x="600" y="316" text-anchor="middle" font-size="12" fill="#616161" font-style="italic">
    즉시 차단 대신 지연으로 완충 — 봇에겐 치명적, 정상 사용자는 거의 못 느낌
  </text>

  <!-- ============ Separator ============ -->
  <line x1="60" y1="348" x2="1140" y2="348" stroke="#e0e0e0" stroke-dasharray="6 4"/>
  <rect x="510" y="336" width="180" height="24" rx="12" fill="#ffffff" stroke="#e0e0e0"/>
  <text x="600" y="353" text-anchor="middle" font-size="11" fill="#6a1b9a" font-weight="700" style="letter-spacing:1px">+ 독립 게이트 (등급과 무관)</text>

  <!-- ============ Section 2 — Flow with VQA Gate ============ -->
  <text x="60" y="394" font-size="14" font-weight="700" fill="#263238">② 플로우 상태 + VQA 관문 (S4·S5 진입 전)</text>

  <!-- 대기열/진입 box -->
  <rect x="70" y="430" width="220" height="80" rx="10" fill="#eceff1" stroke="#78909c" stroke-width="1.5"/>
  <text x="180" y="462" text-anchor="middle" font-size="14" font-weight="700" fill="#37474f">대기열 / 진입</text>
  <text x="180" y="484" text-anchor="middle" font-size="12" fill="#546e7a">S0 · S1 · S2 · S3</text>
  <text x="180" y="502" text-anchor="middle" font-size="10" fill="#78909c">(행동 분석 · 대기열 통과)</text>

  <!-- Arrow 대기열 → diamond -->
  <line x1="292" y1="470" x2="332" y2="470" stroke="#616161" stroke-width="2" marker-end="url(#arrG)"/>

  <!-- Diamond VQA -->
  <polygon points="382,470 432,430 482,470 432,510" fill="#fff3e0" stroke="#fb8c00" stroke-width="2"/>
  <text x="432" y="464" text-anchor="middle" font-size="12" font-weight="700" fill="#e65100">VQA 통과?</text>
  <text x="432" y="482" text-anchor="middle" font-size="10" fill="#e65100">(s3_passed)</text>

  <!-- YES arrow → 좌석 선택 -->
  <line x1="484" y1="470" x2="524" y2="470" stroke="#2e7d32" stroke-width="2" marker-end="url(#arrOk)"/>
  <text x="504" y="458" text-anchor="middle" font-size="12" font-weight="700" fill="#2e7d32">YES</text>

  <!-- 좌석 선택 box -->
  <rect x="524" y="430" width="240" height="80" rx="10" fill="#e8f5e9" stroke="#43a047" stroke-width="2"/>
  <text x="644" y="462" text-anchor="middle" font-size="14" font-weight="700" fill="#2e7d32">좌석 선택 진행</text>
  <text x="644" y="484" text-anchor="middle" font-size="12" fill="#2e7d32">S4 (구역) · S5 (좌석)</text>
  <text x="644" y="502" text-anchor="middle" font-size="10" fill="#558b2f">(구역 선택 · 좌석 확보)</text>

  <!-- Arrow 좌석 선택 → 결제 -->
  <line x1="766" y1="470" x2="806" y2="470" stroke="#616161" stroke-width="2" marker-end="url(#arrG)"/>

  <!-- 결제 box -->
  <rect x="806" y="430" width="190" height="80" rx="10" fill="#e3f2fd" stroke="#1976d2" stroke-width="1.5"/>
  <text x="901" y="462" text-anchor="middle" font-size="14" font-weight="700" fill="#1565c0">결제</text>
  <text x="901" y="484" text-anchor="middle" font-size="12" fill="#1565c0">S6</text>
  <text x="901" y="502" text-anchor="middle" font-size="10" fill="#1976d2">(Tier 기반 지연만 적용)</text>

  <!-- NO arrow downward -->
  <line x1="432" y1="512" x2="432" y2="575" stroke="#d32f2f" stroke-width="2" marker-end="url(#arrR)"/>
  <text x="444" y="550" font-size="12" font-weight="700" fill="#c62828">NO</text>

  <!-- NO box — VQA 강제 -->
  <rect x="316" y="575" width="232" height="70" rx="10" fill="#ffebee" stroke="#e53935" stroke-width="2"/>
  <text x="432" y="603" text-anchor="middle" font-size="14" font-weight="700" fill="#b71c1c">VQA 강제 (HTTP 428)</text>
  <text x="432" y="625" text-anchor="middle" font-size="11" fill="#b71c1c">등급과 무관하게 보안 퀴즈 요구</text>

  <!-- Note -->
  <text x="600" y="696" text-anchor="middle" font-size="12" fill="#4a148c" font-weight="600">
    ※ VQA 관문은 T2 트리거가 아닌 상태 전이 기반 게이트 — 좌석 선택 단계 진입 전 s3_passed=false면 자동 발동
  </text>
</svg>
