<svg version="1.1" xmlns="http://www.w3.org/2000/svg" viewBox="0 0 920 1050" width="920" height="1050"><!-- svg-source:excalidraw --><metadata/><defs><style class="style-fonts">
      </style></defs><rect x="0" y="0" width="920" height="1050" fill="#ffffff"/><g transform="translate(230 10) rotate(0 227.60589599609375 12.649999999999999)"><text x="0" y="18.5904296875" font-family="Helvetica, Segoe UI Emoji" font-size="22px" fill="#333333" text-anchor="start" style="white-space: pre;" direction="ltr" dominant-baseline="alphabetic">Attack Agent — LangGraph FlowState 상태머신</text></g><g stroke-linecap="round" transform="translate(330.13814149676296 69.8996401426902) rotate(0 120 250.00000000000003)"><path d="M0 0 L240 0 L240 500 L0 500" stroke="none" stroke-width="0" fill="#ffffff"/><path d="M0 0 C95.29 0, 190.58 0, 240 0 M240 0 C240 132.27, 240 264.53, 240 500 M240 500 C153.1 500, 66.19 500, 0 500 M0 500 C0 345.18, 0 190.37, 0 0" stroke="#6c8ebf" stroke-width="1.5" fill="none" stroke-dasharray="8 9"/></g><g transform="translate(346 80) rotate(0 25.681640625 6.899999999999999)"><text x="0" y="10.140234374999999" font-family="Helvetica, Segoe UI Emoji" font-size="12px" fill="#6c8ebf" text-anchor="start" style="white-space: pre;" direction="ltr" dominant-baseline="alphabetic">Bootstrap</text></g><g stroke-linecap="round" transform="translate(10 640) rotate(0 110 150)"><path d="M0 0 L220 0 L220 300 L0 300" stroke="none" stroke-width="0" fill="#ffffff"/><path d="M0 0 C58.27 0, 116.54 0, 220 0 M220 0 C220 86.05, 220 172.1, 220 300 M220 300 C154.85 300, 89.71 300, 0 300 M0 300 C0 214.05, 0 128.1, 0 0" stroke="#9673a6" stroke-width="1.5" fill="none" stroke-dasharray="8 9"/></g><g transform="translate(26 650) rotate(0 56.6748046875 6.899999999999977)"><text x="0" y="10.140234374999999" font-family="Helvetica, Segoe UI Emoji" font-size="12px" fill="#9673a6" text-anchor="start" style="white-space: pre;" direction="ltr" dominant-baseline="alphabetic">RECOMMEND mode</text></g><g stroke-linecap="round" transform="translate(329.83968130000426 640) rotate(0 120 150)"><path d="M0 0 L240 0 L240 300 L0 300" stroke="none" stroke-width="0" fill="#ffffff"/><path d="M0 0 C90.49 0, 180.99 0, 240 0 M240 0 C240 119.54, 240 239.08, 240 300 M240 300 C188.89 300, 137.78 300, 0 300 M0 300 C0 212.86, 0 125.73, 0 0" stroke="#82b366" stroke-width="1.5" fill="none" stroke-dasharray="8 9"/></g><g transform="translate(346 650) rotate(0 29.677734375 6.899999999999977)"><text x="0" y="10.140234374999999" font-family="Helvetica, Segoe UI Emoji" font-size="12px" fill="#82b366" text-anchor="start" style="white-space: pre;" direction="ltr" dominant-baseline="alphabetic">MAP mode</text></g><g stroke-linecap="round" transform="translate(670 70) rotate(0 120 170)"><path d="M0 0 L240 0 L240 340 L0 340" stroke="none" stroke-width="0" fill="#ffffff"/><path d="M0 0 C86.01 0, 172.03 0, 240 0 M240 0 C240 112.49, 240 224.97, 240 340 M240 340 C170.82 340, 101.63 340, 0 340 M0 340 C0 216.58, 0 93.16, 0 0" stroke="#d79b00" stroke-width="1.5" fill="none" stroke-dasharray="8 9"/></g><g transform="translate(686 80) rotate(0 67.0283203125 6.899999999999999)"><text x="0" y="10.140234374999999" font-family="Helvetica, Segoe UI Emoji" font-size="12px" fill="#d79b00" text-anchor="start" style="white-space: pre;" direction="ltr" dominant-baseline="alphabetic">Security interrupt (global)</text></g><g stroke-linecap="round" transform="translate(670 440) rotate(0 120 250)"><path d="M0 0 L240 0 L240 500 L0 500" stroke="none" stroke-width="0" fill="#ffffff"/><path d="M0 0 C50.42 0, 100.83 0, 240 0 M240 0 C240 170.26, 240 340.53, 240 500 M240 500 C180.96 500, 121.92 500, 0 500 M0 500 C0 325.56, 0 151.13, 0 0" stroke="#888888" stroke-width="1.5" fill="none" stroke-dasharray="8 9"/></g><g transform="translate(686 450) rotate(0 54.0146484375 6.900000000000006)"><text x="0" y="10.140234374999999" font-family="Helvetica, Segoe UI Emoji" font-size="12px" fill="#888888" text-anchor="start" style="white-space: pre;" direction="ltr" dominant-baseline="alphabetic">Terminal states (SX)</text></g><g stroke-linecap="round" transform="translate(380 120) rotate(0 70 24)"><path d="M140 24 C140 25.04, 139.8 26.1, 139.4 27.13 C139 28.17, 138.4 29.2, 137.61 30.21 C136.83 31.22, 135.84 32.22, 134.67 33.18 C133.51 34.15, 132.14 35.1, 130.62 36 C129.1 36.9, 127.39 37.78, 125.53 38.61 C123.68 39.44, 121.65 40.23, 119.5 40.97 C117.34 41.71, 115.03 42.4, 112.61 43.04 C110.2 43.68, 107.64 44.26, 105 44.78 C102.36 45.31, 99.6 45.77, 96.79 46.17 C93.97 46.57, 91.06 46.91, 88.12 47.18 C85.18 47.45, 82.16 47.66, 79.14 47.79 C76.12 47.93, 73.05 48, 70 48 C66.95 48, 63.88 47.93, 60.86 47.79 C57.84 47.66, 54.82 47.45, 51.88 47.18 C48.94 46.91, 46.03 46.57, 43.21 46.17 C40.4 45.77, 37.64 45.31, 35 44.78 C32.36 44.26, 29.8 43.68, 27.39 43.04 C24.97 42.4, 22.66 41.71, 20.5 40.97 C18.35 40.23, 16.32 39.44, 14.47 38.61 C12.61 37.78, 10.9 36.9, 9.38 36 C7.86 35.1, 6.49 34.15, 5.33 33.18 C4.16 32.22, 3.17 31.22, 2.39 30.21 C1.6 29.2, 1 28.17, 0.6 27.13 C0.2 26.1, 0 25.04, 0 24 C0 22.96, 0.2 21.9, 0.6 20.87 C1 19.83, 1.6 18.8, 2.39 17.79 C3.17 16.78, 4.16 15.78, 5.33 14.82 C6.49 13.85, 7.86 12.9, 9.38 12 C10.9 11.1, 12.61 10.22, 14.47 9.39 C16.32 8.56, 18.35 7.77, 20.5 7.03 C22.66 6.29, 24.97 5.6, 27.39 4.96 C29.8 4.32, 32.36 3.74, 35 3.22 C37.64 2.69, 40.4 2.23, 43.21 1.83 C46.03 1.43, 48.94 1.09, 51.88 0.82 C54.82 0.55, 57.84 0.34, 60.86 0.21 C63.88 0.07, 66.95 0, 70 0 C73.05 0, 76.12 0.07, 79.14 0.21 C82.16 0.34, 85.18 0.55, 88.12 0.82 C91.06 1.09, 93.97 1.43, 96.79 1.83 C99.6 2.23, 102.36 2.69, 105 3.22 C107.64 3.74, 110.2 4.32, 112.61 4.96 C115.03 5.6, 117.34 6.29, 119.5 7.03 C121.65 7.77, 123.68 8.56, 125.53 9.39 C127.39 10.22, 129.1 11.1, 130.62 12 C132.14 12.9, 133.51 13.85, 134.67 14.82 C135.84 15.78, 136.83 16.78, 137.61 17.79 C138.4 18.8, 139 19.83, 139.4 20.87 C139.8 21.9, 139.9 23.48, 140 24 C140.1 24.52, 140.1 23.48, 140 24" stroke="none" stroke-width="0" fill="#f5f5f5"/><path d="M140 24 C140 25.04, 139.8 26.1, 139.4 27.13 C139 28.17, 138.4 29.2, 137.61 30.21 C136.83 31.22, 135.84 32.22, 134.67 33.18 C133.51 34.15, 132.14 35.1, 130.62 36 C129.1 36.9, 127.39 37.78, 125.53 38.61 C123.68 39.44, 121.65 40.23, 119.5 40.97 C117.34 41.71, 115.03 42.4, 112.61 43.04 C110.2 43.68, 107.64 44.26, 105 44.78 C102.36 45.31, 99.6 45.77, 96.79 46.17 C93.97 46.57, 91.06 46.91, 88.12 47.18 C85.18 47.45, 82.16 47.66, 79.14 47.79 C76.12 47.93, 73.05 48, 70 48 C66.95 48, 63.88 47.93, 60.86 47.79 C57.84 47.66, 54.82 47.45, 51.88 47.18 C48.94 46.91, 46.03 46.57, 43.21 46.17 C40.4 45.77, 37.64 45.31, 35 44.78 C32.36 44.26, 29.8 43.68, 27.39 43.04 C24.97 42.4, 22.66 41.71, 20.5 40.97 C18.35 40.23, 16.32 39.44, 14.47 38.61 C12.61 37.78, 10.9 36.9, 9.38 36 C7.86 35.1, 6.49 34.15, 5.33 33.18 C4.16 32.22, 3.17 31.22, 2.39 30.21 C1.6 29.2, 1 28.17, 0.6 27.13 C0.2 26.1, 0 25.04, 0 24 C0 22.96, 0.2 21.9, 0.6 20.87 C1 19.83, 1.6 18.8, 2.39 17.79 C3.17 16.78, 4.16 15.78, 5.33 14.82 C6.49 13.85, 7.86 12.9, 9.38 12 C10.9 11.1, 12.61 10.22, 14.47 9.39 C16.32 8.56, 18.35 7.77, 20.5 7.03 C22.66 6.29, 24.97 5.6, 27.39 4.96 C29.8 4.32, 32.36 3.74, 35 3.22 C37.64 2.69, 40.4 2.23, 43.21 1.83 C46.03 1.43, 48.94 1.09, 51.88 0.82 C54.82 0.55, 57.84 0.34, 60.86 0.21 C63.88 0.07, 66.95 0, 70 0 C73.05 0, 76.12 0.07, 79.14 0.21 C82.16 0.34, 85.18 0.55, 88.12 0.82 C91.06 1.09, 93.97 1.43, 96.79 1.83 C99.6 2.23, 102.36 2.69, 105 3.22 C107.64 3.74, 110.2 4.32, 112.61 4.96 C115.03 5.6, 117.34 6.29, 119.5 7.03 C121.65 7.77, 123.68 8.56, 125.53 9.39 C127.39 10.22, 129.1 11.1, 130.62 12 C132.14 12.9, 133.51 13.85, 134.67 14.82 C135.84 15.78, 136.83 16.78, 137.61 17.79 C138.4 18.8, 139 19.83, 139.4 20.87 C139.8 21.9, 139.9 23.48, 140 24 C140.1 24.52, 140.1 23.48, 140 24" stroke="#666666" stroke-width="1" fill="none"/></g><g transform="translate(413.2029812834984 138.56322071164152) rotate(0 33.6044921875 7.474999999999994)"><text x="0" y="10.98525390625" font-family="Helvetica, Segoe UI Emoji" font-size="13px" fill="#333333" text-anchor="start" style="white-space: pre;" direction="ltr" dominant-baseline="alphabetic">user launch</text></g><g stroke-linecap="round" transform="translate(360 190) rotate(0 90 35)"><path d="M0 0 L180 0 L180 70 L0 70" stroke="none" stroke-width="0" fill="#dae8fc"/><path d="M0 0 C41.49 0, 82.97 0, 180 0 M0 0 C58.45 0, 116.89 0, 180 0 M180 0 C180 18.56, 180 37.12, 180 70 M180 0 C180 23.58, 180 47.15, 180 70 M180 70 C138.27 70, 96.54 70, 0 70 M180 70 C112.76 70, 45.53 70, 0 70 M0 70 C0 44.62, 0 19.25, 0 0 M0 70 C0 51.18, 0 32.35, 0 0" stroke="#6c8ebf" stroke-width="1" fill="none"/></g><g transform="translate(380 202) rotate(0 23.734375 8.049999999999997)"><text x="0" y="11.830273437499999" font-family="Helvetica, Segoe UI Emoji" font-size="14px" fill="#1a365d" text-anchor="start" style="white-space: pre;" direction="ltr" dominant-baseline="alphabetic">S0 · Init</text></g><g transform="translate(380 224) rotate(0 48.521484375 6.900000000000006)"><text x="0" y="10.140234374999999" font-family="Helvetica, Segoe UI Emoji" font-size="12px" fill="#3a5a80" text-anchor="start" style="white-space: pre;" direction="ltr" dominant-baseline="alphabetic">browser + session</text></g><g stroke-linecap="round" transform="translate(360 290) rotate(0 90 35)"><path d="M0 0 L180 0 L180 70 L0 70" stroke="none" stroke-width="0" fill="#dae8fc"/><path d="M0 0 C61.3 0, 122.59 0, 180 0 M0 0 C44.28 0, 88.56 0, 180 0 M180 0 C180 24.42, 180 48.84, 180 70 M180 0 C180 25.74, 180 51.48, 180 70 M180 70 C141.75 70, 103.49 70, 0 70 M180 70 C114.88 70, 49.77 70, 0 70 M0 70 C0 42.76, 0 15.52, 0 0 M0 70 C0 45.03, 0 20.05, 0 0" stroke="#6c8ebf" stroke-width="1" fill="none"/></g><g transform="translate(380 302) rotate(0 43.1826171875 8.050000000000011)"><text x="0" y="11.830273437499999" font-family="Helvetica, Segoe UI Emoji" font-size="14px" fill="#1a365d" text-anchor="start" style="white-space: pre;" direction="ltr" dominant-baseline="alphabetic">S1 · Pre-entry</text></g><g transform="translate(380 324) rotate(0 32.02734375 6.900000000000006)"><text x="0" y="10.140234374999999" font-family="Helvetica, Segoe UI Emoji" font-size="12px" fill="#3a5a80" text-anchor="start" style="white-space: pre;" direction="ltr" dominant-baseline="alphabetic">queue enter</text></g><g stroke-linecap="round" transform="translate(360 390) rotate(0 90 35)"><path d="M0 0 L180 0 L180 70 L0 70" stroke="none" stroke-width="0" fill="#dae8fc"/><path d="M0 0 C38.33 0, 76.67 0, 180 0 M0 0 C52.28 0, 104.56 0, 180 0 M180 0 C180 20.16, 180 40.33, 180 70 M180 0 C180 26.26, 180 52.51, 180 70 M180 70 C138.44 70, 96.88 70, 0 70 M180 70 C135.7 70, 91.41 70, 0 70 M0 70 C0 55.59, 0 41.19, 0 0 M0 70 C0 48.09, 0 26.18, 0 0" stroke="#6c8ebf" stroke-width="1" fill="none"/></g><g transform="translate(380 402) rotate(0 35.41357421875 8.050000000000011)"><text x="0" y="11.830273437499999" font-family="Helvetica, Segoe UI Emoji" font-size="14px" fill="#1a365d" text-anchor="start" style="white-space: pre;" direction="ltr" dominant-baseline="alphabetic">S2 · Queue</text></g><g transform="translate(380 424) rotate(0 28.34765625 6.900000000000006)"><text x="0" y="10.140234374999999" font-family="Helvetica, Segoe UI Emoji" font-size="12px" fill="#3a5a80" text-anchor="start" style="white-space: pre;" direction="ltr" dominant-baseline="alphabetic">await pass</text></g><g stroke-linecap="round" transform="translate(365 480) rotate(0 85 40)"><path d="M86 0 L170 41 L86 80 L0 41" stroke="none" stroke-width="0" fill="#ffffff" fill-rule="evenodd"/><path d="M86 0 C112.01 12.69, 138.02 25.39, 170 41 M86 0 C110.73 12.07, 135.45 24.14, 170 41 M170 41 C151.83 49.44, 133.66 57.87, 86 80 M170 41 C140.44 54.72, 110.89 68.45, 86 80 M86 80 C66.48 71.15, 46.96 62.3, 0 41 M86 80 C66.89 71.33, 47.77 62.66, 0 41 M0 41 C26.31 28.46, 52.63 15.91, 86 0 M0 41 C33.93 24.82, 67.87 8.65, 86 0" stroke="#666666" stroke-width="1" fill="none"/></g><g transform="translate(429.4923862191133 510.33267708711855) rotate(0 21.4033203125 8.050000000000011)"><text x="0" y="11.830273437499999" font-family="Helvetica, Segoe UI Emoji" font-size="14px" fill="#333333" text-anchor="start" style="white-space: pre;" direction="ltr" dominant-baseline="alphabetic">mode?</text></g><g stroke-linecap="round" transform="translate(30 700) rotate(0 90 35)"><path d="M0 0 L180 0 L180 70 L0 70" stroke="none" stroke-width="0" fill="#e1d5e7"/><path d="M0 0 C51.57 0, 103.14 0, 180 0 M0 0 C62.61 0, 125.21 0, 180 0 M180 0 C180 18.04, 180 36.08, 180 70 M180 0 C180 14.16, 180 28.32, 180 70 M180 70 C125.17 70, 70.35 70, 0 70 M180 70 C139.57 70, 99.14 70, 0 70 M0 70 C0 45.51, 0 21.01, 0 0 M0 70 C0 46.59, 0 23.18, 0 0" stroke="#9673a6" stroke-width="1" fill="none"/></g><g transform="translate(50 712) rotate(0 54.910400390625 7.475000000000023)"><text x="0" y="10.98525390625" font-family="Helvetica, Segoe UI Emoji" font-size="13px" fill="#553366" text-anchor="start" style="white-space: pre;" direction="ltr" dominant-baseline="alphabetic">S4R · Recommend</text></g><g transform="translate(50 734) rotate(0 27.6826171875 6.899999999999977)"><text x="0" y="10.140234374999999" font-family="Helvetica, Segoe UI Emoji" font-size="12px" fill="#553366" text-anchor="start" style="white-space: pre;" direction="ltr" dominant-baseline="alphabetic">load cards</text></g><g stroke-linecap="round" transform="translate(30 830) rotate(0 90 35)"><path d="M0 0 L180 0 L180 70 L0 70" stroke="none" stroke-width="0" fill="#e1d5e7"/><path d="M0 0 C47.73 0, 95.46 0, 180 0 M0 0 C60.62 0, 121.25 0, 180 0 M180 0 C180 16.23, 180 32.46, 180 70 M180 0 C180 26.15, 180 52.3, 180 70 M180 70 C114.74 70, 49.49 70, 0 70 M180 70 C131.59 70, 83.19 70, 0 70 M0 70 C0 53.36, 0 36.73, 0 0 M0 70 C0 51.79, 0 33.57, 0 0" stroke="#9673a6" stroke-width="1" fill="none"/></g><g transform="translate(50 842) rotate(0 37.93359375 7.475000000000023)"><text x="0" y="10.98525390625" font-family="Helvetica, Segoe UI Emoji" font-size="13px" fill="#553366" text-anchor="start" style="white-space: pre;" direction="ltr" dominant-baseline="alphabetic">S5R · Accept</text></g><g transform="translate(50 864) rotate(0 24.345703125 6.899999999999977)"><text x="0" y="10.140234374999999" font-family="Helvetica, Segoe UI Emoji" font-size="12px" fill="#553366" text-anchor="start" style="white-space: pre;" direction="ltr" dominant-baseline="alphabetic">auto-pick</text></g><g stroke-linecap="round" transform="translate(360 700) rotate(0 90 35)"><path d="M0 0 L180 0 L180 70 L0 70" stroke="none" stroke-width="0" fill="#d5e8d4"/><path d="M0 0 C62.8 0, 125.59 0, 180 0 M0 0 C66.19 0, 132.38 0, 180 0 M180 0 C180 14.88, 180 29.75, 180 70 M180 0 C180 25.32, 180 50.65, 180 70 M180 70 C109.96 70, 39.92 70, 0 70 M180 70 C115.78 70, 51.56 70, 0 70 M0 70 C0 52.79, 0 35.59, 0 0 M0 70 C0 49.33, 0 28.65, 0 0" stroke="#82b366" stroke-width="1" fill="none"/></g><g transform="translate(380 712) rotate(0 37.74462890625 8.050000000000011)"><text x="0" y="11.830273437499999" font-family="Helvetica, Segoe UI Emoji" font-size="14px" fill="#2b5e2b" text-anchor="start" style="white-space: pre;" direction="ltr" dominant-baseline="alphabetic">S4 · Section</text></g><g transform="translate(380 734) rotate(0 26.34375 6.899999999999977)"><text x="0" y="10.140234374999999" font-family="Helvetica, Segoe UI Emoji" font-size="12px" fill="#2b5e2b" text-anchor="start" style="white-space: pre;" direction="ltr" dominant-baseline="alphabetic">zone click</text></g><g stroke-linecap="round" transform="translate(360 830) rotate(0 90 35)"><path d="M0 0 L180 0 L180 70 L0 70" stroke="none" stroke-width="0" fill="#d5e8d4"/><path d="M0 0 C51.85 0, 103.7 0, 180 0 M0 0 C67.51 0, 135.03 0, 180 0 M180 0 C180 16.16, 180 32.32, 180 70 M180 0 C180 17.23, 180 34.45, 180 70 M180 70 C142.95 70, 105.91 70, 0 70 M180 70 C123.66 70, 67.32 70, 0 70 M0 70 C0 43.05, 0 16.11, 0 0 M0 70 C0 43.46, 0 16.92, 0 0" stroke="#82b366" stroke-width="1" fill="none"/></g><g transform="translate(380 842) rotate(0 28.79638671875 8.050000000000011)"><text x="0" y="11.830273437499999" font-family="Helvetica, Segoe UI Emoji" font-size="14px" fill="#2b5e2b" text-anchor="start" style="white-space: pre;" direction="ltr" dominant-baseline="alphabetic">S5 · Seat</text></g><g transform="translate(380 864) rotate(0 29.84765625 6.899999999999977)"><text x="0" y="10.140234374999999" font-family="Helvetica, Segoe UI Emoji" font-size="12px" fill="#2b5e2b" text-anchor="start" style="white-space: pre;" direction="ltr" dominant-baseline="alphabetic">click + hold</text></g><g stroke-linecap="round" transform="translate(710 150) rotate(0 90 40)"><path d="M0 0 L180 0 L180 80 L0 80" stroke="none" stroke-width="0" fill="#ffe6cc"/><path d="M0 0 C38.93 0, 77.87 0, 180 0 M0 0 C63.34 0, 126.67 0, 180 0 M180 0 C180 18.16, 180 36.31, 180 80 M180 0 C180 17.78, 180 35.56, 180 80 M180 80 C124.93 80, 69.85 80, 0 80 M180 80 C108.98 80, 37.96 80, 0 80 M0 80 C0 54.57, 0 29.15, 0 0 M0 80 C0 53.5, 0 27, 0 0" stroke="#d79b00" stroke-width="1" fill="none"/></g><g transform="translate(730 162) rotate(0 39.6826171875 8.049999999999997)"><text x="0" y="11.830273437499999" font-family="Helvetica, Segoe UI Emoji" font-size="14px" fill="#7f5200" text-anchor="start" style="white-space: pre;" direction="ltr" dominant-baseline="alphabetic">S3 · Security</text></g><g transform="translate(730 188) rotate(0 40.025390625 6.900000000000006)"><text x="0" y="10.140234374999999" font-family="Helvetica, Segoe UI Emoji" font-size="12px" fill="#7f5200" text-anchor="start" style="white-space: pre;" direction="ltr" dominant-baseline="alphabetic">VQA challenge</text></g><g transform="translate(686 250) rotate(0 75.60888671875 6.324999999999989)"><text x="0" y="9.29521484375" font-family="Helvetica, Segoe UI Emoji" font-size="11px" fill="#7f5200" text-anchor="start" style="white-space: pre;" direction="ltr" dominant-baseline="alphabetic">Triggered from any active state</text></g><g transform="translate(686 268) rotate(0 74.891845703125 6.324999999999989)"><text x="0" y="9.29521484375" font-family="Helvetica, Segoe UI Emoji" font-size="11px" fill="#7f5200" text-anchor="start" style="white-space: pre;" direction="ltr" dominant-baseline="alphabetic">(S1 · S2 · S4 · S4R · S5 · S5R)</text></g><g transform="translate(686 286) rotate(0 46.97783660888672 6.324999999999989)"><text x="0" y="9.29521484375" font-family="Helvetica, Segoe UI Emoji" font-size="11px" fill="#7f5200" text-anchor="start" style="white-space: pre;" direction="ltr" dominant-baseline="alphabetic">On solve → resume</text></g><g transform="translate(686 304) rotate(0 57.784912109375 6.324999999999989)"><text x="0" y="9.29521484375" font-family="Helvetica, Segoe UI Emoji" font-size="11px" fill="#7f5200" text-anchor="start" style="white-space: pre;" direction="ltr" dominant-baseline="alphabetic">last_non_security_state</text></g><g transform="translate(686 338) rotate(0 68.83550262451172 6.324999999999989)"><text x="0" y="9.29521484375" font-family="Helvetica, Segoe UI Emoji" font-size="11px" fill="#b85450" text-anchor="start" style="white-space: pre;" direction="ltr" dominant-baseline="alphabetic">On 3× fail → SX · BLOCKED</text></g><g stroke-linecap="round" transform="translate(270 980) rotate(0 80 30)"><path d="M160 30 C160 31.21, 159.8 32.42, 159.42 33.62 C159.03 34.81, 158.44 36.01, 157.68 37.18 C156.91 38.35, 155.94 39.51, 154.8 40.64 C153.66 41.77, 152.33 42.87, 150.84 43.94 C149.34 45.01, 147.66 46.05, 145.84 47.04 C144.01 48.03, 142.01 48.99, 139.88 49.89 C137.75 50.8, 135.46 51.66, 133.05 52.46 C130.64 53.25, 128.09 54, 125.45 54.69 C122.8 55.37, 120.02 56, 117.18 56.56 C114.33 57.12, 111.37 57.62, 108.37 58.05 C105.36 58.48, 102.27 58.84, 99.15 59.13 C96.02 59.42, 92.83 59.64, 89.64 59.78 C86.45 59.93, 83.21 60, 80 60 C76.79 60, 73.55 59.93, 70.36 59.78 C67.17 59.64, 63.98 59.42, 60.85 59.13 C57.73 58.84, 54.64 58.48, 51.63 58.05 C48.63 57.62, 45.67 57.12, 42.82 56.56 C39.98 56, 37.2 55.37, 34.55 54.69 C31.91 54, 29.36 53.25, 26.95 52.46 C24.54 51.66, 22.25 50.8, 20.12 49.89 C17.99 48.99, 15.99 48.03, 14.16 47.04 C12.34 46.05, 10.66 45.01, 9.16 43.94 C7.67 42.87, 6.34 41.77, 5.2 40.64 C4.06 39.51, 3.09 38.35, 2.32 37.18 C1.56 36.01, 0.97 34.81, 0.58 33.62 C0.2 32.42, 0 31.21, 0 30 C0 28.79, 0.2 27.58, 0.58 26.38 C0.97 25.19, 1.56 23.99, 2.32 22.82 C3.09 21.65, 4.06 20.49, 5.2 19.36 C6.34 18.23, 7.67 17.13, 9.16 16.06 C10.66 14.99, 12.34 13.95, 14.16 12.96 C15.99 11.97, 17.99 11.01, 20.12 10.11 C22.25 9.2, 24.54 8.34, 26.95 7.54 C29.36 6.75, 31.91 6, 34.55 5.31 C37.2 4.63, 39.98 4, 42.82 3.44 C45.67 2.88, 48.63 2.38, 51.63 1.95 C54.64 1.52, 57.73 1.16, 60.85 0.87 C63.98 0.58, 67.17 0.36, 70.36 0.22 C73.55 0.07, 76.79 0, 80 0 C83.21 0, 86.45 0.07, 89.64 0.22 C92.83 0.36, 96.02 0.58, 99.15 0.87 C102.27 1.16, 105.36 1.52, 108.37 1.95 C111.37 2.38, 114.33 2.88, 117.18 3.44 C120.02 4, 122.8 4.63, 125.45 5.31 C128.09 6, 130.64 6.75, 133.05 7.54 C135.46 8.34, 137.75 9.2, 139.88 10.11 C142.01 11.01, 144.01 11.97, 145.84 12.96 C147.66 13.95, 149.34 14.99, 150.84 16.06 C152.33 17.13, 153.66 18.23, 154.8 19.36 C155.94 20.49, 156.91 21.65, 157.68 22.82 C158.44 23.99, 159.03 25.19, 159.42 26.38 C159.8 27.58, 160 28.79, 160 30" stroke="none" stroke-width="0" fill="#d5e8d4"/><path d="M160 30 C160 31.21, 159.8 32.42, 159.42 33.62 C159.03 34.81, 158.44 36.01, 157.68 37.18 C156.91 38.35, 155.94 39.51, 154.8 40.64 C153.66 41.77, 152.33 42.87, 150.84 43.94 C149.34 45.01, 147.66 46.05, 145.84 47.04 C144.01 48.03, 142.01 48.99, 139.88 49.89 C137.75 50.8, 135.46 51.66, 133.05 52.46 C130.64 53.25, 128.09 54, 125.45 54.69 C122.8 55.37, 120.02 56, 117.18 56.56 C114.33 57.12, 111.37 57.62, 108.37 58.05 C105.36 58.48, 102.27 58.84, 99.15 59.13 C96.02 59.42, 92.83 59.64, 89.64 59.78 C86.45 59.93, 83.21 60, 80 60 C76.79 60, 73.55 59.93, 70.36 59.78 C67.17 59.64, 63.98 59.42, 60.85 59.13 C57.73 58.84, 54.64 58.48, 51.63 58.05 C48.63 57.62, 45.67 57.12, 42.82 56.56 C39.98 56, 37.2 55.37, 34.55 54.69 C31.91 54, 29.36 53.25, 26.95 52.46 C24.54 51.66, 22.25 50.8, 20.12 49.89 C17.99 48.99, 15.99 48.03, 14.16 47.04 C12.34 46.05, 10.66 45.01, 9.16 43.94 C7.67 42.87, 6.34 41.77, 5.2 40.64 C4.06 39.51, 3.09 38.35, 2.32 37.18 C1.56 36.01, 0.97 34.81, 0.58 33.62 C0.2 32.42, 0 31.21, 0 30 C0 28.79, 0.2 27.58, 0.58 26.38 C0.97 25.19, 1.56 23.99, 2.32 22.82 C3.09 21.65, 4.06 20.49, 5.2 19.36 C6.34 18.23, 7.67 17.13, 9.16 16.06 C10.66 14.99, 12.34 13.95, 14.16 12.96 C15.99 11.97, 17.99 11.01, 20.12 10.11 C22.25 9.2, 24.54 8.34, 26.95 7.54 C29.36 6.75, 31.91 6, 34.55 5.31 C37.2 4.63, 39.98 4, 42.82 3.44 C45.67 2.88, 48.63 2.38, 51.63 1.95 C54.64 1.52, 57.73 1.16, 60.85 0.87 C63.98 0.58, 67.17 0.36, 70.36 0.22 C73.55 0.07, 76.79 0, 80 0 C83.21 0, 86.45 0.07, 89.64 0.22 C92.83 0.36, 96.02 0.58, 99.15 0.87 C102.27 1.16, 105.36 1.52, 108.37 1.95 C111.37 2.38, 114.33 2.88, 117.18 3.44 C120.02 4, 122.8 4.63, 125.45 5.31 C128.09 6, 130.64 6.75, 133.05 7.54 C135.46 8.34, 137.75 9.2, 139.88 10.11 C142.01 11.01, 144.01 11.97, 145.84 12.96 C147.66 13.95, 149.34 14.99, 150.84 16.06 C152.33 17.13, 153.66 18.23, 154.8 19.36 C155.94 20.49, 156.91 21.65, 157.68 22.82 C158.44 23.99, 159.03 25.19, 159.42 26.38 C159.8 27.58, 160 28.79, 160 30" stroke="#82b366" stroke-width="1" fill="none"/></g><g transform="translate(300 999) rotate(0 35.396484375 8.049999999999955)"><text x="0" y="11.830273437499999" font-family="Helvetica, Segoe UI Emoji" font-size="14px" fill="#2b5e2b" text-anchor="start" style="white-space: pre;" direction="ltr" dominant-baseline="alphabetic">SX · DONE</text></g><g stroke-linecap="round" transform="translate(710 610) rotate(0 80 30)"><path d="M160 30 C160 31.21, 159.8 32.42, 159.42 33.62 C159.03 34.81, 158.44 36.01, 157.68 37.18 C156.91 38.35, 155.94 39.51, 154.8 40.64 C153.66 41.77, 152.33 42.87, 150.84 43.94 C149.34 45.01, 147.66 46.05, 145.84 47.04 C144.01 48.03, 142.01 48.99, 139.88 49.89 C137.75 50.8, 135.46 51.66, 133.05 52.46 C130.64 53.25, 128.09 54, 125.45 54.69 C122.8 55.37, 120.02 56, 117.18 56.56 C114.33 57.12, 111.37 57.62, 108.37 58.05 C105.36 58.48, 102.27 58.84, 99.15 59.13 C96.02 59.42, 92.83 59.64, 89.64 59.78 C86.45 59.93, 83.21 60, 80 60 C76.79 60, 73.55 59.93, 70.36 59.78 C67.17 59.64, 63.98 59.42, 60.85 59.13 C57.73 58.84, 54.64 58.48, 51.63 58.05 C48.63 57.62, 45.67 57.12, 42.82 56.56 C39.98 56, 37.2 55.37, 34.55 54.69 C31.91 54, 29.36 53.25, 26.95 52.46 C24.54 51.66, 22.25 50.8, 20.12 49.89 C17.99 48.99, 15.99 48.03, 14.16 47.04 C12.34 46.05, 10.66 45.01, 9.16 43.94 C7.67 42.87, 6.34 41.77, 5.2 40.64 C4.06 39.51, 3.09 38.35, 2.32 37.18 C1.56 36.01, 0.97 34.81, 0.58 33.62 C0.2 32.42, 0 31.21, 0 30 C0 28.79, 0.2 27.58, 0.58 26.38 C0.97 25.19, 1.56 23.99, 2.32 22.82 C3.09 21.65, 4.06 20.49, 5.2 19.36 C6.34 18.23, 7.67 17.13, 9.16 16.06 C10.66 14.99, 12.34 13.95, 14.16 12.96 C15.99 11.97, 17.99 11.01, 20.12 10.11 C22.25 9.2, 24.54 8.34, 26.95 7.54 C29.36 6.75, 31.91 6, 34.55 5.31 C37.2 4.63, 39.98 4, 42.82 3.44 C45.67 2.88, 48.63 2.38, 51.63 1.95 C54.64 1.52, 57.73 1.16, 60.85 0.87 C63.98 0.58, 67.17 0.36, 70.36 0.22 C73.55 0.07, 76.79 0, 80 0 C83.21 0, 86.45 0.07, 89.64 0.22 C92.83 0.36, 96.02 0.58, 99.15 0.87 C102.27 1.16, 105.36 1.52, 108.37 1.95 C111.37 2.38, 114.33 2.88, 117.18 3.44 C120.02 4, 122.8 4.63, 125.45 5.31 C128.09 6, 130.64 6.75, 133.05 7.54 C135.46 8.34, 137.75 9.2, 139.88 10.11 C142.01 11.01, 144.01 11.97, 145.84 12.96 C147.66 13.95, 149.34 14.99, 150.84 16.06 C152.33 17.13, 153.66 18.23, 154.8 19.36 C155.94 20.49, 156.91 21.65, 157.68 22.82 C158.44 23.99, 159.03 25.19, 159.42 26.38 C159.8 27.58, 160 28.79, 160 30" stroke="none" stroke-width="0" fill="#f8cecc"/><path d="M160 30 C160 31.21, 159.8 32.42, 159.42 33.62 C159.03 34.81, 158.44 36.01, 157.68 37.18 C156.91 38.35, 155.94 39.51, 154.8 40.64 C153.66 41.77, 152.33 42.87, 150.84 43.94 C149.34 45.01, 147.66 46.05, 145.84 47.04 C144.01 48.03, 142.01 48.99, 139.88 49.89 C137.75 50.8, 135.46 51.66, 133.05 52.46 C130.64 53.25, 128.09 54, 125.45 54.69 C122.8 55.37, 120.02 56, 117.18 56.56 C114.33 57.12, 111.37 57.62, 108.37 58.05 C105.36 58.48, 102.27 58.84, 99.15 59.13 C96.02 59.42, 92.83 59.64, 89.64 59.78 C86.45 59.93, 83.21 60, 80 60 C76.79 60, 73.55 59.93, 70.36 59.78 C67.17 59.64, 63.98 59.42, 60.85 59.13 C57.73 58.84, 54.64 58.48, 51.63 58.05 C48.63 57.62, 45.67 57.12, 42.82 56.56 C39.98 56, 37.2 55.37, 34.55 54.69 C31.91 54, 29.36 53.25, 26.95 52.46 C24.54 51.66, 22.25 50.8, 20.12 49.89 C17.99 48.99, 15.99 48.03, 14.16 47.04 C12.34 46.05, 10.66 45.01, 9.16 43.94 C7.67 42.87, 6.34 41.77, 5.2 40.64 C4.06 39.51, 3.09 38.35, 2.32 37.18 C1.56 36.01, 0.97 34.81, 0.58 33.62 C0.2 32.42, 0 31.21, 0 30 C0 28.79, 0.2 27.58, 0.58 26.38 C0.97 25.19, 1.56 23.99, 2.32 22.82 C3.09 21.65, 4.06 20.49, 5.2 19.36 C6.34 18.23, 7.67 17.13, 9.16 16.06 C10.66 14.99, 12.34 13.95, 14.16 12.96 C15.99 11.97, 17.99 11.01, 20.12 10.11 C22.25 9.2, 24.54 8.34, 26.95 7.54 C29.36 6.75, 31.91 6, 34.55 5.31 C37.2 4.63, 39.98 4, 42.82 3.44 C45.67 2.88, 48.63 2.38, 51.63 1.95 C54.64 1.52, 57.73 1.16, 60.85 0.87 C63.98 0.58, 67.17 0.36, 70.36 0.22 C73.55 0.07, 76.79 0, 80 0 C83.21 0, 86.45 0.07, 89.64 0.22 C92.83 0.36, 96.02 0.58, 99.15 0.87 C102.27 1.16, 105.36 1.52, 108.37 1.95 C111.37 2.38, 114.33 2.88, 117.18 3.44 C120.02 4, 122.8 4.63, 125.45 5.31 C128.09 6, 130.64 6.75, 133.05 7.54 C135.46 8.34, 137.75 9.2, 139.88 10.11 C142.01 11.01, 144.01 11.97, 145.84 12.96 C147.66 13.95, 149.34 14.99, 150.84 16.06 C152.33 17.13, 153.66 18.23, 154.8 19.36 C155.94 20.49, 156.91 21.65, 157.68 22.82 C158.44 23.99, 159.03 25.19, 159.42 26.38 C159.8 27.58, 160 28.79, 160 30" stroke="#b85450" stroke-width="1" fill="none"/></g><g transform="translate(730 628) rotate(0 48.62744140625 8.050000000000011)"><text x="0" y="11.830273437499999" font-family="Helvetica, Segoe UI Emoji" font-size="14px" fill="#7a1f1c" text-anchor="start" style="white-space: pre;" direction="ltr" dominant-baseline="alphabetic">SX · BLOCKED</text></g><g stroke-linecap="round" transform="translate(710 730) rotate(0 80 30)"><path d="M160 30 C160 31.21, 159.8 32.42, 159.42 33.62 C159.03 34.81, 158.44 36.01, 157.68 37.18 C156.91 38.35, 155.94 39.51, 154.8 40.64 C153.66 41.77, 152.33 42.87, 150.84 43.94 C149.34 45.01, 147.66 46.05, 145.84 47.04 C144.01 48.03, 142.01 48.99, 139.88 49.89 C137.75 50.8, 135.46 51.66, 133.05 52.46 C130.64 53.25, 128.09 54, 125.45 54.69 C122.8 55.37, 120.02 56, 117.18 56.56 C114.33 57.12, 111.37 57.62, 108.37 58.05 C105.36 58.48, 102.27 58.84, 99.15 59.13 C96.02 59.42, 92.83 59.64, 89.64 59.78 C86.45 59.93, 83.21 60, 80 60 C76.79 60, 73.55 59.93, 70.36 59.78 C67.17 59.64, 63.98 59.42, 60.85 59.13 C57.73 58.84, 54.64 58.48, 51.63 58.05 C48.63 57.62, 45.67 57.12, 42.82 56.56 C39.98 56, 37.2 55.37, 34.55 54.69 C31.91 54, 29.36 53.25, 26.95 52.46 C24.54 51.66, 22.25 50.8, 20.12 49.89 C17.99 48.99, 15.99 48.03, 14.16 47.04 C12.34 46.05, 10.66 45.01, 9.16 43.94 C7.67 42.87, 6.34 41.77, 5.2 40.64 C4.06 39.51, 3.09 38.35, 2.32 37.18 C1.56 36.01, 0.97 34.81, 0.58 33.62 C0.2 32.42, 0 31.21, 0 30 C0 28.79, 0.2 27.58, 0.58 26.38 C0.97 25.19, 1.56 23.99, 2.32 22.82 C3.09 21.65, 4.06 20.49, 5.2 19.36 C6.34 18.23, 7.67 17.13, 9.16 16.06 C10.66 14.99, 12.34 13.95, 14.16 12.96 C15.99 11.97, 17.99 11.01, 20.12 10.11 C22.25 9.2, 24.54 8.34, 26.95 7.54 C29.36 6.75, 31.91 6, 34.55 5.31 C37.2 4.63, 39.98 4, 42.82 3.44 C45.67 2.88, 48.63 2.38, 51.63 1.95 C54.64 1.52, 57.73 1.16, 60.85 0.87 C63.98 0.58, 67.17 0.36, 70.36 0.22 C73.55 0.07, 76.79 0, 80 0 C83.21 0, 86.45 0.07, 89.64 0.22 C92.83 0.36, 96.02 0.58, 99.15 0.87 C102.27 1.16, 105.36 1.52, 108.37 1.95 C111.37 2.38, 114.33 2.88, 117.18 3.44 C120.02 4, 122.8 4.63, 125.45 5.31 C128.09 6, 130.64 6.75, 133.05 7.54 C135.46 8.34, 137.75 9.2, 139.88 10.11 C142.01 11.01, 144.01 11.97, 145.84 12.96 C147.66 13.95, 149.34 14.99, 150.84 16.06 C152.33 17.13, 153.66 18.23, 154.8 19.36 C155.94 20.49, 156.91 21.65, 157.68 22.82 C158.44 23.99, 159.03 25.19, 159.42 26.38 C159.8 27.58, 160 28.79, 160 30" stroke="none" stroke-width="0" fill="#f8cecc"/><path d="M160 30 C160 31.21, 159.8 32.42, 159.42 33.62 C159.03 34.81, 158.44 36.01, 157.68 37.18 C156.91 38.35, 155.94 39.51, 154.8 40.64 C153.66 41.77, 152.33 42.87, 150.84 43.94 C149.34 45.01, 147.66 46.05, 145.84 47.04 C144.01 48.03, 142.01 48.99, 139.88 49.89 C137.75 50.8, 135.46 51.66, 133.05 52.46 C130.64 53.25, 128.09 54, 125.45 54.69 C122.8 55.37, 120.02 56, 117.18 56.56 C114.33 57.12, 111.37 57.62, 108.37 58.05 C105.36 58.48, 102.27 58.84, 99.15 59.13 C96.02 59.42, 92.83 59.64, 89.64 59.78 C86.45 59.93, 83.21 60, 80 60 C76.79 60, 73.55 59.93, 70.36 59.78 C67.17 59.64, 63.98 59.42, 60.85 59.13 C57.73 58.84, 54.64 58.48, 51.63 58.05 C48.63 57.62, 45.67 57.12, 42.82 56.56 C39.98 56, 37.2 55.37, 34.55 54.69 C31.91 54, 29.36 53.25, 26.95 52.46 C24.54 51.66, 22.25 50.8, 20.12 49.89 C17.99 48.99, 15.99 48.03, 14.16 47.04 C12.34 46.05, 10.66 45.01, 9.16 43.94 C7.67 42.87, 6.34 41.77, 5.2 40.64 C4.06 39.51, 3.09 38.35, 2.32 37.18 C1.56 36.01, 0.97 34.81, 0.58 33.62 C0.2 32.42, 0 31.21, 0 30 C0 28.79, 0.2 27.58, 0.58 26.38 C0.97 25.19, 1.56 23.99, 2.32 22.82 C3.09 21.65, 4.06 20.49, 5.2 19.36 C6.34 18.23, 7.67 17.13, 9.16 16.06 C10.66 14.99, 12.34 13.95, 14.16 12.96 C15.99 11.97, 17.99 11.01, 20.12 10.11 C22.25 9.2, 24.54 8.34, 26.95 7.54 C29.36 6.75, 31.91 6, 34.55 5.31 C37.2 4.63, 39.98 4, 42.82 3.44 C45.67 2.88, 48.63 2.38, 51.63 1.95 C54.64 1.52, 57.73 1.16, 60.85 0.87 C63.98 0.58, 67.17 0.36, 70.36 0.22 C73.55 0.07, 76.79 0, 80 0 C83.21 0, 86.45 0.07, 89.64 0.22 C92.83 0.36, 96.02 0.58, 99.15 0.87 C102.27 1.16, 105.36 1.52, 108.37 1.95 C111.37 2.38, 114.33 2.88, 117.18 3.44 C120.02 4, 122.8 4.63, 125.45 5.31 C128.09 6, 130.64 6.75, 133.05 7.54 C135.46 8.34, 137.75 9.2, 139.88 10.11 C142.01 11.01, 144.01 11.97, 145.84 12.96 C147.66 13.95, 149.34 14.99, 150.84 16.06 C152.33 17.13, 153.66 18.23, 154.8 19.36 C155.94 20.49, 156.91 21.65, 157.68 22.82 C158.44 23.99, 159.03 25.19, 159.42 26.38 C159.8 27.58, 160 28.79, 160 30" stroke="#b85450" stroke-width="1" fill="none"/></g><g transform="translate(740 749) rotate(0 39.1630859375 8.050000000000011)"><text x="0" y="11.830273437499999" font-family="Helvetica, Segoe UI Emoji" font-size="14px" fill="#7a1f1c" text-anchor="start" style="white-space: pre;" direction="ltr" dominant-baseline="alphabetic">SX · ABORT</text></g><g transform="translate(686 820) rotate(0 75.208740234375 6.324999999999989)"><text x="0" y="9.29521484375" font-family="Helvetica, Segoe UI Emoji" font-size="11px" fill="#2b5e2b" text-anchor="start" style="white-space: pre;" direction="ltr" dominant-baseline="alphabetic">DONE: payment page reached</text></g><g transform="translate(686 842) rotate(0 69.55029296875 6.324999999999989)"><text x="0" y="9.29521484375" font-family="Helvetica, Segoe UI Emoji" font-size="11px" fill="#7a1f1c" text-anchor="start" style="white-space: pre;" direction="ltr" dominant-baseline="alphabetic">BLOCKED: 403 or S3 3× fail</text></g><g transform="translate(686 860) rotate(0 84.88970184326172 6.324999999999989)"><text x="0" y="9.29521484375" font-family="Helvetica, Segoe UI Emoji" font-size="11px" fill="#7a1f1c" text-anchor="start" style="white-space: pre;" direction="ltr" dominant-baseline="alphabetic">  ← any of S1 / S4 / S4R / S5 / S5R</text></g><g transform="translate(686 882) rotate(0 82.132080078125 6.324999999999989)"><text x="0" y="9.29521484375" font-family="Helvetica, Segoe UI Emoji" font-size="11px" fill="#7a1f1c" text-anchor="start" style="white-space: pre;" direction="ltr" dominant-baseline="alphabetic">ABORT: timeout / session expired</text></g><g transform="translate(686 900) rotate(0 93.13433074951172 6.324999999999989)"><text x="0" y="9.29521484375" font-family="Helvetica, Segoe UI Emoji" font-size="11px" fill="#7a1f1c" text-anchor="start" style="white-space: pre;" direction="ltr" dominant-baseline="alphabetic">  ← S0 (session expired) / S2 (timeout)</text></g><g transform="translate(10 50) rotate(0 20.021484375 6.899999999999999)"><text x="0" y="10.140234374999999" font-family="Helvetica, Segoe UI Emoji" font-size="12px" fill="#333333" text-anchor="start" style="white-space: pre;" direction="ltr" dominant-baseline="alphabetic">Legend</text></g><g transform="translate(10 70) rotate(0 74.59912109375 6.325000000000003)"><text x="0" y="9.29521484375" font-family="Helvetica, Segoe UI Emoji" font-size="11px" fill="#555555" text-anchor="start" style="white-space: pre;" direction="ltr" dominant-baseline="alphabetic">solid      : happy path transition</text></g><g transform="translate(10 88) rotate(0 76.734130859375 6.325000000000003)"><text x="0" y="9.29521484375" font-family="Helvetica, Segoe UI Emoji" font-size="11px" fill="#555555" text-anchor="start" style="white-space: pre;" direction="ltr" dominant-baseline="alphabetic">dashed  : S3 interrupt / terminal</text></g><g transform="translate(10 106) rotate(0 111.270263671875 6.325000000000003)"><text x="0" y="9.29521484375" font-family="Helvetica, Segoe UI Emoji" font-size="11px" fill="#888888" text-anchor="start" style="white-space: pre;" direction="ltr" dominant-baseline="alphabetic">Failure arrows not drawn — see terminal note</text></g><g stroke-linecap="round"><g transform="translate(450 176.5) rotate(0 0 2)"><path d="M0 0 C0 0.9, 0 1.8, 0 4 M0 0 C0 1.4, 0 2.8, 0 4" stroke="#333333" stroke-width="1.5" fill="none"/></g><g transform="translate(450 176.5) rotate(0 0 2)"><path d="M-0.68 2.12 C-0.53 2.54, -0.38 2.96, 0 4 M-0.68 2.12 C-0.44 2.78, -0.21 3.44, 0 4" stroke="#333333" stroke-width="1.5" fill="none"/></g><g transform="translate(450 176.5) rotate(0 0 2)"><path d="M0.68 2.12 C0.53 2.54, 0.38 2.96, 0 4 M0.68 2.12 C0.44 2.78, 0.21 3.44, 0 4" stroke="#333333" stroke-width="1.5" fill="none"/></g></g><mask/><g transform="translate(458 171) rotate(0 7.94921875 6.325000000000003)"><text x="0" y="9.29521484375" font-family="Helvetica, Segoe UI Emoji" font-size="11px" fill="#333333" text-anchor="start" style="white-space: pre;" direction="ltr" dominant-baseline="alphabetic">run</text></g><g stroke-linecap="round"><g transform="translate(450 268.5) rotate(0 0 6)"><path d="M0 0 C0 2.47, 0 4.94, 0 12 M0 0 C0 3.76, 0 7.51, 0 12" stroke="#333333" stroke-width="1.5" fill="none"/></g><g transform="translate(450 268.5) rotate(0 0 6)"><path d="M-2.05 6.36 C-1.63 7.52, -1.21 8.68, 0 12 M-2.05 6.36 C-1.41 8.13, -0.77 9.89, 0 12" stroke="#333333" stroke-width="1.5" fill="none"/></g><g transform="translate(450 268.5) rotate(0 0 6)"><path d="M2.05 6.36 C1.63 7.52, 1.21 8.68, 0 12 M2.05 6.36 C1.41 8.13, 0.77 9.89, 0 12" stroke="#333333" stroke-width="1.5" fill="none"/></g></g><mask/><g transform="translate(458 268) rotate(0 5.808837890625 6.324999999999989)"><text x="0" y="9.29521484375" font-family="Helvetica, Segoe UI Emoji" font-size="11px" fill="#333333" text-anchor="start" style="white-space: pre;" direction="ltr" dominant-baseline="alphabetic">ok</text></g><g stroke-linecap="round"><g transform="translate(450 368.5) rotate(0 0 6)"><path d="M0 0 C0 2.55, 0 5.11, 0 12 M0 0 C0 2.98, 0 5.95, 0 12" stroke="#333333" stroke-width="1.5" fill="none"/></g><g transform="translate(450 368.5) rotate(0 0 6)"><path d="M-2.05 6.36 C-1.62 7.56, -1.18 8.76, 0 12 M-2.05 6.36 C-1.54 7.76, -1.03 9.16, 0 12" stroke="#333333" stroke-width="1.5" fill="none"/></g><g transform="translate(450 368.5) rotate(0 0 6)"><path d="M2.05 6.36 C1.62 7.56, 1.18 8.76, 0 12 M2.05 6.36 C1.54 7.76, 1.03 9.16, 0 12" stroke="#333333" stroke-width="1.5" fill="none"/></g></g><mask/><g transform="translate(458 368) rotate(0 28.437255859375 6.324999999999989)"><text x="0" y="9.29521484375" font-family="Helvetica, Segoe UI Emoji" font-size="11px" fill="#333333" text-anchor="start" style="white-space: pre;" direction="ltr" dominant-baseline="alphabetic">2xx / queue</text></g><g stroke-linecap="round"><g transform="translate(450.6952051371744 463.7017088182184) rotate(0 -0.34760256858720595 7.1518617258884944)"><path d="M0 0 C-0.25 5.1, -0.5 10.21, -0.7 14.3 M0 0 C-0.17 3.52, -0.34 7.03, -0.7 14.3" stroke="#333333" stroke-width="1.5" fill="none"/></g><g transform="translate(450.6952051371744 463.7017088182184) rotate(0 -0.34760256858720595 7.1518617258884944)"><path d="M-2.81 7.46 C-2.06 9.9, -1.3 12.34, -0.7 14.3 M-2.81 7.46 C-2.29 9.15, -1.77 10.83, -0.7 14.3" stroke="#333333" stroke-width="1.5" fill="none"/></g><g transform="translate(450.6952051371744 463.7017088182184) rotate(0 -0.34760256858720595 7.1518617258884944)"><path d="M2.08 7.7 C1.09 10.06, 0.1 12.41, -0.7 14.3 M2.08 7.7 C1.4 9.32, 0.71 10.95, -0.7 14.3" stroke="#333333" stroke-width="1.5" fill="none"/></g></g><mask/><g transform="translate(458 462) rotate(0 11.61767578125 6.324999999999989)"><text x="0" y="9.29521484375" font-family="Helvetica, Segoe UI Emoji" font-size="11px" fill="#333333" text-anchor="start" style="white-space: pre;" direction="ltr" dominant-baseline="alphabetic">pass</text></g><g stroke-linecap="round"><g transform="translate(403.62611547620435 540.3643632738549) rotate(0 -110.9304095235934 76.8842964536131)"><path d="M0 0 C-81.11 56.22, -162.22 112.44, -221.86 153.77 M0 0 C-51.26 35.53, -102.52 71.06, -221.86 153.77" stroke="#9673a6" stroke-width="1.5" fill="none"/></g><g transform="translate(403.62611547620435 540.3643632738549) rotate(0 -110.9304095235934 76.8842964536131)"><path d="M-207.42 133.36 C-212.7 140.82, -217.98 148.28, -221.86 153.77 M-207.42 133.36 C-210.76 138.07, -214.09 142.79, -221.86 153.77" stroke="#9673a6" stroke-width="1.5" fill="none"/></g><g transform="translate(403.62611547620435 540.3643632738549) rotate(0 -110.9304095235934 76.8842964536131)"><path d="M-197.68 147.41 C-206.52 149.74, -215.36 152.06, -221.86 153.77 M-197.68 147.41 C-203.27 148.88, -208.85 150.35, -221.86 153.77" stroke="#9673a6" stroke-width="1.5" fill="none"/></g></g><mask/><g transform="translate(220 610) rotate(0 36.665771484375 6.324999999999989)"><text x="0" y="9.29521484375" font-family="Helvetica, Segoe UI Emoji" font-size="11px" fill="#553366" text-anchor="start" style="white-space: pre;" direction="ltr" dominant-baseline="alphabetic">RECOMMEND</text></g><g stroke-linecap="round"><g transform="translate(450 568.5) rotate(0 0 61)"><path d="M0 0 C0 28.99, 0 57.99, 0 122 M0 0 C0 31.74, 0 63.49, 0 122" stroke="#82b366" stroke-width="1.5" fill="none"/></g><g transform="translate(450 568.5) rotate(0 0 61)"><path d="M-8.55 98.51 C-6.52 104.09, -4.49 109.67, 0 122 M-8.55 98.51 C-6.33 104.62, -4.1 110.73, 0 122" stroke="#82b366" stroke-width="1.5" fill="none"/></g><g transform="translate(450 568.5) rotate(0 0 61)"><path d="M8.55 98.51 C6.52 104.09, 4.49 109.67, 0 122 M8.55 98.51 C6.33 104.62, 4.1 110.73, 0 122" stroke="#82b366" stroke-width="1.5" fill="none"/></g></g><mask/><g transform="translate(458 615) rotate(0 11.91845703125 6.324999999999989)"><text x="0" y="9.29521484375" font-family="Helvetica, Segoe UI Emoji" font-size="11px" fill="#2b5e2b" text-anchor="start" style="white-space: pre;" direction="ltr" dominant-baseline="alphabetic">MAP</text></g><g stroke-linecap="round"><g transform="translate(120 778.5) rotate(0 0 21)"><path d="M0 0 C0 16.57, 0 33.14, 0 42 M0 0 C0 13.35, 0 26.7, 0 42" stroke="#333333" stroke-width="1.5" fill="none"/></g><g transform="translate(120 778.5) rotate(0 0 21)"><path d="M-7.18 22.27 C-4.35 30.05, -1.51 37.84, 0 42 M-7.18 22.27 C-4.9 28.54, -2.62 34.81, 0 42" stroke="#333333" stroke-width="1.5" fill="none"/></g><g transform="translate(120 778.5) rotate(0 0 21)"><path d="M7.18 22.27 C4.35 30.05, 1.51 37.84, 0 42 M7.18 22.27 C4.9 28.54, 2.62 34.81, 0 42" stroke="#333333" stroke-width="1.5" fill="none"/></g></g><mask/><g transform="translate(128 790) rotate(0 13.44921875 6.324999999999989)"><text x="0" y="9.29521484375" font-family="Helvetica, Segoe UI Emoji" font-size="11px" fill="#333333" text-anchor="start" style="white-space: pre;" direction="ltr" dominant-baseline="alphabetic">cards</text></g><g stroke-linecap="round"><g transform="translate(450 778) rotate(0 0 21.5)"><path d="M0 0 C0 14.38, 0 28.76, 0 43 M0 0 C0 9.19, 0 18.37, 0 43" stroke="#333333" stroke-width="1.5" fill="none"/></g><g transform="translate(450 778) rotate(0 0 21.5)"><path d="M-7.35 22.8 C-4.89 29.55, -2.44 36.31, 0 43 M-7.35 22.8 C-5.78 27.11, -4.21 31.43, 0 43" stroke="#333333" stroke-width="1.5" fill="none"/></g><g transform="translate(450 778) rotate(0 0 21.5)"><path d="M7.35 22.8 C4.89 29.55, 2.44 36.31, 0 43 M7.35 22.8 C5.78 27.11, 4.21 31.43, 0 43" stroke="#333333" stroke-width="1.5" fill="none"/></g></g><mask/><g transform="translate(458 790) rotate(0 22.623046875 6.324999999999989)"><text x="0" y="9.29521484375" font-family="Helvetica, Segoe UI Emoji" font-size="11px" fill="#333333" text-anchor="start" style="white-space: pre;" direction="ltr" dominant-baseline="alphabetic">seat map</text></g><g transform="translate(80 908) rotate(0 34.8583984375 6.324999999999989)"><text x="0" y="9.29521484375" font-family="Helvetica, Segoe UI Emoji" font-size="11px" fill="#2b5e2b" text-anchor="start" style="white-space: pre;" direction="ltr" dominant-baseline="alphabetic">payment page</text></g><g transform="translate(435.62437082674967 911.0600932132116) rotate(0 34.8583984375 6.324999999999989)"><text x="0" y="9.29521484375" font-family="Helvetica, Segoe UI Emoji" font-size="11px" fill="#2b5e2b" text-anchor="start" style="white-space: pre;" direction="ltr" dominant-baseline="alphabetic">payment page</text></g><g stroke-linecap="round"><g transform="translate(210.5 900.5) rotate(0 39 39)"><path d="M0 0 C27.81 27.81, 55.61 55.61, 78 78 M0 0 C28.47 28.47, 56.94 56.94, 78 78" stroke="#82b366" stroke-width="1.5" fill="none"/></g><g transform="translate(210.5 900.5) rotate(0 39 39)"><path d="M55.34 67.43 C63.42 71.2, 71.5 74.97, 78 78 M55.34 67.43 C63.61 71.29, 71.88 75.15, 78 78" stroke="#82b366" stroke-width="1.5" fill="none"/></g><g transform="translate(210.5 900.5) rotate(0 39 39)"><path d="M67.43 55.34 C71.2 63.42, 74.97 71.5, 78 78 M67.43 55.34 C71.29 63.61, 75.15 71.88, 78 78" stroke="#82b366" stroke-width="1.5" fill="none"/></g></g><mask/><g transform="translate(686 370) rotate(0 81.1572265625 5.75)"><text x="0" y="8.4501953125" font-family="Helvetica, Segoe UI Emoji" font-size="10px" fill="#888888" text-anchor="start" style="white-space: pre;" direction="ltr" dominant-baseline="alphabetic">* In practice 201 raises S3 only once</text></g><g transform="translate(686 384) rotate(0 83.9404296875 5.75)"><text x="0" y="8.4501953125" font-family="Helvetica, Segoe UI Emoji" font-size="10px" fill="#888888" text-anchor="start" style="white-space: pre;" direction="ltr" dominant-baseline="alphabetic">  after queue pass; attack agent treats</text></g><g transform="translate(686 398) rotate(0 93.66455078125 5.75)"><text x="0" y="8.4501953125" font-family="Helvetica, Segoe UI Emoji" font-size="10px" fill="#888888" text-anchor="start" style="white-space: pre;" direction="ltr" dominant-baseline="alphabetic">  defense as black-box (defensive design).</text></g><g stroke-linecap="round"><g transform="translate(430.66891128497315 899.9648025748136) rotate(0 -49.87463916390715 37.160184298987474)"><path d="M0 0 C-33.58 25.02, -67.17 50.04, -99.75 74.32 M0 0 C-27.41 20.42, -54.83 40.85, -99.75 74.32" stroke="#82b366" stroke-width="1.5" fill="none"/></g><g transform="translate(430.66891128497315 899.9648025748136) rotate(0 -49.87463916390715 37.160184298987474)"><path d="M-86.02 53.43 C-90.64 60.46, -95.26 67.5, -99.75 74.32 M-86.02 53.43 C-89.79 59.17, -93.57 64.91, -99.75 74.32" stroke="#82b366" stroke-width="1.5" fill="none"/></g><g transform="translate(430.66891128497315 899.9648025748136) rotate(0 -49.87463916390715 37.160184298987474)"><path d="M-75.8 67.14 C-83.86 69.56, -91.93 71.98, -99.75 74.32 M-75.8 67.14 C-82.38 69.11, -88.96 71.09, -99.75 74.32" stroke="#82b366" stroke-width="1.5" fill="none"/></g></g><mask/></svg>