<svg version="1.1" xmlns="http://www.w3.org/2000/svg" viewBox="0 0 1565.1753717709391 1375.444824727574" width="1565.1753717709391" height="1375.444824727574"><!-- svg-source:excalidraw --><metadata/><defs><style class="style-fonts">
      </style></defs><rect x="0" y="0" width="1565.1753717709391" height="1375.444824727574" fill="#ffffff"/><g transform="translate(273.1414406108154 10) rotate(0 143.64990234375 12.649999999999999)"><text x="0" y="18.5904296875" font-family="Helvetica, Segoe UI Emoji" font-size="22px" fill="#333333" text-anchor="start" style="white-space: pre;" direction="ltr" dominant-baseline="alphabetic">Attack — Swarm Architecture</text></g><g stroke-linecap="round" transform="translate(10 55.4390071615706) rotate(0 578.4756622134048 655.0029087830018)"><path d="M0 0 L1156.95 0 L1156.95 1310.01 L0 1310.01" stroke="none" stroke-width="0" fill="#fafafa"/><path d="M0 0 C443.86 0, 887.71 0, 1156.95 0 M1156.95 0 C1156.95 297.98, 1156.95 595.96, 1156.95 1310.01 M1156.95 1310.01 C859.07 1310.01, 561.19 1310.01, 0 1310.01 M0 1310.01 C0 869.67, 0 429.34, 0 0" stroke="#888888" stroke-width="1.5" fill="none" stroke-dasharray="8 9"/></g><g stroke-linecap="round" transform="translate(373.9403533957982 216.32111686273268) rotate(0 80 34.999999999999986)"><path d="M160 35 C160 36.41, 159.8 37.82, 159.42 39.22 C159.03 40.61, 158.44 42.01, 157.68 43.38 C156.91 44.74, 155.94 46.1, 154.8 47.41 C153.66 48.73, 152.33 50.02, 150.84 51.27 C149.34 52.51, 147.66 53.72, 145.84 54.88 C144.01 56.04, 142.01 57.16, 139.88 58.21 C137.75 59.26, 135.46 60.27, 133.05 61.2 C130.64 62.13, 128.09 63.01, 125.45 63.8 C122.8 64.6, 120.02 65.34, 117.18 65.99 C114.33 66.64, 111.37 67.23, 108.37 67.73 C105.36 68.22, 102.27 68.65, 99.15 68.98 C96.02 69.32, 92.83 69.58, 89.64 69.74 C86.45 69.91, 83.21 70, 80 70 C76.79 70, 73.55 69.91, 70.36 69.74 C67.17 69.58, 63.98 69.32, 60.85 68.98 C57.73 68.65, 54.64 68.22, 51.63 67.73 C48.63 67.23, 45.67 66.64, 42.82 65.99 C39.98 65.34, 37.2 64.6, 34.55 63.8 C31.91 63.01, 29.36 62.13, 26.95 61.2 C24.54 60.27, 22.25 59.26, 20.12 58.21 C17.99 57.16, 15.99 56.04, 14.16 54.88 C12.34 53.72, 10.66 52.51, 9.16 51.27 C7.67 50.02, 6.34 48.73, 5.2 47.41 C4.06 46.1, 3.09 44.74, 2.32 43.38 C1.56 42.01, 0.97 40.61, 0.58 39.22 C0.2 37.82, 0 36.41, 0 35 C0 33.59, 0.2 32.18, 0.58 30.78 C0.97 29.39, 1.56 27.99, 2.32 26.62 C3.09 25.26, 4.06 23.9, 5.2 22.59 C6.34 21.27, 7.67 19.98, 9.16 18.73 C10.66 17.49, 12.34 16.28, 14.16 15.12 C15.99 13.96, 17.99 12.84, 20.12 11.79 C22.25 10.74, 24.54 9.73, 26.95 8.8 C29.36 7.87, 31.91 6.99, 34.55 6.2 C37.2 5.4, 39.98 4.66, 42.82 4.01 C45.67 3.36, 48.63 2.77, 51.63 2.27 C54.64 1.78, 57.73 1.35, 60.85 1.02 C63.98 0.68, 67.17 0.42, 70.36 0.26 C73.55 0.09, 76.79 0, 80 0 C83.21 0, 86.45 0.09, 89.64 0.26 C92.83 0.42, 96.02 0.68, 99.15 1.02 C102.27 1.35, 105.36 1.78, 108.37 2.27 C111.37 2.77, 114.33 3.36, 117.18 4.01 C120.02 4.66, 122.8 5.4, 125.45 6.2 C128.09 6.99, 130.64 7.87, 133.05 8.8 C135.46 9.73, 137.75 10.74, 139.88 11.79 C142.01 12.84, 144.01 13.96, 145.84 15.12 C147.66 16.28, 149.34 17.49, 150.84 18.73 C152.33 19.98, 153.66 21.27, 154.8 22.59 C155.94 23.9, 156.91 25.26, 157.68 26.62 C158.44 27.99, 159.03 29.39, 159.42 30.78 C159.8 32.18, 160 33.59, 160 35" stroke="none" stroke-width="0" fill="#f5f5f5"/><path d="M160 35 C160 36.41, 159.8 37.82, 159.42 39.22 C159.03 40.61, 158.44 42.01, 157.68 43.38 C156.91 44.74, 155.94 46.1, 154.8 47.41 C153.66 48.73, 152.33 50.02, 150.84 51.27 C149.34 52.51, 147.66 53.72, 145.84 54.88 C144.01 56.04, 142.01 57.16, 139.88 58.21 C137.75 59.26, 135.46 60.27, 133.05 61.2 C130.64 62.13, 128.09 63.01, 125.45 63.8 C122.8 64.6, 120.02 65.34, 117.18 65.99 C114.33 66.64, 111.37 67.23, 108.37 67.73 C105.36 68.22, 102.27 68.65, 99.15 68.98 C96.02 69.32, 92.83 69.58, 89.64 69.74 C86.45 69.91, 83.21 70, 80 70 C76.79 70, 73.55 69.91, 70.36 69.74 C67.17 69.58, 63.98 69.32, 60.85 68.98 C57.73 68.65, 54.64 68.22, 51.63 67.73 C48.63 67.23, 45.67 66.64, 42.82 65.99 C39.98 65.34, 37.2 64.6, 34.55 63.8 C31.91 63.01, 29.36 62.13, 26.95 61.2 C24.54 60.27, 22.25 59.26, 20.12 58.21 C17.99 57.16, 15.99 56.04, 14.16 54.88 C12.34 53.72, 10.66 52.51, 9.16 51.27 C7.67 50.02, 6.34 48.73, 5.2 47.41 C4.06 46.1, 3.09 44.74, 2.32 43.38 C1.56 42.01, 0.97 40.61, 0.58 39.22 C0.2 37.82, 0 36.41, 0 35 C0 33.59, 0.2 32.18, 0.58 30.78 C0.97 29.39, 1.56 27.99, 2.32 26.62 C3.09 25.26, 4.06 23.9, 5.2 22.59 C6.34 21.27, 7.67 19.98, 9.16 18.73 C10.66 17.49, 12.34 16.28, 14.16 15.12 C15.99 13.96, 17.99 12.84, 20.12 11.79 C22.25 10.74, 24.54 9.73, 26.95 8.8 C29.36 7.87, 31.91 6.99, 34.55 6.2 C37.2 5.4, 39.98 4.66, 42.82 4.01 C45.67 3.36, 48.63 2.77, 51.63 2.27 C54.64 1.78, 57.73 1.35, 60.85 1.02 C63.98 0.68, 67.17 0.42, 70.36 0.26 C73.55 0.09, 76.79 0, 80 0 C83.21 0, 86.45 0.09, 89.64 0.26 C92.83 0.42, 96.02 0.68, 99.15 1.02 C102.27 1.35, 105.36 1.78, 108.37 2.27 C111.37 2.77, 114.33 3.36, 117.18 4.01 C120.02 4.66, 122.8 5.4, 125.45 6.2 C128.09 6.99, 130.64 7.87, 133.05 8.8 C135.46 9.73, 137.75 10.74, 139.88 11.79 C142.01 12.84, 144.01 13.96, 145.84 15.12 C147.66 16.28, 149.34 17.49, 150.84 18.73 C152.33 19.98, 153.66 21.27, 154.8 22.59 C155.94 23.9, 156.91 25.26, 157.68 26.62 C158.44 27.99, 159.03 29.39, 159.42 30.78 C159.8 32.18, 160 33.59, 160 35" stroke="#666666" stroke-width="1" fill="none"/></g><g transform="translate(408.86615681717615 242.90149863652223) rotate(0 44.3515625 8.049999999999997)"><text x="0" y="11.830273437499999" font-family="Helvetica, Segoe UI Emoji" font-size="14px" fill="#333333" text-anchor="start" style="white-space: pre;" direction="ltr" dominant-baseline="alphabetic">Operator / CLI</text></g><g stroke-linecap="round" transform="translate(373.1414406108154 449.85033452769767) rotate(0 80 35)"><path d="M0 0 L160 0 L160 70 L0 70" stroke="none" stroke-width="0" fill="#f5f5f5"/><path d="M0 0 C39.38 0, 78.75 0, 160 0 M0 0 C63.04 0, 126.08 0, 160 0 M160 0 C160 14.02, 160 28.04, 160 70 M160 0 C160 17.57, 160 35.14, 160 70 M160 70 C99.21 70, 38.42 70, 0 70 M160 70 C113.07 70, 66.15 70, 0 70 M0 70 C0 53.9, 0 37.8, 0 0 M0 70 C0 44.64, 0 19.27, 0 0" stroke="#666666" stroke-width="1" fill="none"/></g><g transform="translate(395.1414406108154 459.85033452769767) rotate(0 26.8515625 8.050000000000011)"><text x="0" y="11.830273437499999" font-family="Helvetica, Segoe UI Emoji" font-size="14px" fill="#333333" text-anchor="start" style="white-space: pre;" direction="ltr" dominant-baseline="alphabetic">launcher</text></g><g transform="translate(395.1414406108154 483.85033452769767) rotate(0 43.6845703125 6.900000000000006)"><text x="0" y="10.140234374999999" font-family="Helvetica, Segoe UI Emoji" font-size="12px" fill="#666666" text-anchor="start" style="white-space: pre;" direction="ltr" dominant-baseline="alphabetic">spawn · lifecycle</text></g><g transform="translate(55.13171618169906 614.1333896953147) rotate(0 78.61361694335938 7.078199810224305)"><text x="0" y="10.402116670834017" font-family="Helvetica, Segoe UI Emoji" font-size="12.30991271343353px" fill="#6c8ebf" text-anchor="start" style="white-space: pre;" direction="ltr" dominant-baseline="alphabetic">Agent layer  —  deterministic</text></g><g stroke-linecap="round" transform="translate(66.50692445888455 953.1312112309978) rotate(0 80 40.00000000000006)"><path d="M0 0 L160 0 L160 80 L0 80" stroke="none" stroke-width="0" fill="#f5f5f5"/><path d="M0 0 C32.04 0, 64.08 0, 160 0 M0 0 C40.16 0, 80.33 0, 160 0 M160 0 C160 30.4, 160 60.79, 160 80 M160 0 C160 23.46, 160 46.93, 160 80 M160 80 C123.2 80, 86.4 80, 0 80 M160 80 C102.02 80, 44.05 80, 0 80 M0 80 C0 49.76, 0 19.53, 0 0 M0 80 C0 54.51, 0 29.03, 0 0" stroke="#666666" stroke-width="1" fill="none"/></g><g transform="translate(88.36188197679473 965.271987757732) rotate(0 23.34130859375 8.050000000000011)"><text x="0" y="11.830273437499999" font-family="Helvetica, Segoe UI Emoji" font-size="14px" fill="#333333" text-anchor="start" style="white-space: pre;" direction="ltr" dominant-baseline="alphabetic">Monitor</text></g><g transform="translate(88.36188197679473 989.271987757732) rotate(0 23.3349609375 6.899999999999977)"><text x="0" y="10.140234374999999" font-family="Helvetica, Segoe UI Emoji" font-size="12px" fill="#666666" text-anchor="start" style="white-space: pre;" direction="ltr" dominant-baseline="alphabetic">Rich TUI</text></g><g transform="translate(88.23816927148283 1009.271987757732) rotate(0 28.3564453125 6.899999999999977)"><text x="0" y="10.140234374999999" font-family="Helvetica, Segoe UI Emoji" font-size="12px" fill="#666666" text-anchor="start" style="white-space: pre;" direction="ltr" dominant-baseline="alphabetic">dashboard</text></g><g stroke-linecap="round" transform="translate(373.1414406108154 950) rotate(0 80 40)"><path d="M0 0 L160 0 L160 80 L0 80" stroke="none" stroke-width="0" fill="#ffe6cc"/><path d="M0 0 C43.86 0, 87.72 0, 160 0 M0 0 C63.14 0, 126.29 0, 160 0 M160 0 C160 22.37, 160 44.75, 160 80 M160 0 C160 24.87, 160 49.73, 160 80 M160 80 C103.84 80, 47.67 80, 0 80 M160 80 C114.18 80, 68.36 80, 0 80 M0 80 C0 53.1, 0 26.21, 0 0 M0 80 C0 49.35, 0 18.71, 0 0" stroke="#d79b00" stroke-width="1" fill="none"/></g><g transform="translate(391.1414406108154 958) rotate(0 31.90673828125 8.050000000000011)"><text x="0" y="11.830273437499999" font-family="Helvetica, Segoe UI Emoji" font-size="14px" fill="#7f5200" text-anchor="start" style="white-space: pre;" direction="ltr" dominant-baseline="alphabetic">Event Bus</text></g><g transform="translate(391.1414406108154 980) rotate(0 35.151123046875 6.324999999999989)"><text x="0" y="9.29521484375" font-family="Helvetica, Segoe UI Emoji" font-size="11px" fill="#7f5200" text-anchor="start" style="white-space: pre;" direction="ltr" dominant-baseline="alphabetic">per-subscriber</text></g><g transform="translate(391.1414406108154 996) rotate(0 15.294189453125 6.324999999999989)"><text x="0" y="9.29521484375" font-family="Helvetica, Segoe UI Emoji" font-size="11px" fill="#7f5200" text-anchor="start" style="white-space: pre;" direction="ltr" dominant-baseline="alphabetic">queue</text></g><g transform="translate(391.1414406108154 1012) rotate(0 32.31475067138672 6.3250000000000455)"><text x="0" y="9.29521484375" font-family="Helvetica, Segoe UI Emoji" font-size="11px" fill="#7f5200" text-anchor="start" style="white-space: pre;" direction="ltr" dominant-baseline="alphabetic">agent → subs</text></g><g stroke-linecap="round" transform="translate(673.1414406108154 950) rotate(0 80 40)"><path d="M0 0 L160 0 L160 80 L0 80" stroke="none" stroke-width="0" fill="#e1d5e7"/><path d="M0 0 C44.57 0, 89.14 0, 160 0 M0 0 C62.55 0, 125.1 0, 160 0 M160 0 C160 30.89, 160 61.79, 160 80 M160 0 C160 19.69, 160 39.38, 160 80 M160 80 C96.98 80, 33.97 80, 0 80 M160 80 C111.84 80, 63.68 80, 0 80 M0 80 C0 60.11, 0 40.23, 0 0 M0 80 C0 48.79, 0 17.58, 0 0" stroke="#9673a6" stroke-width="1" fill="none"/></g><g transform="translate(686.1414406108154 958) rotate(0 48.41357421875 7.475000000000023)"><text x="0" y="10.98525390625" font-family="Helvetica, Segoe UI Emoji" font-size="13px" fill="#553366" text-anchor="start" style="white-space: pre;" direction="ltr" dominant-baseline="alphabetic">LLM Coordinator</text></g><g transform="translate(686.1414406108154 982) rotate(0 24.312255859375 6.324999999999989)"><text x="0" y="9.29521484375" font-family="Helvetica, Segoe UI Emoji" font-size="11px" fill="#553366" text-anchor="start" style="white-space: pre;" direction="ltr" dominant-baseline="alphabetic">batched +</text></g><g transform="translate(686.1414406108154 998) rotate(0 25.370361328125 6.324999999999989)"><text x="0" y="9.29521484375" font-family="Helvetica, Segoe UI Emoji" font-size="11px" fill="#553366" text-anchor="start" style="white-space: pre;" direction="ltr" dominant-baseline="alphabetic">immediate</text></g><g transform="translate(686.1414406108154 1014) rotate(0 18.339599609375 6.3250000000000455)"><text x="0" y="9.29521484375" font-family="Helvetica, Segoe UI Emoji" font-size="11px" fill="#553366" text-anchor="start" style="white-space: pre;" direction="ltr" dominant-baseline="alphabetic">triggers</text></g><g stroke-linecap="round" transform="translate(973.1414406108154 950) rotate(0 80 40)"><path d="M0 0 L160 0 L160 80 L0 80" stroke="none" stroke-width="0" fill="#fff2cc"/><path d="M0 0 C60.79 0, 121.58 0, 160 0 M0 0 C46.93 0, 93.85 0, 160 0 M160 0 C160 18.4, 160 36.8, 160 80 M160 0 C160 28.99, 160 57.98, 160 80 M160 80 C99.53 80, 39.05 80, 0 80 M160 80 C109.03 80, 58.06 80, 0 80 M0 80 C0 63.52, 0 47.04, 0 0 M0 80 C0 54.46, 0 28.91, 0 0" stroke="#d6b656" stroke-width="1" fill="none"/></g><g transform="translate(986.1414406108154 958) rotate(0 41.548583984375 7.475000000000023)"><text x="0" y="10.98525390625" font-family="Helvetica, Segoe UI Emoji" font-size="13px" fill="#665500" text-anchor="start" style="white-space: pre;" direction="ltr" dominant-baseline="alphabetic">Strategy Store</text></g><g transform="translate(986.1414406108154 982) rotate(0 23.544189453125 6.324999999999989)"><text x="0" y="9.29521484375" font-family="Helvetica, Segoe UI Emoji" font-size="11px" fill="#665500" text-anchor="start" style="white-space: pre;" direction="ltr" dominant-baseline="alphabetic">per-agent</text></g><g transform="translate(986.1414406108154 998) rotate(0 22.620361328125 6.324999999999989)"><text x="0" y="9.29521484375" font-family="Helvetica, Segoe UI Emoji" font-size="11px" fill="#665500" text-anchor="start" style="white-space: pre;" direction="ltr" dominant-baseline="alphabetic">overrides</text></g><g transform="translate(986.1414406108154 1014) rotate(0 35.44921875 6.3250000000000455)"><text x="0" y="9.29521484375" font-family="Helvetica, Segoe UI Emoji" font-size="11px" fill="#665500" text-anchor="start" style="white-space: pre;" direction="ltr" dominant-baseline="alphabetic">atomic commit</text></g><g stroke-linecap="round" transform="translate(373.1414406108154 1250) rotate(0 80 40)"><path d="M0 0 L160 0 L160 80 L0 80" stroke="none" stroke-width="0" fill="#f5f5f5"/><path d="M0 0 C43.4 0, 86.79 0, 160 0 M0 0 C60.54 0, 121.08 0, 160 0 M160 0 C160 26.17, 160 52.34, 160 80 M160 0 C160 22.61, 160 45.22, 160 80 M160 80 C99.59 80, 39.18 80, 0 80 M160 80 C120.99 80, 81.97 80, 0 80 M0 80 C0 62.04, 0 44.08, 0 0 M0 80 C0 49.04, 0 18.07, 0 0" stroke="#666666" stroke-width="1" fill="none"/></g><g transform="translate(391.1414406108154 1265) rotate(0 39.6962890625 8.049999999999955)"><text x="0" y="11.830273437499999" font-family="Helvetica, Segoe UI Emoji" font-size="14px" fill="#333333" text-anchor="start" style="white-space: pre;" direction="ltr" dominant-baseline="alphabetic">Audit Logger</text></g><g transform="translate(391.1414406108154 1290) rotate(0 49.341796875 6.899999999999977)"><text x="0" y="10.140234374999999" font-family="Helvetica, Segoe UI Emoji" font-size="12px" fill="#666666" text-anchor="start" style="white-space: pre;" direction="ltr" dominant-baseline="alphabetic">JSONL per-swarm</text></g><g stroke-linecap="round" transform="translate(673.1414406108154 1250) rotate(0 80 40)"><path d="M0 0 L160 0 L160 80 L0 80" stroke="none" stroke-width="0" fill="#e1d5e7"/><path d="M0 0 C34.12 0, 68.25 0, 160 0 M0 0 C32.43 0, 64.86 0, 160 0 M160 0 C160 27.03, 160 54.05, 160 80 M160 0 C160 24.62, 160 49.24, 160 80 M160 80 C103.32 80, 46.64 80, 0 80 M160 80 C110.07 80, 60.15 80, 0 80 M0 80 C0 49.14, 0 18.28, 0 0 M0 80 C0 57.95, 0 35.89, 0 0" stroke="#9673a6" stroke-width="1" fill="none"/></g><g transform="translate(683.1414406108154 1260) rotate(0 22.042236328125 7.475000000000023)"><text x="0" y="10.98525390625" font-family="Helvetica, Segoe UI Emoji" font-size="13px" fill="#553366" text-anchor="start" style="white-space: pre;" direction="ltr" dominant-baseline="alphabetic">OpenAI</text></g><g transform="translate(683.1414406108154 1282) rotate(0 34.025390625 6.899999999999977)"><text x="0" y="10.140234374999999" font-family="Helvetica, Segoe UI Emoji" font-size="12px" fill="#553366" text-anchor="start" style="white-space: pre;" direction="ltr" dominant-baseline="alphabetic">gpt-4.1-nano</text></g><g transform="translate(683.1414406108154 1302) rotate(0 39.11767578125 6.3250000000000455)"><text x="0" y="9.29521484375" font-family="Helvetica, Segoe UI Emoji" font-size="11px" fill="#553366" text-anchor="start" style="white-space: pre;" direction="ltr" dominant-baseline="alphabetic">(JSON schema)</text></g><g stroke-linecap="round"><g transform="translate(453.29299285976424 294.32105657404844) rotate(0 0.24771456158208593 72.51463897682461)"><path d="M0 0 C0.19 54.88, 0.37 109.75, 0.5 145.03 M0 0 C0.16 47.44, 0.32 94.89, 0.5 145.03" stroke="#333333" stroke-width="1.5" fill="none"/></g><g transform="translate(453.29299285976424 294.32105657404844) rotate(0 0.24771456158208593 72.51463897682461)"><path d="M-8.14 121.57 C-4.87 130.44, -1.6 139.32, 0.5 145.03 M-8.14 121.57 C-5.31 129.24, -2.49 136.92, 0.5 145.03" stroke="#333333" stroke-width="1.5" fill="none"/></g><g transform="translate(453.29299285976424 294.32105657404844) rotate(0 0.24771456158208593 72.51463897682461)"><path d="M8.97 121.51 C5.76 130.41, 2.56 139.31, 0.5 145.03 M8.97 121.51 C6.19 129.2, 3.42 136.9, 0.5 145.03" stroke="#333333" stroke-width="1.5" fill="none"/></g></g><mask/><g transform="translate(468.77212644207225 347.44816025076904) rotate(0 29.4677734375 11.5)"><text x="0" y="16.900390625" font-family="Helvetica, Segoe UI Emoji" font-size="20px" fill="#333333" text-anchor="start" style="white-space: pre;" direction="ltr" dominant-baseline="alphabetic">launch</text></g><g stroke-linecap="round"><g transform="translate(453.1414406108155 527.8503345276977) rotate(0 0 55.894661373251836)"><path d="M0 0 C0 25.71, 0 51.42, 0 111.79 M0 0 C0 40.51, 0 81.01, 0 111.79" stroke="#333333" stroke-width="1.5" fill="none"/></g><g transform="translate(453.1414406108155 527.8503345276977) rotate(0 0 55.894661373251836)"><path d="M-8.55 88.3 C-6.58 93.7, -4.62 99.1, 0 111.79 M-8.55 88.3 C-5.45 96.81, -2.35 105.32, 0 111.79" stroke="#333333" stroke-width="1.5" fill="none"/></g><g transform="translate(453.1414406108155 527.8503345276977) rotate(0 0 55.894661373251836)"><path d="M8.55 88.3 C6.58 93.7, 4.62 99.1, 0 111.79 M8.55 88.3 C5.45 96.81, 2.35 105.32, 0 111.79" stroke="#333333" stroke-width="1.5" fill="none"/></g></g><mask/><g transform="translate(473.1414406108154 561.352293337984) rotate(0 28.90625 11.5)"><text x="0" y="16.900390625" font-family="Helvetica, Segoe UI Emoji" font-size="20px" fill="#333333" text-anchor="start" style="white-space: pre;" direction="ltr" dominant-baseline="alphabetic">spawn</text></g><g stroke-linecap="round"><g transform="translate(394.1827281128259 525.1466118909564) rotate(0 -86.24175993738595 58.59838400999314)"><path d="M0 0 C-42.45 28.84, -84.9 57.69, -172.48 117.2 M0 0 C-67.93 46.16, -135.87 92.32, -172.48 117.2" stroke="#333333" stroke-width="1.5" fill="none"/></g><g transform="translate(394.1827281128259 525.1466118909564) rotate(0 -86.24175993738595 58.59838400999314)"><path d="M-157.86 96.92 C-161.46 101.91, -165.06 106.9, -172.48 117.2 M-157.86 96.92 C-163.62 104.91, -169.38 112.89, -172.48 117.2" stroke="#333333" stroke-width="1.5" fill="none"/></g><g transform="translate(394.1827281128259 525.1466118909564) rotate(0 -86.24175993738595 58.59838400999314)"><path d="M-148.25 111.07 C-154.21 112.58, -160.18 114.08, -172.48 117.2 M-148.25 111.07 C-157.79 113.48, -167.34 115.9, -172.48 117.2" stroke="#333333" stroke-width="1.5" fill="none"/></g></g><mask/><g stroke-linecap="round"><g transform="translate(512.1705370421854 525.1466118909564) rotate(0 86.243859853929 58.52855537289247)"><path d="M0 0 C49.34 33.49, 98.68 66.97, 172.49 117.06 M0 0 C58.85 39.94, 117.71 79.88, 172.49 117.06" stroke="#333333" stroke-width="1.5" fill="none"/></g><g transform="translate(512.1705370421854 525.1466118909564) rotate(0 86.243859853929 58.52855537289247)"><path d="M148.25 110.94 C155.18 112.69, 162.12 114.44, 172.49 117.06 M148.25 110.94 C156.52 113.03, 164.79 115.11, 172.49 117.06" stroke="#333333" stroke-width="1.5" fill="none"/></g><g transform="translate(512.1705370421854 525.1466118909564) rotate(0 86.243859853929 58.52855537289247)"><path d="M157.85 96.79 C162.04 102.59, 166.22 108.39, 172.49 117.06 M157.85 96.79 C162.84 103.71, 167.84 110.62, 172.49 117.06" stroke="#333333" stroke-width="1.5" fill="none"/></g></g><mask/><g stroke-linecap="round"><g transform="translate(198.8233783548393 735.7965115236937) rotate(0 103.0704119011557 103.02331711340696)"><path d="M0 0 C72.36 72.33, 144.72 144.66, 206.14 206.05 M0 0 C59.03 59.01, 118.07 118.02, 206.14 206.05" stroke="#1971c2" stroke-width="1.5" fill="none"/></g><g transform="translate(198.8233783548393 735.7965115236937) rotate(0 103.0704119011557 103.02331711340696)"><path d="M183.48 195.49 C191.43 199.19, 199.39 202.9, 206.14 206.05 M183.48 195.49 C189.97 198.51, 196.46 201.53, 206.14 206.05" stroke="#1971c2" stroke-width="1.5" fill="none"/></g><g transform="translate(198.8233783548393 735.7965115236937) rotate(0 103.0704119011557 103.02331711340696)"><path d="M195.57 183.39 C199.28 191.34, 202.99 199.3, 206.14 206.05 M195.57 183.39 C198.6 189.88, 201.62 196.37, 206.14 206.05" stroke="#1971c2" stroke-width="1.5" fill="none"/></g></g><mask/><g stroke-linecap="round"><g transform="translate(453.64144061081527 738.1396572742013) rotate(0 -0.49999999999994316 100.68017136289927)"><path d="M0 0 C-0.33 65.87, -0.65 131.74, -1 201.36 M0 0 C-0.28 56.9, -0.57 113.81, -1 201.36" stroke="#1971c2" stroke-width="1.5" fill="none"/></g><g transform="translate(453.64144061081527 738.1396572742013) rotate(0 -0.49999999999994316 100.68017136289927)"><path d="M-9.43 177.83 C-6.67 185.52, -3.92 193.22, -1 201.36 M-9.43 177.83 C-7.05 184.48, -4.67 191.13, -1 201.36" stroke="#1971c2" stroke-width="1.5" fill="none"/></g><g transform="translate(453.64144061081527 738.1396572742013) rotate(0 -0.49999999999994316 100.68017136289927)"><path d="M7.67 177.91 C4.83 185.58, 2 193.25, -1 201.36 M7.67 177.91 C5.22 184.54, 2.77 191.16, -1 201.36" stroke="#1971c2" stroke-width="1.5" fill="none"/></g></g><mask/><g transform="translate(473.1414406108154 819.825) rotate(0 29.462890625 11.5)"><text x="0" y="16.900390625" font-family="Helvetica, Segoe UI Emoji" font-size="20px" fill="#1971c2" text-anchor="start" style="white-space: pre;" direction="ltr" dominant-baseline="alphabetic">events</text></g><g stroke-linecap="round"><g transform="translate(707.6102630320975 735.6568542494924) rotate(0 -103.14481031417262 103.09314575050763)"><path d="M0 0 C-74.75 74.71, -149.5 149.42, -206.29 206.19 M0 0 C-77.97 77.93, -155.94 155.86, -206.29 206.19" stroke="#1971c2" stroke-width="1.5" fill="none"/></g><g transform="translate(707.6102630320975 735.6568542494924) rotate(0 -103.14481031417262 103.09314575050763)"><path d="M-195.72 183.53 C-199.55 191.74, -203.38 199.95, -206.29 206.19 M-195.72 183.53 C-199.71 192.09, -203.71 200.66, -206.29 206.19" stroke="#1971c2" stroke-width="1.5" fill="none"/></g><g transform="translate(707.6102630320975 735.6568542494924) rotate(0 -103.14481031417262 103.09314575050763)"><path d="M-183.63 195.63 C-191.84 199.45, -200.05 203.28, -206.29 206.19 M-183.63 195.63 C-192.19 199.62, -200.76 203.61, -206.29 206.19" stroke="#1971c2" stroke-width="1.5" fill="none"/></g></g><mask/><g stroke-linecap="round"><g transform="translate(541.1414406108154 990) rotate(0 60.75 0)"><path d="M0 0 C41.05 0, 82.09 0, 121.5 0 M0 0 C37.39 0, 74.78 0, 121.5 0" stroke="#9673a6" stroke-width="1.5" fill="none"/></g><g transform="translate(541.1414406108154 990) rotate(0 60.75 0)"><path d="M98.01 8.55 C105.94 5.66, 113.88 2.77, 121.5 0 M98.01 8.55 C105.24 5.92, 112.47 3.29, 121.5 0" stroke="#9673a6" stroke-width="1.5" fill="none"/></g><g transform="translate(541.1414406108154 990) rotate(0 60.75 0)"><path d="M98.01 -8.55 C105.94 -5.66, 113.88 -2.77, 121.5 0 M98.01 -8.55 C105.24 -5.92, 112.47 -3.29, 121.5 0" stroke="#9673a6" stroke-width="1.5" fill="none"/></g></g><mask/><g transform="translate(581.816896461517 964.673417963548) rotate(0 19.781631469726562 8.182292484195727)"><text x="0" y="12.024690364426949" font-family="Helvetica, Segoe UI Emoji" font-size="14.230073885557836px" fill="#553366" text-anchor="start" style="white-space: pre;" direction="ltr" dominant-baseline="alphabetic">fanout</text></g><g stroke-linecap="round"><g transform="translate(365.14144061081527 991.4671855046703) rotate(0 -64.81725807596536 -0.08119257973578442)"><path d="M0 0 C-44.23 -0.06, -88.46 -0.11, -129.63 -0.16" stroke="#888888" stroke-width="1.5" fill="none" stroke-dasharray="8 9"/></g><g transform="translate(365.14144061081527 991.4671855046703) rotate(0 -64.81725807596536 -0.08119257973578442)"><path d="M-106.13 -8.68 C-114.15 -5.78, -122.17 -2.87, -129.63 -0.16" stroke="#888888" stroke-width="1.5" fill="none"/></g><g transform="translate(365.14144061081527 991.4671855046703) rotate(0 -64.81725807596536 -0.08119257973578442)"><path d="M-106.15 8.42 C-114.16 5.49, -122.18 2.56, -129.63 -0.16" stroke="#888888" stroke-width="1.5" fill="none"/></g></g><mask/><g stroke-linecap="round"><g transform="translate(453.1414406108154 1038.5) rotate(0 0 95.25)"><path d="M0 0 C0 54.56, 0 109.11, 0 190.5" stroke="#888888" stroke-width="1.5" fill="none" stroke-dasharray="8 9"/></g><g transform="translate(453.1414406108154 1038.5) rotate(0 0 95.25)"><path d="M-8.55 167.01 C-6.1 173.74, -3.65 180.46, 0 190.5" stroke="#888888" stroke-width="1.5" fill="none"/></g><g transform="translate(453.1414406108154 1038.5) rotate(0 0 95.25)"><path d="M8.55 167.01 C6.1 173.74, 3.65 180.46, 0 190.5" stroke="#888888" stroke-width="1.5" fill="none"/></g></g><mask/><g stroke-linecap="round"><g transform="translate(841.1414406108154 990) rotate(0 60.75 0)"><path d="M0 0 C34.34 0, 68.67 0, 121.5 0 M0 0 C45.88 0, 91.75 0, 121.5 0" stroke="#d6b656" stroke-width="1.5" fill="none"/></g><g transform="translate(841.1414406108154 990) rotate(0 60.75 0)"><path d="M98.01 8.55 C104.65 6.13, 111.29 3.72, 121.5 0 M98.01 8.55 C106.88 5.32, 115.75 2.09, 121.5 0" stroke="#d6b656" stroke-width="1.5" fill="none"/></g><g transform="translate(841.1414406108154 990) rotate(0 60.75 0)"><path d="M98.01 -8.55 C104.65 -6.13, 111.29 -3.72, 121.5 0 M98.01 -8.55 C106.88 -5.32, 115.75 -2.09, 121.5 0" stroke="#d6b656" stroke-width="1.5" fill="none"/></g></g><mask/><g transform="translate(851.5053914166135 963.4936599885789) rotate(0 46.92455291748047 8.591873221080903)"><text x="0" y="12.626609881456039" font-family="Helvetica, Segoe UI Emoji" font-size="14.942388210575505px" fill="#665500" text-anchor="start" style="white-space: pre;" direction="ltr" dominant-baseline="alphabetic">atomic update</text></g><g stroke-linecap="round"><g transform="translate(756.0033812776896 1033.157970175269) rotate(0 0.17392788181336982 106.46074238591484)"><path d="M0 0 C0.13 80.48, 0.26 160.95, 0.35 212.92 M0 0 C0.11 67.83, 0.22 135.66, 0.35 212.92" stroke="#9673a6" stroke-width="1.5" fill="none"/></g><g transform="translate(756.0033812776896 1033.157970175269) rotate(0 0.17392788181336982 106.46074238591484)"><path d="M-8.24 189.44 C-4.99 198.32, -1.75 207.19, 0.35 212.92 M-8.24 189.44 C-5.5 196.92, -2.77 204.4, 0.35 212.92" stroke="#9673a6" stroke-width="1.5" fill="none"/></g><g transform="translate(756.0033812776896 1033.157970175269) rotate(0 0.17392788181336982 106.46074238591484)"><path d="M8.86 189.42 C5.64 198.3, 2.43 207.18, 0.35 212.92 M8.86 189.42 C6.15 196.9, 3.44 204.39, 0.35 212.92" stroke="#9673a6" stroke-width="1.5" fill="none"/></g></g><mask/><g transform="translate(672.4831164056861 1128.3121149793467) rotate(0 37.17839813232422 7.929833770655705)"><text x="0" y="11.653677244817192" font-family="Helvetica, Segoe UI Emoji" font-size="13.791015253314232px" fill="#553366" text-anchor="start" style="white-space: pre;" direction="ltr" dominant-baseline="alphabetic">batch / flush</text></g><g stroke-linecap="round"><g transform="translate(773.2568029301137 1244.5453352811237) rotate(0 0.5867208017526764 -104.61946348977892)"><path d="M0 0 C0.35 -62.98, 0.71 -125.96, 1.17 -209.24" stroke="#9673a6" stroke-width="2" fill="none" stroke-dasharray="8 9.5"/></g><g transform="translate(773.2568029301137 1244.5453352811237) rotate(0 0.5867208017526764 -104.61946348977892)"><path d="M9.59 -185.7 C7.06 -192.78, 4.52 -199.87, 1.17 -209.24" stroke="#9673a6" stroke-width="2" fill="none"/></g><g transform="translate(773.2568029301137 1244.5453352811237) rotate(0 0.5867208017526764 -104.61946348977892)"><path d="M-7.51 -185.79 C-4.9 -192.85, -2.28 -199.91, 1.17 -209.24" stroke="#9673a6" stroke-width="2" fill="none"/></g></g><mask/><g transform="translate(788.615111890329 1130.9634446407067) rotate(0 37.0694580078125 6.558186736572225)"><text x="0" y="9.637905881718599" font-family="Helvetica, Segoe UI Emoji" font-size="11.40554215056032px" fill="#553366" text-anchor="start" style="white-space: pre;" direction="ltr" dominant-baseline="alphabetic">JSON updates</text></g><g stroke-linecap="round"><g transform="translate(1001.8514934144853 936.9285703188384) rotate(0 -93.63580579140375 -92.92290998504916)"><path d="M0 0 C-62.96 -62.48, -125.93 -124.97, -187.27 -185.85 M0 0 C-71.74 -71.19, -143.48 -142.39, -187.27 -185.85" stroke="#d6b656" stroke-width="1.5" fill="none"/></g><g transform="translate(1001.8514934144853 936.9285703188384) rotate(0 -93.63580579140375 -92.92290998504916)"><path d="M-164.57 -175.37 C-172.21 -178.89, -179.84 -182.41, -187.27 -185.85 M-164.57 -175.37 C-173.27 -179.38, -181.96 -183.4, -187.27 -185.85" stroke="#d6b656" stroke-width="1.5" fill="none"/></g><g transform="translate(1001.8514934144853 936.9285703188384) rotate(0 -93.63580579140375 -92.92290998504916)"><path d="M-176.62 -163.23 C-180.2 -170.83, -183.78 -178.44, -187.27 -185.85 M-176.62 -163.23 C-180.7 -171.89, -184.78 -180.56, -187.27 -185.85" stroke="#d6b656" stroke-width="1.5" fill="none"/></g></g><mask/><g transform="translate(920.888138200741 819.8533262524139) rotate(0 70.6005859375 11.5)"><text x="0" y="16.900390625" font-family="Helvetica, Segoe UI Emoji" font-size="20px" fill="#665500" text-anchor="start" style="white-space: pre;" direction="ltr" dominant-baseline="alphabetic">read at decision</text></g><g stroke-linecap="round" transform="translate(53.14144061081538 638) rotate(0 400 55)"><path d="M0 0 C178.03 0, 356.06 0, 800 0 M800 0 C800 23.51, 800 47.02, 800 110 M800 110 C597.22 110, 394.45 110, 0 110 M0 110 C0 74.41, 0 38.82, 0 0" stroke="#6c8ebf" stroke-width="1.5" fill="none" stroke-dasharray="8 9"/></g><g stroke-linecap="round" transform="translate(49.92211355115626 938) rotate(0 261.60966352982956 201)"><path d="M0 0 C201.29 0, 402.58 0, 523.22 0 M523.22 0 C523.22 141.83, 523.22 283.66, 523.22 402 M523.22 402 C355.51 402, 187.81 402, 0 402 M0 402 C0 269.93, 0 137.87, 0 0" stroke="#d79b00" stroke-width="1.5" fill="none" stroke-dasharray="8 9"/></g><g stroke-linecap="round" transform="translate(653.1414406108154 938) rotate(0 250 201)"><path d="M0 0 C178.16 0, 356.32 0, 500 0 M500 0 C500 102.02, 500 204.03, 500 402 M500 402 C325 402, 149.99 402, 0 402 M0 402 C0 275.95, 0 149.89, 0 0" stroke="#9673a6" stroke-width="1.5" fill="none" stroke-dasharray="8 9"/></g><g transform="translate(49.23072843032446 914.5382200419864) rotate(0 121.48310089111328 7.373039496231797)"><text x="0" y="10.835412833032262" font-family="Helvetica, Segoe UI Emoji" font-size="12.822677384750996px" fill="#d79b00" text-anchor="start" style="white-space: pre;" direction="ltr" dominant-baseline="alphabetic">Swarm infrastructure  —  Event Bus fanout</text></g><g transform="translate(673.1414406108154 918) rotate(0 83.35546875 6.899999999999977)"><text x="0" y="10.140234374999999" font-family="Helvetica, Segoe UI Emoji" font-size="12px" fill="#9673a6" text-anchor="start" style="white-space: pre;" direction="ltr" dominant-baseline="alphabetic">LLM control  (swarm-level only)</text></g><g stroke-linecap="round" transform="translate(73.14144061081538 650.1396572742013) rotate(0 80 40)"><path d="M0 0 L160 0 L160 80 L0 80" stroke="none" stroke-width="0" fill="#dae8fc"/><path d="M0 0 C44.04 0, 88.08 0, 160 0 M0 0 C62.19 0, 124.39 0, 160 0 M160 0 C160 21.93, 160 43.86, 160 80 M160 0 C160 31.57, 160 63.14, 160 80 M160 80 C115.25 80, 70.5 80, 0 80 M160 80 C110.27 80, 60.54 80, 0 80 M0 80 C0 51.92, 0 23.84, 0 0 M0 80 C0 57.09, 0 34.18, 0 0" stroke="#6c8ebf" stroke-width="1" fill="none"/></g><g transform="translate(91.14144061081538 662.1396572742013) rotate(0 23.35498046875 8.050000000000011)"><text x="0" y="11.830273437499999" font-family="Helvetica, Segoe UI Emoji" font-size="14px" fill="#1a365d" text-anchor="start" style="white-space: pre;" direction="ltr" dominant-baseline="alphabetic">agent 1</text></g><g transform="translate(91.14144061081538 686.1396572742013) rotate(0 37.3447265625 6.899999999999977)"><text x="0" y="10.140234374999999" font-family="Helvetica, Segoe UI Emoji" font-size="12px" fill="#3a5a80" text-anchor="start" style="white-space: pre;" direction="ltr" dominant-baseline="alphabetic">FlowState SM</text></g><g stroke-linecap="round" transform="translate(373.1414406108154 650.1396572742013) rotate(0 80 40)"><path d="M0 0 L160 0 L160 80 L0 80" stroke="none" stroke-width="0" fill="#dae8fc"/><path d="M0 0 C63.04 0, 126.08 0, 160 0 M0 0 C32.04 0, 64.08 0, 160 0 M160 0 C160 20.08, 160 40.16, 160 80 M160 0 C160 30.4, 160 60.79, 160 80 M160 80 C113.07 80, 66.15 80, 0 80 M160 80 C123.2 80, 86.4 80, 0 80 M0 80 C0 51.01, 0 22.02, 0 0 M0 80 C0 49.76, 0 19.53, 0 0" stroke="#6c8ebf" stroke-width="1" fill="none"/></g><g transform="translate(391.1414406108154 662.1396572742013) rotate(0 23.35498046875 8.050000000000011)"><text x="0" y="11.830273437499999" font-family="Helvetica, Segoe UI Emoji" font-size="14px" fill="#1a365d" text-anchor="start" style="white-space: pre;" direction="ltr" dominant-baseline="alphabetic">agent 2</text></g><g transform="translate(391.1414406108154 686.1396572742013) rotate(0 37.3447265625 6.899999999999977)"><text x="0" y="10.140234374999999" font-family="Helvetica, Segoe UI Emoji" font-size="12px" fill="#3a5a80" text-anchor="start" style="white-space: pre;" direction="ltr" dominant-baseline="alphabetic">FlowState SM</text></g><g stroke-linecap="round" transform="translate(673.2946131051006 650) rotate(0 80 40)"><path d="M0 0 L160 0 L160 80 L0 80" stroke="none" stroke-width="0" fill="#dae8fc"/><path d="M0 0 C47.72 0, 95.43 0, 160 0 M0 0 C40.29 0, 80.57 0, 160 0 M160 0 C160 23.18, 160 46.37, 160 80 M160 0 C160 19.48, 160 38.96, 160 80 M160 80 C127.05 80, 94.1 80, 0 80 M160 80 C114.23 80, 68.46 80, 0 80 M0 80 C0 52.7, 0 25.41, 0 0 M0 80 C0 51.93, 0 23.85, 0 0" stroke="#6c8ebf" stroke-width="1" fill="none"/></g><g transform="translate(691.2946131051006 662) rotate(0 24.51708984375 8.050000000000011)"><text x="0" y="11.830273437499999" font-family="Helvetica, Segoe UI Emoji" font-size="14px" fill="#1a365d" text-anchor="start" style="white-space: pre;" direction="ltr" dominant-baseline="alphabetic">agent N</text></g><g transform="translate(691.2946131051006 686) rotate(0 37.3447265625 6.899999999999977)"><text x="0" y="10.140234374999999" font-family="Helvetica, Segoe UI Emoji" font-size="12px" fill="#3a5a80" text-anchor="start" style="white-space: pre;" direction="ltr" dominant-baseline="alphabetic">FlowState SM</text></g><g transform="translate(585.2786556263532 673.3009669561036) rotate(0 16.440696716308594 22.687499401992795)"><text x="0" y="33.341530625924534" font-family="Helvetica, Segoe UI Emoji" font-size="39.4565206991179px" fill="#6c8ebf" text-anchor="start" style="white-space: pre;" direction="ltr" dominant-baseline="alphabetic">···</text></g><g transform="translate(27.650550936112495 72.71387106075036) rotate(0 120.25215911865234 10.245973939710339)"><text x="0" y="15.057474949102174" font-family="Helvetica, Segoe UI Emoji" font-size="17.819085112539728px" fill="#555555" text-anchor="start" style="white-space: pre;" direction="ltr" dominant-baseline="alphabetic">PC 1  —  Swarm (agents 1..N)</text></g><g transform="translate(25.916081655301753 136.87974457466282) rotate(0 396.6407165527344 8.977925645024158)"><text x="0" y="13.193952208966381" font-family="Helvetica, Segoe UI Emoji" font-size="15.6137837304768px" fill="#666666" text-anchor="start" style="white-space: pre;" direction="ltr" dominant-baseline="alphabetic">Coordinator also publishes COORDINATOR_DECISION events back to Event Bus after each LLM call (not drawn).</text></g><g transform="translate(25.916081655301753 165.44501709899606) rotate(0 394.8341064453125 8.977925645024158)"><text x="0" y="13.193952208966381" font-family="Helvetica, Segoe UI Emoji" font-size="15.6137837304768px" fill="#666666" text-anchor="start" style="white-space: pre;" direction="ltr" dominant-baseline="alphabetic">Legend: blue = agent events · purple = LLM control · yellow = strategy I/O · gray dashed = fanout to side channels.</text></g><g transform="translate(25.916081655301753 108.49104688288682) rotate(0 429.35382080078125 8.977925645024158)"><text x="0" y="13.193952208966381" font-family="Helvetica, Segoe UI Emoji" font-size="15.6137837304768px" fill="#666666" text-anchor="start" style="white-space: pre;" direction="ltr" dominant-baseline="alphabetic">Note: All N agents read from Strategy Store at decision points; only 1 arrow drawn (strategy → agent N) to keep layout clean.</text></g><g transform="translate(1191.7101155300224 56.562518026090345) rotate(0 86.10160827636719 13.299524148815358)"><text x="0" y="19.544969847095672" font-family="Helvetica, Segoe UI Emoji" font-size="23.129607215331063px" fill="#555555" text-anchor="start" style="white-space: pre;" direction="ltr" dominant-baseline="alphabetic">Simulation Layer</text></g><g transform="translate(1191.7101155300224 89.60481404799187) rotate(0 108.57634735107422 10.449626116926353)"><text x="0" y="15.356762022718026" font-family="Helvetica, Segoe UI Emoji" font-size="18.173262812045834px" fill="#888888" text-anchor="start" style="white-space: pre;" direction="ltr" dominant-baseline="alphabetic">(independent PCs, no IPC)</text></g><g stroke-linecap="round" transform="translate(1191.7101155300224 139.16825808084414) rotate(0 181.73262812045834 82.60574005475381)"><path d="M0 0 L363.47 0 L363.47 165.21 L0 165.21" stroke="none" stroke-width="0" fill="#f5f5f5"/><path d="M0 0 C91.56 0, 183.11 0, 363.47 0 M363.47 0 C363.47 44.55, 363.47 89.1, 363.47 165.21 M363.47 165.21 C221.39 165.21, 79.32 165.21, 0 165.21 M0 165.21 C0 126.08, 0 86.94, 0 0" stroke="#aaaaaa" stroke-width="1.5" fill="none" stroke-dasharray="8 9"/></g><g transform="translate(1224.752411551924 163.94998009727027) rotate(0 29.37884521484375 15.199456170074697)"><text x="0" y="22.33710839668077" font-family="Helvetica, Segoe UI Emoji" font-size="26.433836817521215px" fill="#666666" text-anchor="start" style="white-space: pre;" direction="ltr" dominant-baseline="alphabetic">PC 2</text></g><g transform="translate(1224.752411551924 208.55707972683732) rotate(0 85.34040832519531 10.449626116926353)"><text x="0" y="15.356762022718026" font-family="Helvetica, Segoe UI Emoji" font-size="18.173262812045834px" fill="#888888" text-anchor="start" style="white-space: pre;" direction="ltr" dominant-baseline="alphabetic">(independent swarm)</text></g><g transform="translate(1224.752411551924 238.2951461465487) rotate(0 97.9742202758789 10.44962611692634)"><text x="0" y="15.356762022718026" font-family="Helvetica, Segoe UI Emoji" font-size="18.173262812045834px" fill="#888888" text-anchor="start" style="white-space: pre;" direction="ltr" dominant-baseline="alphabetic">no IPC · no shared state</text></g><g stroke-linecap="round" transform="translate(1191.7101155300224 337.42203421225327) rotate(0 181.73262812045834 82.60574005475382)"><path d="M0 0 L363.47 0 L363.47 165.21 L0 165.21" stroke="none" stroke-width="0" fill="#f5f5f5"/><path d="M0 0 C110.08 0, 220.16 0, 363.47 0 M363.47 0 C363.47 63.76, 363.47 127.52, 363.47 165.21 M363.47 165.21 C245.55 165.21, 127.64 165.21, 0 165.21 M0 165.21 C0 112.14, 0 59.06, 0 0" stroke="#aaaaaa" stroke-width="1.5" fill="none" stroke-dasharray="8 9"/></g><g transform="translate(1224.752411551924 362.20375622867937) rotate(0 29.37884521484375 15.199456170074711)"><text x="0" y="22.33710839668077" font-family="Helvetica, Segoe UI Emoji" font-size="26.433836817521215px" fill="#666666" text-anchor="start" style="white-space: pre;" direction="ltr" dominant-baseline="alphabetic">PC 3</text></g><g transform="translate(1224.752411551924 406.81085585824644) rotate(0 85.34040832519531 10.449626116926368)"><text x="0" y="15.356762022718026" font-family="Helvetica, Segoe UI Emoji" font-size="18.173262812045834px" fill="#888888" text-anchor="start" style="white-space: pre;" direction="ltr" dominant-baseline="alphabetic">(independent swarm)</text></g><g transform="translate(1224.752411551924 436.5489222779578) rotate(0 97.9742202758789 10.449626116926368)"><text x="0" y="15.356762022718026" font-family="Helvetica, Segoe UI Emoji" font-size="18.173262812045834px" fill="#888888" text-anchor="start" style="white-space: pre;" direction="ltr" dominant-baseline="alphabetic">no IPC · no shared state</text></g><g transform="translate(1345.3567920318644 535.6758103436623) rotate(0 16.52405548095703 22.79918425511204)"><text x="0" y="33.50566259502115" font-family="Helvetica, Segoe UI Emoji" font-size="39.650755226281824px" fill="#888888" text-anchor="start" style="white-space: pre;" direction="ltr" dominant-baseline="alphabetic">···</text></g><g stroke-linecap="round" transform="translate(1191.7101155300224 634.8026984093669) rotate(0 181.73262812045834 82.60574005475382)"><path d="M0 0 L363.47 0 L363.47 165.21 L0 165.21" stroke="none" stroke-width="0" fill="#f5f5f5"/><path d="M0 0 C132.77 0, 265.54 0, 363.47 0 M363.47 0 C363.47 45.29, 363.47 90.57, 363.47 165.21 M363.47 165.21 C269.46 165.21, 175.45 165.21, 0 165.21 M0 165.21 C0 122.02, 0 78.83, 0 0" stroke="#aaaaaa" stroke-width="1.5" fill="none" stroke-dasharray="8 9"/></g><g transform="translate(1224.752411551924 659.584420425793) rotate(0 29.37884521484375 15.199456170074711)"><text x="0" y="22.33710839668077" font-family="Helvetica, Segoe UI Emoji" font-size="26.433836817521215px" fill="#666666" text-anchor="start" style="white-space: pre;" direction="ltr" dominant-baseline="alphabetic">PC n</text></g><g transform="translate(1224.752411551924 704.1915200553601) rotate(0 85.34040832519531 10.449626116926368)"><text x="0" y="15.356762022718026" font-family="Helvetica, Segoe UI Emoji" font-size="18.173262812045834px" fill="#888888" text-anchor="start" style="white-space: pre;" direction="ltr" dominant-baseline="alphabetic">(independent swarm)</text></g><g transform="translate(1224.752411551924 733.9295864750716) rotate(0 97.9742202758789 10.449626116926368)"><text x="0" y="15.356762022718026" font-family="Helvetica, Segoe UI Emoji" font-size="18.173262812045834px" fill="#888888" text-anchor="start" style="white-space: pre;" direction="ltr" dominant-baseline="alphabetic">no IPC · no shared state</text></g></svg>