<svg version="1.1" xmlns="http://www.w3.org/2000/svg" viewBox="0 0 1740 1359.613576722907" width="1740" height="1359.613576722907"><!-- svg-source:excalidraw --><metadata/><defs><style class="style-fonts">
      </style></defs><rect x="0" y="0" width="1740" height="1359.613576722907" fill="#ffffff"/><g transform="translate(620 10) rotate(0 130.22216796875 12.649999999999999)"><text x="0" y="18.5904296875" font-family="Helvetica, Segoe UI Emoji" font-size="22px" fill="#333333" text-anchor="start" style="white-space: pre;" direction="ltr" dominant-baseline="alphabetic">AI Defense — Architecture</text></g><g stroke-linecap="round" transform="translate(10 50.22833827331999) rotate(0 860 380)"><path d="M0 0 C489.35 0, 978.69 0, 1720 0 M1720 0 C1720 259.46, 1720 518.92, 1720 760 M1720 760 C1242.98 760, 765.95 760, 0 760 M0 760 C0 484.01, 0 208.01, 0 0" stroke="#82b366" stroke-width="1.5" fill="none" stroke-dasharray="8 9"/></g><g transform="translate(30.203958462286266 62) rotate(0 128.7574462890625 9.315597655072196)"><text x="0" y="13.690194719656875" font-family="Helvetica, Segoe UI Emoji" font-size="16.201039400125552px" fill="#5a7d47" text-anchor="start" style="white-space: pre;" direction="ltr" dominant-baseline="alphabetic">Online Plane  —  real-time · no LLM</text></g><g stroke-linecap="round" transform="translate(10 830) rotate(0 860 259.8067883614535)"><path d="M0 0 C427.27 0, 854.53 0, 1720 0 M1720 0 C1720 131.53, 1720 263.07, 1720 519.61 M1720 519.61 C1137.6 519.61, 555.19 519.61, 0 519.61 M0 519.61 C0 345.28, 0 170.95, 0 0" stroke="#888888" stroke-width="1.5" fill="none" stroke-dasharray="8 9"/></g><g transform="translate(30.256755975720864 852.4473121155389) rotate(0 140.15354919433594 8.314256002542834)"><text x="0" y="12.218623843410823" font-family="Helvetica, Segoe UI Emoji" font-size="14.459575656596192px" fill="#555555" text-anchor="start" style="white-space: pre;" direction="ltr" dominant-baseline="alphabetic">Offline Plane  —  analytics · policy evolution</text></g><g stroke-linecap="round" transform="translate(50.144746690974785 455.9814064178436) rotate(0 450 126.76329489818505)"><path d="M0 0 C258.79 0, 517.59 0, 900 0 M900 0 C900 68.05, 900 136.11, 900 253.53 M900 253.53 C545.99 253.53, 191.98 253.53, 0 253.53 M0 253.53 C0 190.8, 0 128.08, 0 0" stroke="#82b366" stroke-width="1.5" fill="none" stroke-dasharray="8 9"/></g><g transform="translate(62.70452780598521 469.5579012183062) rotate(0 72.7001953125 13.800000000000011)"><text x="0" y="10.140234374999999" font-family="Helvetica, Segoe UI Emoji" font-size="12px" fill="#5a7d47" text-anchor="start" style="white-space: pre;" direction="ltr" dominant-baseline="alphabetic">AI Defense Runtime  </text><text x="0" y="23.940234374999996" font-family="Helvetica, Segoe UI Emoji" font-size="12px" fill="#5a7d47" text-anchor="start" style="white-space: pre;" direction="ltr" dominant-baseline="alphabetic">(FastAPI · 4-stage pipeline)</text></g><g stroke-linecap="round" transform="translate(1030 870.0835623531661) rotate(0 330 230)"><path d="M0 0 C154.53 0, 309.07 0, 660 0 M660 0 C660 114.83, 660 229.66, 660 460 M660 460 C522.16 460, 384.33 460, 0 460 M0 460 C0 280.49, 0 100.98, 0 0" stroke="#9673a6" stroke-width="1.5" fill="none" stroke-dasharray="8 9"/></g><g transform="translate(1050.0627570528889 882) rotate(0 52.0283203125 6.899999999999977)"><text x="0" y="10.140234374999999" font-family="Helvetica, Segoe UI Emoji" font-size="12px" fill="#9673a6" text-anchor="start" style="white-space: pre;" direction="ltr" dominant-baseline="alphabetic">Policy control plane</text></g><g stroke-linecap="round" transform="translate(56.15769071876929 127.71288681701458) rotate(0 80 45)"><path d="M160 45 C160 46.81, 159.8 48.63, 159.42 50.42 C159.03 52.22, 158.44 54.01, 157.68 55.77 C156.91 57.52, 155.94 59.27, 154.8 60.96 C153.66 62.65, 152.33 64.31, 150.84 65.91 C149.34 67.51, 147.66 69.07, 145.84 70.56 C144.01 72.05, 142.01 73.49, 139.88 74.84 C137.75 76.19, 135.46 77.48, 133.05 78.68 C130.64 79.88, 128.09 81.01, 125.45 82.03 C122.8 83.06, 120.02 84.01, 117.18 84.85 C114.33 85.69, 111.37 86.43, 108.37 87.08 C105.36 87.72, 102.27 88.26, 99.15 88.69 C96.02 89.13, 92.83 89.45, 89.64 89.67 C86.45 89.89, 83.21 90, 80 90 C76.79 90, 73.55 89.89, 70.36 89.67 C67.17 89.45, 63.98 89.13, 60.85 88.69 C57.73 88.26, 54.64 87.72, 51.63 87.08 C48.63 86.43, 45.67 85.69, 42.82 84.85 C39.98 84.01, 37.2 83.06, 34.55 82.03 C31.91 81.01, 29.36 79.88, 26.95 78.68 C24.54 77.48, 22.25 76.19, 20.12 74.84 C17.99 73.49, 15.99 72.05, 14.16 70.56 C12.34 69.07, 10.66 67.51, 9.16 65.91 C7.67 64.31, 6.34 62.65, 5.2 60.96 C4.06 59.27, 3.09 57.52, 2.32 55.77 C1.56 54.01, 0.97 52.22, 0.58 50.42 C0.2 48.63, 0 46.81, 0 45 C0 43.19, 0.2 41.37, 0.58 39.58 C0.97 37.78, 1.56 35.99, 2.32 34.23 C3.09 32.48, 4.06 30.73, 5.2 29.04 C6.34 27.35, 7.67 25.69, 9.16 24.09 C10.66 22.49, 12.34 20.93, 14.16 19.44 C15.99 17.95, 17.99 16.51, 20.12 15.16 C22.25 13.81, 24.54 12.52, 26.95 11.32 C29.36 10.12, 31.91 8.99, 34.55 7.97 C37.2 6.94, 39.98 5.99, 42.82 5.15 C45.67 4.31, 48.63 3.57, 51.63 2.92 C54.64 2.28, 57.73 1.74, 60.85 1.31 C63.98 0.87, 67.17 0.55, 70.36 0.33 C73.55 0.11, 76.79 0, 80 0 C83.21 0, 86.45 0.11, 89.64 0.33 C92.83 0.55, 96.02 0.87, 99.15 1.31 C102.27 1.74, 105.36 2.28, 108.37 2.92 C111.37 3.57, 114.33 4.31, 117.18 5.15 C120.02 5.99, 122.8 6.94, 125.45 7.97 C128.09 8.99, 130.64 10.12, 133.05 11.32 C135.46 12.52, 137.75 13.81, 139.88 15.16 C142.01 16.51, 144.01 17.95, 145.84 19.44 C147.66 20.93, 149.34 22.49, 150.84 24.09 C152.33 25.69, 153.66 27.35, 154.8 29.04 C155.94 30.73, 156.91 32.48, 157.68 34.23 C158.44 35.99, 159.03 37.78, 159.42 39.58 C159.8 41.37, 160 43.19, 160 45" stroke="none" stroke-width="0" fill="#f5f5f5"/><path d="M160 45 C160 46.81, 159.8 48.63, 159.42 50.42 C159.03 52.22, 158.44 54.01, 157.68 55.77 C156.91 57.52, 155.94 59.27, 154.8 60.96 C153.66 62.65, 152.33 64.31, 150.84 65.91 C149.34 67.51, 147.66 69.07, 145.84 70.56 C144.01 72.05, 142.01 73.49, 139.88 74.84 C137.75 76.19, 135.46 77.48, 133.05 78.68 C130.64 79.88, 128.09 81.01, 125.45 82.03 C122.8 83.06, 120.02 84.01, 117.18 84.85 C114.33 85.69, 111.37 86.43, 108.37 87.08 C105.36 87.72, 102.27 88.26, 99.15 88.69 C96.02 89.13, 92.83 89.45, 89.64 89.67 C86.45 89.89, 83.21 90, 80 90 C76.79 90, 73.55 89.89, 70.36 89.67 C67.17 89.45, 63.98 89.13, 60.85 88.69 C57.73 88.26, 54.64 87.72, 51.63 87.08 C48.63 86.43, 45.67 85.69, 42.82 84.85 C39.98 84.01, 37.2 83.06, 34.55 82.03 C31.91 81.01, 29.36 79.88, 26.95 78.68 C24.54 77.48, 22.25 76.19, 20.12 74.84 C17.99 73.49, 15.99 72.05, 14.16 70.56 C12.34 69.07, 10.66 67.51, 9.16 65.91 C7.67 64.31, 6.34 62.65, 5.2 60.96 C4.06 59.27, 3.09 57.52, 2.32 55.77 C1.56 54.01, 0.97 52.22, 0.58 50.42 C0.2 48.63, 0 46.81, 0 45 C0 43.19, 0.2 41.37, 0.58 39.58 C0.97 37.78, 1.56 35.99, 2.32 34.23 C3.09 32.48, 4.06 30.73, 5.2 29.04 C6.34 27.35, 7.67 25.69, 9.16 24.09 C10.66 22.49, 12.34 20.93, 14.16 19.44 C15.99 17.95, 17.99 16.51, 20.12 15.16 C22.25 13.81, 24.54 12.52, 26.95 11.32 C29.36 10.12, 31.91 8.99, 34.55 7.97 C37.2 6.94, 39.98 5.99, 42.82 5.15 C45.67 4.31, 48.63 3.57, 51.63 2.92 C54.64 2.28, 57.73 1.74, 60.85 1.31 C63.98 0.87, 67.17 0.55, 70.36 0.33 C73.55 0.11, 76.79 0, 80 0 C83.21 0, 86.45 0.11, 89.64 0.33 C92.83 0.55, 96.02 0.87, 99.15 1.31 C102.27 1.74, 105.36 2.28, 108.37 2.92 C111.37 3.57, 114.33 4.31, 117.18 5.15 C120.02 5.99, 122.8 6.94, 125.45 7.97 C128.09 8.99, 130.64 10.12, 133.05 11.32 C135.46 12.52, 137.75 13.81, 139.88 15.16 C142.01 16.51, 144.01 17.95, 145.84 19.44 C147.66 20.93, 149.34 22.49, 150.84 24.09 C152.33 25.69, 153.66 27.35, 154.8 29.04 C155.94 30.73, 156.91 32.48, 157.68 34.23 C158.44 35.99, 159.03 37.78, 159.42 39.58 C159.8 41.37, 160 43.19, 160 45" stroke="#666666" stroke-width="1" fill="none"/></g><g transform="translate(111.18030714623251 152.79603613211856) rotate(0 25.67236328125 8.049999999999997)"><text x="0" y="11.830273437499999" font-family="Helvetica, Segoe UI Emoji" font-size="14px" fill="#333333" text-anchor="start" style="white-space: pre;" direction="ltr" dominant-baseline="alphabetic">Browser</text></g><g transform="translate(93.18030714623251 176.79603613211856) rotate(0 40.65380859375 6.325000000000003)"><text x="0" y="9.29521484375" font-family="Helvetica, Segoe UI Emoji" font-size="11px" fill="#666666" text-anchor="start" style="white-space: pre;" direction="ltr" dominant-baseline="alphabetic">mouse telemetry</text></g><g stroke-linecap="round" transform="translate(330.10571016089125 132.1460855062897) rotate(0 90 45)"><path d="M0 0 L180 0 L180 90 L0 90" stroke="none" stroke-width="0" fill="#dae8fc"/><path d="M0 0 C48.32 0, 96.64 0, 180 0 M0 0 C70.8 0, 141.6 0, 180 0 M180 0 C180 22.27, 180 44.53, 180 90 M180 0 C180 27.7, 180 55.4, 180 90 M180 90 C143.37 90, 106.73 90, 0 90 M180 90 C131.85 90, 83.69 90, 0 90 M0 90 C0 56.64, 0 23.28, 0 0 M0 90 C0 62.99, 0 35.98, 0 0" stroke="#6c8ebf" stroke-width="1" fill="none"/></g><g stroke-linecap="round" transform="translate(945.5075656800798 129.0409938085644) rotate(0 64.50451703378394 45)"><path d="M0 0 L129.01 0 L129.01 90 L0 90" stroke="none" stroke-width="0" fill="#f5f5f5"/><path d="M0 0 C50.75 0, 101.49 0, 129.01 0 M0 0 C31.92 0, 63.84 0, 129.01 0 M129.01 0 C129.01 27.7, 129.01 55.4, 129.01 90 M129.01 0 C129.01 18.32, 129.01 36.63, 129.01 90 M129.01 90 C94.5 90, 59.98 90, 0 90 M129.01 90 C81.19 90, 33.37 90, 0 90 M0 90 C0 62.99, 0 35.98, 0 0 M0 90 C0 70.61, 0 51.21, 0 0" stroke="#666666" stroke-width="1" fill="none"/></g><g transform="translate(966.3674482826036 153.32331036200335) rotate(0 40.46875 8.049999999999997)"><text x="0" y="11.830273437499999" font-family="Helvetica, Segoe UI Emoji" font-size="14px" fill="#333333" text-anchor="start" style="white-space: pre;" direction="ltr" dominant-baseline="alphabetic">Backend API</text></g><g transform="translate(966.3674482826036 177.32331036200335) rotate(0 43.72607421875 6.325000000000003)"><text x="0" y="9.29521484375" font-family="Helvetica, Segoe UI Emoji" font-size="11px" fill="#666666" text-anchor="start" style="white-space: pre;" direction="ltr" dominant-baseline="alphabetic">queue / seat / pay</text></g><g stroke-linecap="round" transform="translate(310 310) rotate(0 110 45)"><path d="M0 0 L220 0 L220 90 L0 90" stroke="none" stroke-width="0" fill="#e1d5e7"/><path d="M0 0 C72.73 0, 145.46 0, 220 0 M0 0 C66.12 0, 132.25 0, 220 0 M220 0 C220 32.72, 220 65.44, 220 90 M220 0 C220 24.65, 220 49.3, 220 90 M220 90 C160.61 90, 101.22 90, 0 90 M220 90 C153.89 90, 87.78 90, 0 90 M0 90 C0 64.36, 0 38.71, 0 0 M0 90 C0 56.92, 0 23.84, 0 0" stroke="#9673a6" stroke-width="1" fill="none"/></g><g transform="translate(329.7216445925767 327.5187591300574) rotate(0 43.1962890625 8.050000000000011)"><text x="0" y="11.830273437499999" font-family="Helvetica, Segoe UI Emoji" font-size="14px" fill="#553366" text-anchor="start" style="white-space: pre;" direction="ltr" dominant-baseline="alphabetic">authz-adapter</text></g><g transform="translate(329.7216445925767 351.5187591300574) rotate(0 52.09346008300781 6.324999999999989)"><text x="0" y="9.29521484375" font-family="Helvetica, Segoe UI Emoji" font-size="11px" fill="#553366" text-anchor="start" style="white-space: pre;" direction="ltr" dominant-baseline="alphabetic">ext-authz ↔ /evaluate</text></g><g transform="translate(329.7216445925767 369.5187591300574) rotate(0 60.223388671875 6.324999999999989)"><text x="0" y="9.29521484375" font-family="Helvetica, Segoe UI Emoji" font-size="11px" fill="#553366" text-anchor="start" style="white-space: pre;" direction="ltr" dominant-baseline="alphabetic">HTTP 403 / 428 / throttle</text></g><g stroke-linecap="round" transform="translate(90.0659173727783 510) rotate(0 90 80)"><path d="M0 0 L180 0 L180 160 L0 160" stroke="none" stroke-width="0" fill="#d5e8d4"/><path d="M0 0 C44.51 0, 89.01 0, 180 0 M0 0 C38.67 0, 77.34 0, 180 0 M180 0 C180 50.35, 180 100.69, 180 160 M180 0 C180 35.02, 180 70.04, 180 160 M180 160 C143.49 160, 106.99 160, 0 160 M180 160 C109.23 160, 38.47 160, 0 160 M0 160 C0 117.3, 0 74.59, 0 0 M0 160 C0 106.75, 0 53.51, 0 0" stroke="#82b366" stroke-width="1" fill="none"/></g><g transform="translate(109.88331011235687 528.8357582923381) rotate(0 27.23779296875 8.050000000000011)"><text x="0" y="11.830273437499999" font-family="Helvetica, Segoe UI Emoji" font-size="14px" fill="#2b5e2b" text-anchor="start" style="white-space: pre;" direction="ltr" dominant-baseline="alphabetic">1. Guard</text></g><g transform="translate(110.02800557303436 556.8357582923381) rotate(0 25.669921875 6.899999999999977)"><text x="0" y="10.140234374999999" font-family="Helvetica, Segoe UI Emoji" font-size="12px" fill="#2b5e2b" text-anchor="start" style="white-space: pre;" direction="ltr" dominant-baseline="alphabetic">risk score</text></g><g transform="translate(110.16336584270039 576.8357582923381) rotate(0 32.015625 6.899999999999977)"><text x="0" y="10.140234374999999" font-family="Helvetica, Segoe UI Emoji" font-size="12px" fill="#2b5e2b" text-anchor="start" style="white-space: pre;" direction="ltr" dominant-baseline="alphabetic">tier decision</text></g><g transform="translate(110.30339370787215 602.8357582923381) rotate(0 46.763427734375 6.324999999999989)"><text x="0" y="9.29521484375" font-family="Helvetica, Segoe UI Emoji" font-size="11px" fill="#5a7d47" text-anchor="start" style="white-space: pre;" direction="ltr" dominant-baseline="alphabetic">EWMA accumulate</text></g><g transform="translate(110.30339370787215 620.8357582923381) rotate(0 26.600341796875 6.324999999999989)"><text x="0" y="9.29521484375" font-family="Helvetica, Segoe UI Emoji" font-size="11px" fill="#5a7d47" text-anchor="start" style="white-space: pre;" direction="ltr" dominant-baseline="alphabetic">dedup TTL</text></g><g transform="translate(110.30339370787215 638.9711185620042) rotate(0 43.09765625 6.324999999999989)"><text x="0" y="9.29521484375" font-family="Helvetica, Segoe UI Emoji" font-size="11px" fill="#5a7d47" text-anchor="start" style="white-space: pre;" direction="ltr" dominant-baseline="alphabetic">hysteresis margin</text></g><g stroke-linecap="round" transform="translate(289.96832540395167 510.1432390512981) rotate(0 90 80)"><path d="M0 0 L180 0 L180 160 L0 160" stroke="none" stroke-width="0" fill="#d5e8d4"/><path d="M0 0 C38.67 0, 77.34 0, 180 0 M0 0 C56.64 0, 113.28 0, 180 0 M180 0 C180 35.02, 180 70.04, 180 160 M180 0 C180 32.45, 180 64.9, 180 160 M180 160 C109.23 160, 38.47 160, 0 160 M180 160 C131.96 160, 83.92 160, 0 160 M0 160 C0 106.75, 0 53.51, 0 0 M0 160 C0 125.05, 0 90.09, 0 0" stroke="#82b366" stroke-width="1" fill="none"/></g><g transform="translate(309.06648089885493 528.4390126743516) rotate(0 35.01708984375 8.050000000000011)"><text x="0" y="11.830273437499999" font-family="Helvetica, Segoe UI Emoji" font-size="14px" fill="#2b5e2b" text-anchor="start" style="white-space: pre;" direction="ltr" dominant-baseline="alphabetic">2. Analyzer</text></g><g transform="translate(308.9264530336832 556.4390126743516) rotate(0 40.0224609375 6.899999999999977)"><text x="0" y="10.140234374999999" font-family="Helvetica, Segoe UI Emoji" font-size="12px" fill="#2b5e2b" text-anchor="start" style="white-space: pre;" direction="ltr" dominant-baseline="alphabetic">derived signals</text></g><g transform="translate(308.9264530336832 576.4390126743516) rotate(0 45.0234375 6.899999999999977)"><text x="0" y="10.140234374999999" font-family="Helvetica, Segoe UI Emoji" font-size="12px" fill="#2b5e2b" text-anchor="start" style="white-space: pre;" direction="ltr" dominant-baseline="alphabetic">session counters</text></g><g transform="translate(308.9264530336832 602.4390126743516) rotate(0 41.268798828125 6.324999999999989)"><text x="0" y="9.29521484375" font-family="Helvetica, Segoe UI Emoji" font-size="11px" fill="#5a7d47" text-anchor="start" style="white-space: pre;" direction="ltr" dominant-baseline="alphabetic">rapid_click_burst</text></g><g transform="translate(308.9264530336832 620.5603701575004) rotate(0 31.1845703125 6.324999999999989)"><text x="0" y="9.29521484375" font-family="Helvetica, Segoe UI Emoji" font-size="11px" fill="#5a7d47" text-anchor="start" style="white-space: pre;" direction="ltr" dominant-baseline="alphabetic">s3_fail_burst</text></g><g stroke-linecap="round" transform="translate(490.2270859584421 510) rotate(0 90 80)"><path d="M91 0 L180 81 L91 160 L0 81" stroke="none" stroke-width="0" fill="#d5e8d4" fill-rule="evenodd"/><path d="M91 0 C109.11 16.49, 127.23 32.97, 180 81 M91 0 C114.81 21.67, 138.62 43.34, 180 81 M180 81 C147.01 110.28, 114.02 139.57, 91 160 M180 81 C153.29 104.71, 126.58 128.42, 91 160 M91 160 C71.39 142.98, 51.78 125.95, 0 81 M91 160 C72.63 144.05, 54.26 128.11, 0 81 M0 81 C19.03 64.06, 38.07 47.11, 91 0 M0 81 C19.66 63.5, 39.31 46.01, 91 0" stroke="#82b366" stroke-width="1" fill="none"/></g><g transform="translate(546.171478297599 561.9604687696713) rotate(0 31.91015625 8.050000000000011)"><text x="0" y="11.830273437499999" font-family="Helvetica, Segoe UI Emoji" font-size="14px" fill="#2b5e2b" text-anchor="start" style="white-space: pre;" direction="ltr" dominant-baseline="alphabetic">3. Planner</text></g><g transform="translate(546.171478297599 585.9604687696713) rotate(0 29.951904296875 6.324999999999989)"><text x="0" y="9.29521484375" font-family="Helvetica, Segoe UI Emoji" font-size="11px" fill="#2b5e2b" text-anchor="start" style="white-space: pre;" direction="ltr" dominant-baseline="alphabetic">priority rules</text></g><g transform="translate(554.171478297599 603.9604687696713) rotate(0 20.69170379638672 6.324999999999989)"><text x="0" y="9.29521484375" font-family="Helvetica, Segoe UI Emoji" font-size="11px" fill="#2b5e2b" text-anchor="start" style="white-space: pre;" direction="ltr" dominant-baseline="alphabetic">→ Action</text></g><g stroke-linecap="round" transform="translate(690 510) rotate(0 110 80)"><path d="M0 0 L220 0 L220 160 L0 160" stroke="none" stroke-width="0" fill="#d5e8d4"/><path d="M0 0 C60.25 0, 120.5 0, 220 0 M0 0 C59.39 0, 118.78 0, 220 0 M220 0 C220 48.08, 220 96.16, 220 160 M220 0 C220 45.59, 220 91.18, 220 160 M220 160 C139.13 160, 58.27 160, 0 160 M220 160 C152.64 160, 85.29 160, 0 160 M0 160 C0 116.3, 0 72.61, 0 0 M0 160 C0 100.47, 0 40.95, 0 0" stroke="#82b366" stroke-width="1" fill="none"/></g><g transform="translate(713.5493675112622 529.4698430806156) rotate(0 46.6826171875 8.050000000000011)"><text x="0" y="11.830273437499999" font-family="Helvetica, Segoe UI Emoji" font-size="14px" fill="#2b5e2b" text-anchor="start" style="white-space: pre;" direction="ltr" dominant-baseline="alphabetic">4. Orchestrator</text></g><g transform="translate(713.5493675112622 557.5731881185941) rotate(0 34.0078125 6.899999999999977)"><text x="0" y="10.140234374999999" font-family="Helvetica, Segoe UI Emoji" font-size="12px" fill="#2b5e2b" text-anchor="start" style="white-space: pre;" direction="ltr" dominant-baseline="alphabetic">state commit</text></g><g transform="translate(713.5493675112622 577.5731881185941) rotate(0 35.0244140625 6.899999999999977)"><text x="0" y="10.140234374999999" font-family="Helvetica, Segoe UI Emoji" font-size="12px" fill="#2b5e2b" text-anchor="start" style="white-space: pre;" direction="ltr" dominant-baseline="alphabetic">S3 fixed gate</text></g><g transform="translate(713.5493675112622 603.5731881185941) rotate(0 51.661865234375 6.324999999999989)"><text x="0" y="9.29521484375" font-family="Helvetica, Segoe UI Emoji" font-size="11px" fill="#5a7d47" text-anchor="start" style="white-space: pre;" direction="ltr" dominant-baseline="alphabetic">HTTP response build</text></g><g transform="translate(713.5493675112622 621.5731881185941) rotate(0 46.468017578125 6.324999999999989)"><text x="0" y="9.29521484375" font-family="Helvetica, Segoe UI Emoji" font-size="11px" fill="#5a7d47" text-anchor="start" style="white-space: pre;" direction="ltr" dominant-baseline="alphabetic">flowState transition</text></g><g transform="translate(713.5493675112622 639.5731881185941) rotate(0 45.850341796875 6.324999999999989)"><text x="0" y="9.29521484375" font-family="Helvetica, Segoe UI Emoji" font-size="11px" fill="#5a7d47" text-anchor="start" style="white-space: pre;" direction="ltr" dominant-baseline="alphabetic">emit DEF_* events</text></g><g stroke-linecap="round" transform="translate(1083.372757283201 468.2508849116499) rotate(0 180 120)"><path d="M0 0 L360 0 L360 240 L0 240" stroke="none" stroke-width="0" fill="#f8cecc"/><path d="M0 0 C97.18 0, 194.37 0, 360 0 M0 0 C108.18 0, 216.35 0, 360 0 M360 0 C360 68.38, 360 136.77, 360 240 M360 0 C360 88.22, 360 176.44, 360 240 M360 240 C249.78 240, 139.56 240, 0 240 M360 240 C261.69 240, 163.37 240, 0 240 M0 240 C0 150.71, 0 61.42, 0 0 M0 240 C0 168.54, 0 97.09, 0 0" stroke="#b85450" stroke-width="1" fill="none"/></g><g transform="translate(1103.9711882204651 484.96086741187696) rotate(0 20.453125 9.199999999999989)"><text x="0" y="13.5203125" font-family="Helvetica, Segoe UI Emoji" font-size="16px" fill="#7a1f1c" text-anchor="start" style="white-space: pre;" direction="ltr" dominant-baseline="alphabetic">Redis</text></g><g transform="translate(1103.9711882204651 510.96086741187696) rotate(0 34.544189453125 6.324999999999989)"><text x="0" y="9.29521484375" font-family="Helvetica, Segoe UI Emoji" font-size="11px" fill="#7a1f1c" text-anchor="start" style="white-space: pre;" direction="ltr" dominant-baseline="alphabetic">runtime cache</text></g><g transform="translate(1103.9711882204651 534.960867411877) rotate(0 75.5927734375 6.324999999999989)"><text x="0" y="9.29521484375" font-family="Helvetica, Segoe UI Emoji" font-size="11px" fill="#7a1f1c" text-anchor="start" style="white-space: pre;" direction="ltr" dominant-baseline="alphabetic">• session state (flowState · tier)</text></g><g transform="translate(1103.9711882204651 552.960867411877) rotate(0 42.890869140625 6.324999999999989)"><text x="0" y="9.29521484375" font-family="Helvetica, Segoe UI Emoji" font-size="11px" fill="#7a1f1c" text-anchor="start" style="white-space: pre;" direction="ltr" dominant-baseline="alphabetic">• policy projection</text></g><g transform="translate(1103.9711882204651 570.960867411877) rotate(0 44.733154296875 6.324999999999989)"><text x="0" y="9.29521484375" font-family="Helvetica, Segoe UI Emoji" font-size="11px" fill="#7a1f1c" text-anchor="start" style="white-space: pre;" direction="ltr" dominant-baseline="alphabetic">• challenge tokens</text></g><g transform="translate(1103.9711882204651 588.8609482513016) rotate(0 60.314697265625 6.324999999999989)"><text x="0" y="9.29521484375" font-family="Helvetica, Segoe UI Emoji" font-size="11px" fill="#7a1f1c" text-anchor="start" style="white-space: pre;" direction="ltr" dominant-baseline="alphabetic">• dedup TTL · block keys</text></g><g transform="translate(1103.9711882204651 606.960867411877) rotate(0 36.160888671875 6.324999999999989)"><text x="0" y="9.29521484375" font-family="Helvetica, Segoe UI Emoji" font-size="11px" fill="#7a1f1c" text-anchor="start" style="white-space: pre;" direction="ltr" dominant-baseline="alphabetic">• session locks</text></g><g transform="translate(1103.9711882204651 624.960867411877) rotate(0 71.631591796875 6.324999999999989)"><text x="0" y="9.29521484375" font-family="Helvetica, Segoe UI Emoji" font-size="11px" fill="#7a1f1c" text-anchor="start" style="white-space: pre;" direction="ltr" dominant-baseline="alphabetic">• projection_refreshed_at_ms</text></g><g stroke-linecap="round" transform="translate(90 910) rotate(0 90 50)"><path d="M0 0 L180 0 L180 100 L0 100" stroke="none" stroke-width="0" fill="#e1d5e7"/><path d="M0 0 C39.75 0, 79.51 0, 180 0 M0 0 C62.73 0, 125.46 0, 180 0 M180 0 C180 26.24, 180 52.48, 180 100 M180 0 C180 33.98, 180 67.97, 180 100 M180 100 C131.99 100, 83.98 100, 0 100 M180 100 C130.1 100, 80.19 100, 0 100 M0 100 C0 78.62, 0 57.24, 0 0 M0 100 C0 69.54, 0 39.08, 0 0" stroke="#9673a6" stroke-width="1" fill="none"/></g><g transform="translate(110 922) rotate(0 40.1044921875 7.475000000000023)"><text x="0" y="10.98525390625" font-family="Helvetica, Segoe UI Emoji" font-size="13px" fill="#553366" text-anchor="start" style="white-space: pre;" direction="ltr" dominant-baseline="alphabetic">Runtime audit</text></g><g transform="translate(110 944) rotate(0 40.04150390625 6.324999999999989)"><text x="0" y="9.29521484375" font-family="Helvetica, Segoe UI Emoji" font-size="11px" fill="#553366" text-anchor="start" style="white-space: pre;" direction="ltr" dominant-baseline="alphabetic">JSONL (rotated)</text></g><g transform="translate(110 962) rotate(0 39.120361328125 6.324999999999989)"><text x="0" y="9.29521484375" font-family="Helvetica, Segoe UI Emoji" font-size="11px" fill="#553366" text-anchor="start" style="white-space: pre;" direction="ltr" dominant-baseline="alphabetic">DEF_GUARD_*</text></g><g transform="translate(110 980) rotate(0 35.451904296875 6.324999999999989)"><text x="0" y="9.29521484375" font-family="Helvetica, Segoe UI Emoji" font-size="11px" fill="#553366" text-anchor="start" style="white-space: pre;" direction="ltr" dominant-baseline="alphabetic">DEF_ORCH_*</text></g><g stroke-linecap="round" transform="translate(310 910) rotate(0 90 50)"><path d="M0 0 L180 0 L180 100 L0 100" stroke="none" stroke-width="0" fill="#e1d5e7"/><path d="M0 0 C51.29 0, 102.58 0, 180 0 M0 0 C66.16 0, 132.33 0, 180 0 M180 0 C180 30.62, 180 61.23, 180 100 M180 0 C180 27.31, 180 54.62, 180 100 M180 100 C113.03 100, 46.07 100, 0 100 M180 100 C126.41 100, 72.82 100, 0 100 M0 100 C0 76.02, 0 52.04, 0 0 M0 100 C0 62.32, 0 24.65, 0 0" stroke="#9673a6" stroke-width="1" fill="none"/></g><g transform="translate(330 922) rotate(0 33.072265625 8.050000000000011)"><text x="0" y="11.830273437499999" font-family="Helvetica, Segoe UI Emoji" font-size="14px" fill="#553366" text-anchor="start" style="white-space: pre;" direction="ltr" dominant-baseline="alphabetic">S3 archive</text></g><g transform="translate(330 946) rotate(0 35.16455078125 6.324999999999989)"><text x="0" y="9.29521484375" font-family="Helvetica, Segoe UI Emoji" font-size="11px" fill="#553366" text-anchor="start" style="white-space: pre;" direction="ltr" dominant-baseline="alphabetic">decision_audit</text></g><g transform="translate(330 964) rotate(0 34.538818359375 6.324999999999989)"><text x="0" y="9.29521484375" font-family="Helvetica, Segoe UI Emoji" font-size="11px" fill="#553366" text-anchor="start" style="white-space: pre;" direction="ltr" dominant-baseline="alphabetic">trajectory_raw</text></g><g transform="translate(330 984) rotate(0 33.937255859375 6.324999999999989)"><text x="0" y="9.29521484375" font-family="Helvetica, Segoe UI Emoji" font-size="11px" fill="#7f5a8a" text-anchor="start" style="white-space: pre;" direction="ltr" dominant-baseline="alphabetic">(append-only)</text></g><g stroke-linecap="round" transform="translate(530 910) rotate(0 90 50)"><path d="M0 0 L180 0 L180 100 L0 100" stroke="none" stroke-width="0" fill="#f5f5f5"/><path d="M0 0 C37.66 0, 75.33 0, 180 0 M0 0 C50.1 0, 100.21 0, 180 0 M180 0 C180 27.3, 180 54.59, 180 100 M180 0 C180 24.5, 180 49.01, 180 100 M180 100 C136.54 100, 93.08 100, 0 100 M180 100 C127.28 100, 74.56 100, 0 100 M0 100 C0 68.06, 0 36.12, 0 0 M0 100 C0 67.92, 0 35.85, 0 0" stroke="#666666" stroke-width="1" fill="none"/></g><g transform="translate(550 922) rotate(0 37.21484375 8.050000000000011)"><text x="0" y="11.830273437499999" font-family="Helvetica, Segoe UI Emoji" font-size="14px" fill="#333333" text-anchor="start" style="white-space: pre;" direction="ltr" dominant-baseline="alphabetic">ETL Worker</text></g><g transform="translate(550 946) rotate(0 46.470703125 6.324999999999989)"><text x="0" y="9.29521484375" font-family="Helvetica, Segoe UI Emoji" font-size="11px" fill="#666666" text-anchor="start" style="white-space: pre;" direction="ltr" dominant-baseline="alphabetic">CronJob hourly :15</text></g><g transform="translate(550 964) rotate(0 41.47515106201172 6.324999999999989)"><text x="0" y="9.29521484375" font-family="Helvetica, Segoe UI Emoji" font-size="11px" fill="#666666" text-anchor="start" style="white-space: pre;" direction="ltr" dominant-baseline="alphabetic">S3 → ClickHouse</text></g><g stroke-linecap="round" transform="translate(749.6593050168951 910.2629726808782) rotate(0 120 100)"><path d="M0 0 L240 0 L240 200 L0 200" stroke="none" stroke-width="0" fill="#ffe6cc"/><path d="M0 0 C62.98 0, 125.96 0, 240 0 M0 0 C81.56 0, 163.13 0, 240 0 M240 0 C240 53.35, 240 106.69, 240 200 M240 0 C240 55.45, 240 110.9, 240 200 M240 200 C188.69 200, 137.38 200, 0 200 M240 200 C166.9 200, 93.79 200, 0 200 M0 200 C0 121.73, 0 43.47, 0 0 M0 200 C0 148.08, 0 96.16, 0 0" stroke="#d79b00" stroke-width="1" fill="none"/></g><g transform="translate(770 922) rotate(0 40.45703125 9.199999999999989)"><text x="0" y="13.5203125" font-family="Helvetica, Segoe UI Emoji" font-size="16px" fill="#7f5200" text-anchor="start" style="white-space: pre;" direction="ltr" dominant-baseline="alphabetic">ClickHouse</text></g><g transform="translate(770 946) rotate(0 50.74609375 6.324999999999989)"><text x="0" y="9.29521484375" font-family="Helvetica, Segoe UI Emoji" font-size="11px" fill="#7f5200" text-anchor="start" style="white-space: pre;" direction="ltr" dominant-baseline="alphabetic">analytics read-model</text></g><g transform="translate(770 970) rotate(0 57.274658203125 6.324999999999989)"><text x="0" y="9.29521484375" font-family="Helvetica, Segoe UI Emoji" font-size="11px" fill="#7f5200" text-anchor="start" style="white-space: pre;" direction="ltr" dominant-baseline="alphabetic">• defense_audit_events</text></g><g transform="translate(770 988) rotate(0 58.47509765625 6.324999999999989)"><text x="0" y="9.29521484375" font-family="Helvetica, Segoe UI Emoji" font-size="11px" fill="#7f5200" text-anchor="start" style="white-space: pre;" direction="ltr" dominant-baseline="alphabetic">• session_rollups (5min)</text></g><g transform="translate(770 1006) rotate(0 37.691650390625 6.3250000000000455)"><text x="0" y="9.29521484375" font-family="Helvetica, Segoe UI Emoji" font-size="11px" fill="#7f5200" text-anchor="start" style="white-space: pre;" direction="ltr" dominant-baseline="alphabetic">• match_rollups</text></g><g transform="translate(770 1024) rotate(0 71.330810546875 6.3250000000000455)"><text x="0" y="9.29521484375" font-family="Helvetica, Segoe UI Emoji" font-size="11px" fill="#7f5200" text-anchor="start" style="white-space: pre;" direction="ltr" dominant-baseline="alphabetic">• post_review_candidates_v1</text></g><g transform="translate(770 1058) rotate(0 54.256103515625 6.3250000000000455)"><text x="0" y="9.29521484375" font-family="Helvetica, Segoe UI Emoji" font-size="11px" fill="#7f5200" text-anchor="start" style="white-space: pre;" direction="ltr" dominant-baseline="alphabetic">raw fact + rollup views</text></g><g stroke-linecap="round" transform="translate(1070 910) rotate(0 110 50)"><path d="M0 0 L220 0 L220 100 L0 100" stroke="none" stroke-width="0" fill="#e1d5e7"/><path d="M0 0 C46.02 0, 92.03 0, 220 0 M0 0 C47.52 0, 95.04 0, 220 0 M220 0 C220 29.94, 220 59.88, 220 100 M220 0 C220 21.1, 220 42.2, 220 100 M220 100 C157.91 100, 95.83 100, 0 100 M220 100 C141.15 100, 62.3 100, 0 100 M0 100 C0 72.62, 0 45.24, 0 0 M0 100 C0 68.88, 0 37.76, 0 0" stroke="#9673a6" stroke-width="1" fill="none"/></g><g transform="translate(1089.3133640095714 923.722127363091) rotate(0 50.5654296875 8.050000000000011)"><text x="0" y="11.830273437499999" font-family="Helvetica, Segoe UI Emoji" font-size="14px" fill="#553366" text-anchor="start" style="white-space: pre;" direction="ltr" dominant-baseline="alphabetic">Policy Optimizer</text></g><g transform="translate(1089.3133640095714 947.7719638462672) rotate(0 59.91455078125 6.324999999999989)"><text x="0" y="9.29521484375" font-family="Helvetica, Segoe UI Emoji" font-size="11px" fill="#553366" text-anchor="start" style="white-space: pre;" direction="ltr" dominant-baseline="alphabetic">metrics-based proposals</text></g><g transform="translate(1089.3133640095714 965.5651004598211) rotate(0 56.45781707763672 6.324999999999989)"><text x="0" y="9.29521484375" font-family="Helvetica, Segoe UI Emoji" font-size="11px" fill="#553366" text-anchor="start" style="white-space: pre;" direction="ltr" dominant-baseline="alphabetic">dry-run → apply (gated)</text></g><g transform="translate(1089.365046288421 983.7719638462672) rotate(0 20.788818359375 6.324999999999989)"><text x="0" y="9.29521484375" font-family="Helvetica, Segoe UI Emoji" font-size="11px" fill="#7f5a8a" text-anchor="start" style="white-space: pre;" direction="ltr" dominant-baseline="alphabetic">CronJob</text></g><g stroke-linecap="round" transform="translate(1070.280748409822 1050.100311734478) rotate(0 110 50)"><path d="M0 0 L220 0 L220 100 L0 100" stroke="none" stroke-width="0" fill="#e1d5e7"/><path d="M0 0 C59.48 0, 118.96 0, 220 0 M0 0 C62.42 0, 124.85 0, 220 0 M220 0 C220 38.51, 220 77.02, 220 100 M220 0 C220 25.77, 220 51.54, 220 100 M220 100 C170.2 100, 120.4 100, 0 100 M220 100 C152.12 100, 84.25 100, 0 100 M0 100 C0 74.89, 0 49.78, 0 0 M0 100 C0 74.85, 0 49.7, 0 0" stroke="#9673a6" stroke-width="1" fill="none"/></g><g transform="translate(1090 1062) rotate(0 63.02392578125 8.049999999999955)"><text x="0" y="11.830273437499999" font-family="Helvetica, Segoe UI Emoji" font-size="14px" fill="#553366" text-anchor="start" style="white-space: pre;" direction="ltr" dominant-baseline="alphabetic">Post-Review Copilot</text></g><g transform="translate(1090 1086) rotate(0 42.49072265625 6.3250000000000455)"><text x="0" y="9.29521484375" font-family="Helvetica, Segoe UI Emoji" font-size="11px" fill="#553366" text-anchor="start" style="white-space: pre;" direction="ltr" dominant-baseline="alphabetic">LLM sanity check</text></g><g transform="translate(1090 1104) rotate(0 54.417236328125 6.3250000000000455)"><text x="0" y="9.29521484375" font-family="Helvetica, Segoe UI Emoji" font-size="11px" fill="#553366" text-anchor="start" style="white-space: pre;" direction="ltr" dominant-baseline="alphabetic">suspect session triage</text></g><g transform="translate(1090 1122) rotate(0 44.171875 6.3250000000000455)"><text x="0" y="9.29521484375" font-family="Helvetica, Segoe UI Emoji" font-size="11px" fill="#7f5a8a" text-anchor="start" style="white-space: pre;" direction="ltr" dominant-baseline="alphabetic">(CronJob ~10min)</text></g><g stroke-linecap="round" transform="translate(1404.821787481419 910.8496332056213) rotate(0 130 120)"><path d="M0 0 L260 0 L260 240 L0 240" stroke="none" stroke-width="0" fill="#dae8fc"/><path d="M0 0 C80.92 0, 161.83 0, 260 0 M0 0 C91.85 0, 183.7 0, 260 0 M260 0 C260 51.57, 260 103.14, 260 240 M260 0 C260 71.88, 260 143.75, 260 240 M260 240 C180.15 240, 100.3 240, 0 240 M260 240 C158.56 240, 57.12 240, 0 240 M0 240 C0 160.32, 0 80.64, 0 0 M0 240 C0 148.78, 0 57.56, 0 0" stroke="#6c8ebf" stroke-width="1" fill="none"/></g><g transform="translate(1434.2177311671123 925.0395968693081) rotate(0 43.578125 9.199999999999989)"><text x="0" y="13.5203125" font-family="Helvetica, Segoe UI Emoji" font-size="16px" fill="#1a365d" text-anchor="start" style="white-space: pre;" direction="ltr" dominant-baseline="alphabetic">PostgreSQL</text></g><g transform="translate(1434.2177311671123 951.0395968693081) rotate(0 77.0322265625 6.324999999999989)"><text x="0" y="9.29521484375" font-family="Helvetica, Segoe UI Emoji" font-size="11px" fill="#1a365d" text-anchor="start" style="white-space: pre;" direction="ltr" dominant-baseline="alphabetic">policy authority (source of truth)</text></g><g transform="translate(1434.358579452536 973.0395968693081) rotate(0 41.053955078125 6.324999999999989)"><text x="0" y="9.29521484375" font-family="Helvetica, Segoe UI Emoji" font-size="11px" fill="#1a365d" text-anchor="start" style="white-space: pre;" direction="ltr" dominant-baseline="alphabetic">• policy_versions</text></g><g transform="translate(1434.5356753006427 991.0395968693081) rotate(0 50.53662109375 6.324999999999989)"><text x="0" y="9.29521484375" font-family="Helvetica, Segoe UI Emoji" font-size="11px" fill="#1a365d" text-anchor="start" style="white-space: pre;" direction="ltr" dominant-baseline="alphabetic">• policy_rollout_state</text></g><g transform="translate(1434.358579452536 1009.0395968693081) rotate(0 54.8173828125 6.3250000000000455)"><text x="0" y="9.29521484375" font-family="Helvetica, Segoe UI Emoji" font-size="11px" fill="#1a365d" text-anchor="start" style="white-space: pre;" direction="ltr" dominant-baseline="alphabetic">• policy_rollout_events</text></g><g transform="translate(1434.358579452536 1027.039596869308) rotate(0 63.6796875 6.3250000000000455)"><text x="0" y="9.29521484375" font-family="Helvetica, Segoe UI Emoji" font-size="11px" fill="#1a365d" text-anchor="start" style="white-space: pre;" direction="ltr" dominant-baseline="alphabetic">• policy_optimization_runs</text></g><g transform="translate(1434.358579452536 1045.039596869308) rotate(0 46.559326171875 6.3250000000000455)"><text x="0" y="9.29521484375" font-family="Helvetica, Segoe UI Emoji" font-size="11px" fill="#1a365d" text-anchor="start" style="white-space: pre;" direction="ltr" dominant-baseline="alphabetic">• post_review_runs</text></g><g transform="translate(1434.358579452536 1063.039596869308) rotate(0 73.7666015625 6.3250000000000455)"><text x="0" y="9.29521484375" font-family="Helvetica, Segoe UI Emoji" font-size="11px" fill="#1a365d" text-anchor="start" style="white-space: pre;" direction="ltr" dominant-baseline="alphabetic">• post_review_session_results</text></g><g transform="translate(1434.358579452536 1101.039596869308) rotate(0 48.59765625 6.3250000000000455)"><text x="0" y="9.29521484375" font-family="Helvetica, Segoe UI Emoji" font-size="11px" fill="#1a365d" text-anchor="start" style="white-space: pre;" direction="ltr" dominant-baseline="alphabetic">(writable: Optimizer,</text></g><g transform="translate(1434.358579452536 1119.039596869308) rotate(0 34.22998046875 6.3250000000000455)"><text x="0" y="9.29521484375" font-family="Helvetica, Segoe UI Emoji" font-size="11px" fill="#1a365d" text-anchor="start" style="white-space: pre;" direction="ltr" dominant-baseline="alphabetic"> Post-Review)</text></g><g stroke-linecap="round" transform="translate(1068.9382633915452 1188.273491105375) rotate(0 180 65)"><path d="M0 0 L360 0 L360 130 L0 130" stroke="none" stroke-width="0" fill="#d5e8d4"/><path d="M0 0 C75.96 0, 151.91 0, 360 0 M0 0 C101.6 0, 203.19 0, 360 0 M360 0 C360 46.59, 360 93.18, 360 130 M360 0 C360 35.6, 360 71.19, 360 130 M360 130 C247.97 130, 135.94 130, 0 130 M360 130 C258.28 130, 156.57 130, 0 130 M0 130 C0 93.37, 0 56.73, 0 0 M0 130 C0 93.51, 0 57.02, 0 0" stroke="#82b366" stroke-width="1" fill="none"/></g><g transform="translate(1083.9906592015961 1197.0131153612094) rotate(0 53.689453125 8.049999999999955)"><text x="0" y="11.830273437499999" font-family="Helvetica, Segoe UI Emoji" font-size="14px" fill="#2b5e2b" text-anchor="start" style="white-space: pre;" direction="ltr" dominant-baseline="alphabetic">Projection resync</text></g><g transform="translate(1083.9906592015961 1221.0131153612094) rotate(0 37.9091796875 6.3250000000000455)"><text x="0" y="9.29521484375" font-family="Helvetica, Segoe UI Emoji" font-size="11px" fill="#2b5e2b" text-anchor="start" style="white-space: pre;" direction="ltr" dominant-baseline="alphabetic">Reconciler loop</text></g><g transform="translate(1083.9906592015961 1239.0131153612094) rotate(0 36.6845703125 6.3250000000000455)"><text x="0" y="9.29521484375" font-family="Helvetica, Segoe UI Emoji" font-size="11px" fill="#2b5e2b" text-anchor="start" style="white-space: pre;" direction="ltr" dominant-baseline="alphabetic">distributed lock</text></g><g transform="translate(1083.8888860457025 1261.0131153612094) rotate(0 46.06743621826172 6.3250000000000455)"><text x="0" y="9.29521484375" font-family="Helvetica, Segoe UI Emoji" font-size="11px" fill="#5a7d47" text-anchor="start" style="white-space: pre;" direction="ltr" dominant-baseline="alphabetic">document → rollout</text></g><g transform="translate(1083.8888860457025 1279.0131153612094) rotate(0 37.81206512451172 6.3250000000000455)"><text x="0" y="9.29521484375" font-family="Helvetica, Segoe UI Emoji" font-size="11px" fill="#5a7d47" text-anchor="start" style="white-space: pre;" direction="ltr" dominant-baseline="alphabetic">→ version index</text></g><g transform="translate(1083.8888860457025 1297.0131153612094) rotate(0 46.011474609375 6.3250000000000455)"><text x="0" y="9.29521484375" font-family="Helvetica, Segoe UI Emoji" font-size="11px" fill="#5a7d47" text-anchor="start" style="white-space: pre;" direction="ltr" dominant-baseline="alphabetic">+ refreshed_at_ms</text></g><g stroke-linecap="round"><g transform="translate(216.5182776343322 174.63056752270867) rotate(0 52.29371626327952 0.02851016187302946)"><path d="M0 0 C26.64 0.01, 53.29 0.03, 104.59 0.06 M0 0 C32.97 0.02, 65.94 0.04, 104.59 0.06" stroke="#1971c2" stroke-width="2" fill="none"/></g><g transform="translate(216.5182776343322 174.63056752270867) rotate(0 52.29371626327952 0.02851016187302946)"><path d="M104.59 0.06 L90.99 6.39 L91 -6.29 L104.59 0.06" stroke="none" stroke-width="0" fill="#1971c2" fill-rule="evenodd"/><path d="M104.59 0.06 C101.12 1.67, 97.66 3.28, 90.99 6.39 M104.59 0.06 C100.3 2.05, 96.01 4.05, 90.99 6.39 M90.99 6.39 C90.99 3.63, 90.99 0.86, 91 -6.29 M90.99 6.39 C90.99 1.7, 90.99 -2.99, 91 -6.29 M91 -6.29 C95.94 -3.98, 100.88 -1.68, 104.59 0.06 M91 -6.29 C95.76 -4.06, 100.53 -1.84, 104.59 0.06 M104.59 0.06 C104.59 0.06, 104.59 0.06, 104.59 0.06 M104.59 0.06 C104.59 0.06, 104.59 0.06, 104.59 0.06" stroke="#1971c2" stroke-width="2" fill="none"/></g></g><mask/><g stroke-linecap="round"><g transform="translate(420.6124677715696 225.68398581204607) rotate(0 0.22974682256716505 39.46371999219336)"><path d="M0 0 C0.1 16.77, 0.2 33.54, 0.46 78.93 M0 0 C0.13 22.95, 0.27 45.9, 0.46 78.93" stroke="#1971c2" stroke-width="2" fill="none"/></g><g transform="translate(420.6124677715696 225.68398581204607) rotate(0 0.22974682256716505 39.46371999219336)"><path d="M0.46 78.93 L-5.96 65.37 L6.72 65.3 L0.46 78.93" stroke="none" stroke-width="0" fill="#1971c2" fill-rule="evenodd"/><path d="M0.46 78.93 C-0.9 76.05, -2.27 73.17, -5.96 65.37 M0.46 78.93 C-1.41 74.99, -3.27 71.04, -5.96 65.37 M-5.96 65.37 C-1.82 65.35, 2.32 65.32, 6.72 65.3 M-5.96 65.37 C-3.22 65.35, -0.48 65.34, 6.72 65.3 M6.72 65.3 C4.87 69.32, 3.02 73.35, 0.46 78.93 M6.72 65.3 C4.39 70.37, 2.06 75.44, 0.46 78.93 M0.46 78.93 C0.46 78.93, 0.46 78.93, 0.46 78.93 M0.46 78.93 C0.46 78.93, 0.46 78.93, 0.46 78.93" stroke="#1971c2" stroke-width="2" fill="none"/></g></g><mask/><g transform="translate(444.50820872343786 246.71127916481305) rotate(0 50.82184600830078 8.280779701535977)"><text x="0" y="12.169427098741645" font-family="Helvetica, Segoe UI Emoji" font-size="14.401356002671264px" fill="#1971c2" text-anchor="start" style="white-space: pre;" direction="ltr" dominant-baseline="alphabetic">ext-authz gRPC</text></g><g transform="translate(444.50820872343786 270.27713444191147) rotate(0 54.01050567626953 8.280779701535977)"><text x="0" y="12.169427098741645" font-family="Helvetica, Segoe UI Emoji" font-size="14.401356002671264px" fill="#1971c2" text-anchor="start" style="white-space: pre;" direction="ltr" dominant-baseline="alphabetic">(critical API only)</text></g><g stroke-linecap="round"><g transform="translate(518.3201646377203 176.7247928789915) rotate(0 208.45092775959432 0.0622848742869877)"><path d="M0 0 C108.14 0.03, 216.29 0.06, 416.9 0.12 M0 0 C138.47 0.04, 276.94 0.08, 416.9 0.12" stroke="#2f9e44" stroke-width="2" fill="none"/></g><g transform="translate(518.3201646377203 176.7247928789915) rotate(0 208.45092775959432 0.0622848742869877)"><path d="M416.9 0.12 L403.31 6.46 L403.31 -6.22 L416.9 0.12" stroke="none" stroke-width="0" fill="#2f9e44" fill-rule="evenodd"/><path d="M416.9 0.12 C413.37 1.77, 409.85 3.41, 403.31 6.46 M416.9 0.12 C412.39 2.23, 407.87 4.33, 403.31 6.46 M403.31 6.46 C403.31 2.89, 403.31 -0.68, 403.31 -6.22 M403.31 6.46 C403.31 1.92, 403.31 -2.62, 403.31 -6.22 M403.31 -6.22 C406.34 -4.81, 409.36 -3.39, 416.9 0.12 M403.31 -6.22 C406.55 -4.71, 409.79 -3.2, 416.9 0.12 M416.9 0.12 C416.9 0.12, 416.9 0.12, 416.9 0.12 M416.9 0.12 C416.9 0.12, 416.9 0.12, 416.9 0.12" stroke="#2f9e44" stroke-width="2" fill="none"/></g></g><mask/><g transform="translate(668.9445171660029 144.29275646995768) rotate(0 63.97880554199219 10.055853011091926)"><text x="0" y="14.77807338739444" font-family="Helvetica, Segoe UI Emoji" font-size="17.488440019290312px" fill="#2f9e44" text-anchor="start" style="white-space: pre;" direction="ltr" dominant-baseline="alphabetic">allow → backend</text></g><g stroke-linecap="round"><g transform="translate(376.10228192385887 403.5669597315904) rotate(0 -24.052709980484366 23.387775290143054)"><path d="M0 0 C-12.58 12.23, -25.16 24.46, -48.11 46.78 M0 0 C-15.25 14.83, -30.5 29.66, -48.11 46.78" stroke="#1971c2" stroke-width="2" fill="none"/></g><g transform="translate(376.10228192385887 403.5669597315904) rotate(0 -24.052709980484366 23.387775290143054)"><path d="M-48.11 46.78 L-42.78 32.75 L-33.94 41.84 L-48.11 46.78" stroke="none" stroke-width="0" fill="#1971c2" fill-rule="evenodd"/><path d="M-48.11 46.78 C-46.71 43.11, -45.32 39.44, -42.78 32.75 M-48.11 46.78 C-46.42 42.33, -44.73 37.88, -42.78 32.75 M-42.78 32.75 C-40.44 35.16, -38.1 37.56, -33.94 41.84 M-42.78 32.75 C-40.14 35.47, -37.5 38.19, -33.94 41.84 M-33.94 41.84 C-37.21 42.98, -40.49 44.12, -48.11 46.78 M-33.94 41.84 C-37.21 42.98, -40.49 44.12, -48.11 46.78 M-48.11 46.78 C-48.11 46.78, -48.11 46.78, -48.11 46.78 M-48.11 46.78 C-48.11 46.78, -48.11 46.78, -48.11 46.78" stroke="#1971c2" stroke-width="2" fill="none"/></g></g><mask/><g transform="translate(232.00574005517797 417.81926069272544) rotate(0 46.27223205566406 7.543172555136806)"><text x="0" y="11.085440237703585" font-family="Helvetica, Segoe UI Emoji" font-size="13.1185609654553px" fill="#1971c2" text-anchor="start" style="white-space: pre;" direction="ltr" dominant-baseline="alphabetic">POST /evaluate</text></g><g stroke-linecap="round"><g transform="translate(268.85321072121206 589.9357715308494) rotate(0 10.573394639393968 0.5316524214792366)"><path d="M0 0 C6.15 0.31, 12.3 0.62, 21.15 1.06 M0 0 C6.9 0.35, 13.8 0.69, 21.15 1.06" stroke="#2f9e44" stroke-width="1.5" fill="none"/></g><g transform="translate(268.85321072121206 589.9357715308494) rotate(0 10.573394639393968 0.5316524214792366)"><path d="M21.15 1.06 L11.34 5.05 L11.79 -3.89 L21.15 1.06" stroke="none" stroke-width="0" fill="#2f9e44" fill-rule="evenodd"/><path d="M21.15 1.06 C18.3 2.22, 15.44 3.38, 11.34 5.05 M21.15 1.06 C17.95 2.36, 14.74 3.67, 11.34 5.05 M11.34 5.05 C11.44 3.12, 11.53 1.19, 11.79 -3.89 M11.34 5.05 C11.47 2.41, 11.6 -0.23, 11.79 -3.89 M11.79 -3.89 C15.27 -2.05, 18.75 -0.2, 21.15 1.06 M11.79 -3.89 C14.28 -2.57, 16.77 -1.25, 21.15 1.06 M21.15 1.06 C21.15 1.06, 21.15 1.06, 21.15 1.06 M21.15 1.06 C21.15 1.06, 21.15 1.06, 21.15 1.06" stroke="#2f9e44" stroke-width="1.5" fill="none"/></g></g><mask/><g stroke-linecap="round"><g transform="translate(468.1172709785887 590.7126191302151) rotate(0 13.101973132743666 -0.3252076388984051)"><path d="M0 0 C9.77 -0.24, 19.54 -0.49, 26.2 -0.65 M0 0 C9.47 -0.23, 18.93 -0.47, 26.2 -0.65" stroke="#2f9e44" stroke-width="1.5" fill="none"/></g><g transform="translate(468.1172709785887 590.7126191302151) rotate(0 13.101973132743666 -0.3252076388984051)"><path d="M26.2 -0.65 L14.47 5.18 L14.19 -5.89 L26.2 -0.65" stroke="none" stroke-width="0" fill="#2f9e44" fill-rule="evenodd"/><path d="M26.2 -0.65 C21.83 1.52, 17.45 3.7, 14.47 5.18 M26.2 -0.65 C21.96 1.46, 17.72 3.56, 14.47 5.18 M14.47 5.18 C14.37 1.46, 14.28 -2.26, 14.19 -5.89 M14.47 5.18 C14.39 2.26, 14.32 -0.67, 14.19 -5.89 M14.19 -5.89 C17.38 -4.5, 20.56 -3.11, 26.2 -0.65 M14.19 -5.89 C17.15 -4.6, 20.1 -3.31, 26.2 -0.65 M26.2 -0.65 C26.2 -0.65, 26.2 -0.65, 26.2 -0.65 M26.2 -0.65 C26.2 -0.65, 26.2 -0.65, 26.2 -0.65" stroke="#2f9e44" stroke-width="1.5" fill="none"/></g></g><mask/><g stroke-linecap="round"><g transform="translate(667.3805584501816 589.8943298990351) rotate(0 11.51565206909936 0.29466519962409166)"><path d="M0 0 C8.31 0.21, 16.62 0.43, 23.03 0.59 M0 0 C7.62 0.19, 15.24 0.39, 23.03 0.59" stroke="#2f9e44" stroke-width="1.5" fill="none"/></g><g transform="translate(667.3805584501816 589.8943298990351) rotate(0 11.51565206909936 0.29466519962409166)"><path d="M23.03 0.59 L12.47 5.19 L12.72 -4.54 L23.03 0.59" stroke="none" stroke-width="0" fill="#2f9e44" fill-rule="evenodd"/><path d="M23.03 0.59 C19.22 2.25, 15.41 3.91, 12.47 5.19 M23.03 0.59 C19.54 2.11, 16.04 3.63, 12.47 5.19 M12.47 5.19 C12.57 1.35, 12.67 -2.5, 12.72 -4.54 M12.47 5.19 C12.53 2.9, 12.59 0.62, 12.72 -4.54 M12.72 -4.54 C15.31 -3.25, 17.9 -1.96, 23.03 0.59 M12.72 -4.54 C16.77 -2.53, 20.82 -0.51, 23.03 0.59 M23.03 0.59 C23.03 0.59, 23.03 0.59, 23.03 0.59 M23.03 0.59 C23.03 0.59, 23.03 0.59, 23.03 0.59" stroke="#2f9e44" stroke-width="1.5" fill="none"/></g></g><mask/><g stroke-linecap="round"><g transform="translate(683.1959715788978 517.8590337424722) rotate(0 -90.56234625844945 -55.57563966207954)"><path d="M0 0 C-60.16 -36.92, -120.32 -73.84, -181.12 -111.15" stroke="#1971c2" stroke-width="2.5" fill="none" stroke-dasharray="8 10"/></g><g transform="translate(683.1959715788978 517.8590337424722) rotate(0 -90.56234625844945 -55.57563966207954)"><path d="M-181.12 -111.15 L-166.22 -109.44 L-172.85 -98.64 L-181.12 -111.15" stroke="none" stroke-width="0" fill="#1971c2" fill-rule="evenodd"/><path d="M-181.12 -111.15 C-176.17 -110.58, -171.23 -110.02, -166.22 -109.44 M-166.22 -109.44 C-168.09 -106.4, -169.96 -103.35, -172.85 -98.64 M-172.85 -98.64 C-175.81 -103.12, -178.77 -107.6, -181.12 -111.15 M-181.12 -111.15 C-181.12 -111.15, -181.12 -111.15, -181.12 -111.15" stroke="#1971c2" stroke-width="2.5" fill="none"/></g></g><mask/><g stroke-linecap="round"><g transform="translate(911.4562513977013 589.4360560422808) rotate(0 83.95693866638766 -0.29360869122257327)"><path d="M0 0 C53.24 -0.19, 106.48 -0.37, 167.91 -0.59 M0 0 C44.4 -0.16, 88.8 -0.31, 167.91 -0.59" stroke="#b8860b" stroke-width="1.5" fill="none"/></g><g transform="translate(911.4562513977013 589.4360560422808) rotate(0 83.95693866638766 -0.29360869122257327)"><path d="M167.91 -0.59 L154.34 5.8 L154.3 -6.88 L167.91 -0.59" stroke="none" stroke-width="0" fill="#b8860b" fill-rule="evenodd"/><path d="M167.91 -0.59 C163.61 1.44, 159.31 3.46, 154.34 5.8 M167.91 -0.59 C164.33 1.1, 160.74 2.79, 154.34 5.8 M154.34 5.8 C154.33 2.01, 154.32 -1.78, 154.3 -6.88 M154.34 5.8 C154.33 2.87, 154.32 -0.06, 154.3 -6.88 M154.3 -6.88 C157.45 -5.42, 160.59 -3.97, 167.91 -0.59 M154.3 -6.88 C157.88 -5.22, 161.46 -3.57, 167.91 -0.59 M167.91 -0.59 C167.91 -0.59, 167.91 -0.59, 167.91 -0.59 M167.91 -0.59 C167.91 -0.59, 167.91 -0.59, 167.91 -0.59" stroke="#b8860b" stroke-width="1.5" fill="none"/></g></g><mask/><g transform="translate(920.7720519089357 560.8584034756375) rotate(0 72.16246795654297 7.323169035997921)"><text x="0" y="10.762123245327784" font-family="Helvetica, Segoe UI Emoji" font-size="12.735946149561599px" fill="#b8860b" text-anchor="start" style="white-space: pre;" direction="ltr" dominant-baseline="alphabetic">state commit · policy read</text></g><g stroke-linecap="round"><g transform="translate(699.5493675112622 664.4198194126033) rotate(0 -212.431142961249 118.49256641861535)"><path d="M0 0 C-138.67 77.35, -277.34 154.7, -424.86 236.99" stroke="#9673a6" stroke-width="2" fill="none" stroke-dasharray="8 9.5"/></g><g transform="translate(699.5493675112622 664.4198194126033) rotate(0 -212.431142961249 118.49256641861535)"><path d="M-424.86 236.99 L-416.08 224.83 L-409.9 235.9 L-424.86 236.99" stroke="none" stroke-width="0" fill="#9673a6" fill-rule="evenodd"/><path d="M-424.86 236.99 C-422 233.02, -419.13 229.05, -416.08 224.83 M-416.08 224.83 C-414.74 227.22, -413.41 229.61, -409.9 235.9 M-409.9 235.9 C-414.32 236.22, -418.74 236.54, -424.86 236.99 M-424.86 236.99 C-424.86 236.99, -424.86 236.99, -424.86 236.99" stroke="#9673a6" stroke-width="2" fill="none"/></g></g><mask/><g transform="translate(271.2079797376968 758.1866596900487) rotate(0 95.35914611816406 9.396475687177315)"><text x="0" y="13.809053009705385" font-family="Helvetica, Segoe UI Emoji" font-size="16.341696847264895px" fill="#553366" text-anchor="start" style="white-space: pre;" direction="ltr" dominant-baseline="alphabetic">audit event DEF_* (async)</text></g><g stroke-linecap="round"><g transform="translate(271.489285384639 960.355163258496) rotate(0 17.255357307680498 -0.3699220975690878)"><path d="M0 0 C11.42 -0.24, 22.84 -0.49, 34.51 -0.74 M0 0 C13.62 -0.29, 27.24 -0.58, 34.51 -0.74" stroke="#9673a6" stroke-width="1.5" fill="none"/></g><g transform="translate(271.489285384639 960.355163258496) rotate(0 17.255357307680498 -0.3699220975690878)"><path d="M34.51 -0.74 L21.06 5.89 L20.78 -6.79 L34.51 -0.74" stroke="none" stroke-width="0" fill="#9673a6" fill-rule="evenodd"/><path d="M34.51 -0.74 C30.06 1.45, 25.61 3.65, 21.06 5.89 M34.51 -0.74 C29.2 1.88, 23.89 4.49, 21.06 5.89 M21.06 5.89 C20.99 2.91, 20.93 -0.06, 20.78 -6.79 M21.06 5.89 C20.99 2.7, 20.92 -0.48, 20.78 -6.79 M20.78 -6.79 C26.18 -4.41, 31.57 -2.04, 34.51 -0.74 M20.78 -6.79 C23.99 -5.37, 27.2 -3.96, 34.51 -0.74 M34.51 -0.74 C34.51 -0.74, 34.51 -0.74, 34.51 -0.74 M34.51 -0.74 C34.51 -0.74, 34.51 -0.74, 34.51 -0.74" stroke="#9673a6" stroke-width="1.5" fill="none"/></g></g><mask/><g stroke-linecap="round"><g transform="translate(491.3867964716284 961.9649224859176) rotate(0 17.08902857699087 -0.5116537826613694)"><path d="M0 0 C9.63 -0.29, 19.26 -0.58, 34.18 -1.02 M0 0 C12.23 -0.37, 24.47 -0.73, 34.18 -1.02" stroke="#9673a6" stroke-width="1.5" fill="none"/></g><g transform="translate(491.3867964716284 961.9649224859176) rotate(0 17.08902857699087 -0.5116537826613694)"><path d="M34.18 -1.02 L20.78 5.72 L20.4 -6.95 L34.18 -1.02" stroke="none" stroke-width="0" fill="#9673a6" fill-rule="evenodd"/><path d="M34.18 -1.02 C30.4 0.88, 26.63 2.78, 20.78 5.72 M34.18 -1.02 C29.38 1.39, 24.59 3.8, 20.78 5.72 M20.78 5.72 C20.69 2.9, 20.61 0.07, 20.4 -6.95 M20.78 5.72 C20.69 2.7, 20.6 -0.32, 20.4 -6.95 M20.4 -6.95 C25.44 -4.79, 30.47 -2.62, 34.18 -1.02 M20.4 -6.95 C23.67 -5.55, 26.94 -4.14, 34.18 -1.02 M34.18 -1.02 C34.18 -1.02, 34.18 -1.02, 34.18 -1.02 M34.18 -1.02 C34.18 -1.02, 34.18 -1.02, 34.18 -1.02" stroke="#9673a6" stroke-width="1.5" fill="none"/></g></g><mask/><g transform="translate(494.3024862710447 940.5947480576164) rotate(0 14.064208984375 6.324999999999989)"><text x="0" y="9.29521484375" font-family="Helvetica, Segoe UI Emoji" font-size="11px" fill="#553366" text-anchor="start" style="white-space: pre;" direction="ltr" dominant-baseline="alphabetic">rotate</text></g><g stroke-linecap="round"><g transform="translate(712.3524531738489 976.9998813015407) rotate(0 16.280785099043896 0.5175184273666105)"><path d="M0 0 C8.61 0.27, 17.22 0.55, 32.56 1.04 M0 0 C9.73 0.31, 19.46 0.62, 32.56 1.04" stroke="#9673a6" stroke-width="1.5" fill="none"/></g><g transform="translate(712.3524531738489 976.9998813015407) rotate(0 16.280785099043896 0.5175184273666105)"><path d="M32.56 1.04 L18.77 6.94 L19.18 -5.73 L32.56 1.04" stroke="none" stroke-width="0" fill="#9673a6" fill-rule="evenodd"/><path d="M32.56 1.04 C28.92 2.6, 25.27 4.16, 18.77 6.94 M32.56 1.04 C28.44 2.8, 24.32 4.56, 18.77 6.94 M18.77 6.94 C18.87 4.01, 18.96 1.08, 19.18 -5.73 M18.77 6.94 C18.87 4.01, 18.96 1.08, 19.18 -5.73 M19.18 -5.73 C22.7 -3.95, 26.22 -2.17, 32.56 1.04 M19.18 -5.73 C23.81 -3.39, 28.45 -1.04, 32.56 1.04 M32.56 1.04 C32.56 1.04, 32.56 1.04, 32.56 1.04 M32.56 1.04 C32.56 1.04, 32.56 1.04, 32.56 1.04" stroke="#9673a6" stroke-width="1.5" fill="none"/></g></g><mask/><g transform="translate(714.0785753396206 952.7139974544729) rotate(0 15.796707153320312 7.430886483018412)"><text x="0" y="10.920424717655946" font-family="Helvetica, Segoe UI Emoji" font-size="12.923280840032px" fill="#553366" text-anchor="start" style="white-space: pre;" direction="ltr" dominant-baseline="alphabetic">insert</text></g><g stroke-linecap="round"><g transform="translate(994.8551120622817 987.8070088319089) rotate(0 35.13919939758421 -0.580608034649515)"><path d="M0 0 C15.18 -0.25, 30.36 -0.5, 70.28 -1.16 M0 0 C20.76 -0.34, 41.52 -0.69, 70.28 -1.16" stroke="#e8590c" stroke-width="1.5" fill="none"/></g><g transform="translate(994.8551120622817 987.8070088319089) rotate(0 35.13919939758421 -0.580608034649515)"><path d="M70.28 -1.16 L56.79 5.4 L56.58 -7.28 L70.28 -1.16" stroke="none" stroke-width="0" fill="#e8590c" fill-rule="evenodd"/><path d="M70.28 -1.16 C67.37 0.26, 64.45 1.67, 56.79 5.4 M70.28 -1.16 C66.29 0.78, 62.31 2.72, 56.79 5.4 M56.79 5.4 C56.71 0.69, 56.63 -4.03, 56.58 -7.28 M56.79 5.4 C56.73 2.03, 56.68 -1.34, 56.58 -7.28 M56.58 -7.28 C60.69 -5.44, 64.81 -3.6, 70.28 -1.16 M56.58 -7.28 C60.23 -5.65, 63.87 -4.02, 70.28 -1.16 M70.28 -1.16 C70.28 -1.16, 70.28 -1.16, 70.28 -1.16 M70.28 -1.16 C70.28 -1.16, 70.28 -1.16, 70.28 -1.16" stroke="#e8590c" stroke-width="1.5" fill="none"/></g></g><mask/><g transform="translate(1001.9725606759282 961.1493434232267) rotate(0 21.862380981445312 7.803601951713574)"><text x="0" y="11.4681670666062" font-family="Helvetica, Segoe UI Emoji" font-size="13.571481655153994px" fill="#e8590c" text-anchor="start" style="white-space: pre;" direction="ltr" dominant-baseline="alphabetic">metrics</text></g><g stroke-linecap="round"><g transform="translate(996.4746799596062 1086.9284839699556) rotate(0 34.90303422510772 9.451596813591891)"><path d="M0 0 C27.55 7.46, 55.11 14.92, 69.81 18.9 M0 0 C16.39 4.44, 32.77 8.87, 69.81 18.9" stroke="#e8590c" stroke-width="1.5" fill="none"/></g><g transform="translate(996.4746799596062 1086.9284839699556) rotate(0 34.90303422510772 9.451596813591891)"><path d="M69.81 18.9 L55.03 21.47 L58.34 9.23 L69.81 18.9" stroke="none" stroke-width="0" fill="#e8590c" fill-rule="evenodd"/><path d="M69.81 18.9 C63.97 19.92, 58.14 20.93, 55.03 21.47 M69.81 18.9 C66.34 19.51, 62.87 20.11, 55.03 21.47 M55.03 21.47 C55.86 18.39, 56.69 15.32, 58.34 9.23 M55.03 21.47 C56.33 16.66, 57.63 11.85, 58.34 9.23 M58.34 9.23 C61.02 11.49, 63.7 13.76, 69.81 18.9 M58.34 9.23 C62.44 12.69, 66.53 16.14, 69.81 18.9 M69.81 18.9 C69.81 18.9, 69.81 18.9, 69.81 18.9 M69.81 18.9 C69.81 18.9, 69.81 18.9, 69.81 18.9" stroke="#e8590c" stroke-width="1.5" fill="none"/></g></g><mask/><g transform="translate(997.0534789047445 1063.3455907495481) rotate(0 31.29480743408203 7.440721514581469)"><text x="0" y="10.934878272023264" font-family="Helvetica, Segoe UI Emoji" font-size="12.940385242750287px" fill="#e8590c" text-anchor="start" style="white-space: pre;" direction="ltr" dominant-baseline="alphabetic">candidates</text></g><g stroke-linecap="round"><g transform="translate(1293.1518232451044 976.3137045110666) rotate(0 52.774972721378845 -0.19255974948805488)"><path d="M0 0 C38.37 -0.14, 76.73 -0.28, 105.55 -0.39 M0 0 C37.03 -0.14, 74.06 -0.27, 105.55 -0.39" stroke="#e8590c" stroke-width="1.5" fill="none"/></g><g transform="translate(1293.1518232451044 976.3137045110666) rotate(0 52.774972721378845 -0.19255974948805488)"><path d="M105.55 -0.39 L91.98 6 L91.93 -6.67 L105.55 -0.39" stroke="none" stroke-width="0" fill="#e8590c" fill-rule="evenodd"/><path d="M105.55 -0.39 C100.62 1.94, 95.68 4.26, 91.98 6 M105.55 -0.39 C100.79 1.86, 96.03 4.1, 91.98 6 M91.98 6 C91.97 2.81, 91.96 -0.38, 91.93 -6.67 M91.98 6 C91.96 1.1, 91.94 -3.81, 91.93 -6.67 M91.93 -6.67 C96.96 -4.35, 101.99 -2.03, 105.55 -0.39 M91.93 -6.67 C97.15 -4.27, 102.36 -1.86, 105.55 -0.39 M105.55 -0.39 C105.55 -0.39, 105.55 -0.39, 105.55 -0.39 M105.55 -0.39 C105.55 -0.39, 105.55 -0.39, 105.55 -0.39" stroke="#e8590c" stroke-width="1.5" fill="none"/></g></g><mask/><g transform="translate(1302.1513418645231 956.7690834887645) rotate(0 39.22328186035156 6.88226247497704)"><text x="0" y="10.114167322686233" font-family="Helvetica, Segoe UI Emoji" font-size="11.969152130394896px" fill="#e8590c" text-anchor="start" style="white-space: pre;" direction="ltr" dominant-baseline="alphabetic">insert proposal</text></g><g stroke-linecap="round"><g transform="translate(1293.1526675580353 1061.5416442626688) rotate(0 52.915731338226806 0.18736330390652256)"><path d="M0 0 C25.7 0.09, 51.39 0.18, 105.83 0.37 M0 0 C34.02 0.12, 68.04 0.24, 105.83 0.37" stroke="#e8590c" stroke-width="1.5" fill="none"/></g><g transform="translate(1293.1526675580353 1061.5416442626688) rotate(0 52.915731338226806 0.18736330390652256)"><path d="M105.83 0.37 L92.21 6.67 L92.26 -6.01 L105.83 0.37" stroke="none" stroke-width="0" fill="#e8590c" fill-rule="evenodd"/><path d="M105.83 0.37 C102.53 1.9, 99.22 3.43, 92.21 6.67 M105.83 0.37 C101.45 2.4, 97.08 4.42, 92.21 6.67 M92.21 6.67 C92.23 3.05, 92.24 -0.56, 92.26 -6.01 M92.21 6.67 C92.23 2.28, 92.25 -2.1, 92.26 -6.01 M92.26 -6.01 C95.15 -4.65, 98.05 -3.29, 105.83 0.37 M92.26 -6.01 C95.06 -4.69, 97.87 -3.37, 105.83 0.37 M105.83 0.37 C105.83 0.37, 105.83 0.37, 105.83 0.37 M105.83 0.37 C105.83 0.37, 105.83 0.37, 105.83 0.37" stroke="#e8590c" stroke-width="1.5" fill="none"/></g></g><mask/><g transform="translate(1308.4447080533 1041.0992254921382) rotate(0 33.207275390625 7.39175746973001)"><text x="0" y="10.862920751625902" font-family="Helvetica, Segoe UI Emoji" font-size="12.855230382139055px" fill="#e8590c" text-anchor="start" style="white-space: pre;" direction="ltr" dominant-baseline="alphabetic">insert result</text></g><g transform="translate(1382.65634989725 1162.5405218763142) rotate(0 38.68438720703125 8.007442482536476)"><text x="0" y="11.76773094452915" font-family="Helvetica, Segoe UI Emoji" font-size="13.925986926150294px" fill="#2f9e44" text-anchor="start" style="white-space: pre;" direction="ltr" dominant-baseline="alphabetic">current state</text></g><g stroke-linecap="round"><g transform="translate(1398.5011062428691 1136.9749565911545) rotate(0 -28.3140762229865 21.69727884560382)"><path d="M0 0 C-11.58 8.87, -23.15 17.74, -56.63 43.39 M0 0 C-11.49 8.8, -22.97 17.61, -56.63 43.39" stroke="#2f9e44" stroke-width="2" fill="none"/></g><g transform="translate(1398.5011062428691 1136.9749565911545) rotate(0 -28.3140762229865 21.69727884560382)"><path d="M-43.18 22.32 C-45.93 26.63, -48.68 30.93, -56.63 43.39 M-43.18 22.32 C-45.91 26.59, -48.64 30.87, -56.63 43.39" stroke="#2f9e44" stroke-width="2" fill="none"/></g><g transform="translate(1398.5011062428691 1136.9749565911545) rotate(0 -28.3140762229865 21.69727884560382)"><path d="M-32.78 35.89 C-37.66 37.43, -42.53 38.96, -56.63 43.39 M-32.78 35.89 C-37.62 37.41, -42.46 38.94, -56.63 43.39" stroke="#2f9e44" stroke-width="2" fill="none"/></g></g><mask/><g stroke-linecap="round"><g transform="translate(1274.4064426059988 1188.740789432059) rotate(0 0.38497609814817224 -235.85673499813225)"><path d="M0 0 C0.26 -156.49, 0.51 -312.99, 0.77 -471.71 M0 0 C0.18 -112.14, 0.37 -224.28, 0.77 -471.71" stroke="#2f9e44" stroke-width="2" fill="none"/></g><g transform="translate(1274.4064426059988 1188.740789432059) rotate(0 0.38497609814817224 -235.85673499813225)"><path d="M0.77 -471.71 L7.09 -458.11 L-5.59 -458.13 L0.77 -471.71" stroke="none" stroke-width="0" fill="#2f9e44" fill-rule="evenodd"/><path d="M0.77 -471.71 C2.87 -467.2, 4.96 -462.69, 7.09 -458.11 M0.77 -471.71 C2.27 -468.48, 3.77 -465.24, 7.09 -458.11 M7.09 -458.11 C3.92 -458.11, 0.74 -458.12, -5.59 -458.13 M7.09 -458.11 C4.2 -458.11, 1.3 -458.12, -5.59 -458.13 M-5.59 -458.13 C-4.11 -461.28, -2.64 -464.44, 0.77 -471.71 M-5.59 -458.13 C-4.2 -461.11, -2.8 -464.09, 0.77 -471.71 M0.77 -471.71 C0.77 -471.71, 0.77 -471.71, 0.77 -471.71 M0.77 -471.71 C0.77 -471.71, 0.77 -471.71, 0.77 -471.71" stroke="#2f9e44" stroke-width="2" fill="none"/></g></g><mask/><g transform="translate(1292.5050570389087 749.2646937392883) rotate(0 54.494110107421875 8.948594059223069)"><text x="0" y="13.15084653438468" font-family="Helvetica, Segoe UI Emoji" font-size="15.562772276909643px" fill="#2f9e44" text-anchor="start" style="white-space: pre;" direction="ltr" dominant-baseline="alphabetic">projection apply</text></g><g transform="translate(1292.5050570389087 774.7310483742314) rotate(0 28.540557861328125 8.948594059223069)"><text x="0" y="13.15084653438468" font-family="Helvetica, Segoe UI Emoji" font-size="15.562772276909643px" fill="#2f9e44" text-anchor="start" style="white-space: pre;" direction="ltr" dominant-baseline="alphabetic">to Redis</text></g><g transform="translate(352.2482606144265 149.3577236699033) rotate(0 62.4990234375 7.474999999999994)"><text x="0" y="10.98525390625" font-family="Helvetica, Segoe UI Emoji" font-size="13px" fill="#1a365d" text-anchor="start" style="white-space: pre;" direction="ltr" dominant-baseline="alphabetic">Istio Ingress Gateway</text></g><g transform="translate(352.2482606144265 173.29618751259986) rotate(0 42.649169921875 6.325000000000003)"><text x="0" y="9.29521484375" font-family="Helvetica, Segoe UI Emoji" font-size="11px" fill="#3a5a80" text-anchor="start" style="white-space: pre;" direction="ltr" dominant-baseline="alphabetic">Envoy + Lua filter</text></g><g transform="translate(352.2482606144265 193.29618751259986) rotate(0 45.5361328125 6.325000000000003)"><text x="0" y="9.29521484375" font-family="Helvetica, Segoe UI Emoji" font-size="11px" fill="#3a5a80" text-anchor="start" style="white-space: pre;" direction="ltr" dominant-baseline="alphabetic">(critical API select)</text></g><g transform="translate(223.14159292769608 192.16715055069818) rotate(0 36.373046875 6.325000000000003)"><text x="0" y="9.29521484375" font-family="Helvetica, Segoe UI Emoji" font-size="11px" fill="#1971c2" text-anchor="start" style="white-space: pre;" direction="ltr" dominant-baseline="alphabetic">HTTP Request</text></g><g transform="translate(223.07076933725187 208.16715055069818) rotate(0 48.761474609375 6.325000000000003)"><text x="0" y="9.29521484375" font-family="Helvetica, Segoe UI Emoji" font-size="11px" fill="#1971c2" text-anchor="start" style="white-space: pre;" direction="ltr" dominant-baseline="alphabetic">+ telemetry headers</text></g><g transform="translate(596.0667676521413 410.72475604954997) rotate(0 26.63653564453125 8.3509374866847)"><text x="0" y="12.272530922602353" font-family="Helvetica, Segoe UI Emoji" font-size="14.523369542060339px" fill="#1971c2" text-anchor="start" style="white-space: pre;" direction="ltr" dominant-baseline="alphabetic">decision</text></g><g transform="translate(579.6717743213528 427.9135136119039) rotate(0 44.37885284423828 8.3509374866847)"><text x="0" y="12.272530922602353" font-family="Helvetica, Segoe UI Emoji" font-size="14.523369542060339px" fill="#1971c2" text-anchor="start" style="white-space: pre;" direction="ltr" dominant-baseline="alphabetic">(allow / block)</text></g></svg>