<svg width="234" height="152" viewBox="0 0 234 152" fill="none" xmlns="http://www.w3.org/2000/svg">
<path d="M180.842 79.4289C180.77 80.2484 180.861 81.0739 181.108 81.8584C181.355 82.6429 181.755 83.3712 182.283 84.0014C182.812 84.6315 183.46 85.1512 184.19 85.5311C184.919 85.9109 185.717 86.1433 186.536 86.215C187.355 86.2867 188.181 86.1962 188.965 85.9489C189.75 85.7015 190.478 85.3022 191.108 84.7735C191.739 84.2447 192.258 83.5968 192.638 82.8671C193.018 82.1375 193.25 81.3402 193.322 80.5208L225.459 83.3324C225.351 84.5616 225.487 85.7999 225.858 86.9767C226.229 88.1535 226.828 89.2456 227.621 90.1908C228.414 91.136 229.386 91.916 230.48 92.4857C231.506 93.0199 232.622 93.3596 233.77 93.4886L234 93.5115L233.727 96.6316C233.42 96.6047 233.11 96.6387 232.816 96.7315C232.522 96.8242 232.249 96.9738 232.012 97.172C231.776 97.3703 231.581 97.6134 231.439 97.887C231.296 98.1606 231.209 98.4596 231.182 98.7669C231.155 99.0742 231.189 99.3838 231.282 99.678C231.375 99.9722 231.524 100.245 231.723 100.482C231.921 100.718 232.164 100.913 232.438 101.055C232.711 101.198 233.01 101.285 233.318 101.312L232.908 105.992C232.601 105.965 232.291 105.999 231.997 106.092C231.703 106.184 231.43 106.334 231.193 106.532C230.957 106.731 230.762 106.974 230.62 107.247C230.477 107.521 230.39 107.82 230.363 108.127C230.336 108.434 230.371 108.744 230.463 109.038C230.556 109.332 230.706 109.606 230.904 109.842C231.102 110.078 231.345 110.273 231.619 110.415C231.892 110.558 232.191 110.645 232.499 110.672L232.089 115.352C231.782 115.325 231.472 115.359 231.178 115.452C230.884 115.545 230.611 115.694 230.374 115.892C230.138 116.091 229.943 116.334 229.801 116.607C229.659 116.881 229.571 117.18 229.544 117.487C229.518 117.795 229.552 118.104 229.644 118.398C229.737 118.693 229.887 118.966 230.085 119.202C230.283 119.438 230.526 119.633 230.8 119.775C231.073 119.918 231.372 120.005 231.68 120.032L231.27 124.712C230.963 124.685 230.653 124.719 230.359 124.812C230.065 124.905 229.792 125.054 229.556 125.253C229.319 125.451 229.125 125.694 228.982 125.968C228.84 126.241 228.752 126.54 228.726 126.847C228.699 127.155 228.733 127.464 228.825 127.759C228.918 128.053 229.068 128.326 229.266 128.562C229.464 128.798 229.707 128.993 229.981 129.136C230.255 129.278 230.554 129.365 230.861 129.392L230.451 134.072C230.144 134.045 229.835 134.079 229.54 134.172C229.246 134.265 228.973 134.415 228.737 134.613C228.5 134.811 228.306 135.054 228.163 135.328C228.021 135.601 227.934 135.9 227.907 136.208C227.88 136.515 227.914 136.825 228.006 137.119C228.099 137.413 228.249 137.686 228.447 137.922C228.645 138.159 228.888 138.353 229.162 138.496C229.436 138.638 229.735 138.726 230.042 138.752L229.687 142.808C227.205 142.591 224.738 143.369 222.829 144.971C220.92 146.573 219.725 148.867 219.508 151.35L187.371 148.538C187.516 146.883 186.998 145.238 185.93 143.966C184.862 142.693 183.332 141.897 181.677 141.752C180.022 141.607 178.377 142.126 177.105 143.194C175.832 144.261 175.036 145.791 174.891 147.446L51.0246 136.609C51.1321 135.38 50.9966 134.142 50.6256 132.965C50.2545 131.788 49.6551 130.696 48.862 129.751C48.0688 128.806 47.0974 128.026 46.0029 127.456C44.9085 126.886 43.7125 126.538 42.4833 126.43L46.7962 77.1333C48.0254 77.2408 49.2637 77.1053 50.4405 76.7343C51.6173 76.3633 52.7094 75.7638 53.6546 74.9707C54.5998 74.1776 55.3798 73.2061 55.9495 72.1117C56.5193 71.0172 56.8678 69.8212 56.9753 68.592L180.842 79.4289Z" fill="#0BEAB2"/>
<path d="M80.3959 104.459C86.5654 105.334 89.2289 106.993 88.9013 110.737C88.4427 115.978 82.7393 119.839 70.6334 118.78C64.6013 118.252 56.8745 117.45 54.1959 116.923L54.8983 108.894L57.9243 109.284C58.0808 107.495 58.2737 105.291 58.5175 102.503L59.0125 96.8455C57.8441 96.7852 56.8004 96.7358 55.9684 96.663L56.6708 88.6341C60.6863 88.7339 68.0227 89.208 73.6388 89.6994C85.1206 90.7039 89.471 93.6835 89.0743 98.218C88.7067 102.42 84.504 103.98 80.3959 104.459ZM74.0143 97.8646C72.6415 97.7445 71.1023 97.6098 69.4346 97.5058L69.0524 101.874L72.3805 102.165C77.2062 102.587 77.8941 101.432 77.9961 100.267C78.0834 99.2686 77.7168 98.1885 74.0143 97.8646ZM72.754 110.833C77.4548 111.244 78.1194 109.877 78.2031 108.92C78.2723 108.13 77.9582 106.929 74.1725 106.598C72.134 106.419 70.262 106.255 68.6775 106.159L68.3063 110.402C70.0915 110.6 71.6307 110.735 72.754 110.833Z" fill="#0A0A0A"/>
<path d="M126.716 115.177L128.505 115.333L127.803 123.362L112.244 122.001L112.946 113.972L115.775 114.22L114.827 111.161L105.842 110.374C105.331 111.42 104.869 112.385 104.418 113.226L107.33 113.481L106.628 121.51L91.5684 120.192L92.2709 112.163L94.1429 112.327C96.656 107.559 101.116 99.2296 102.881 95.8209L103.154 92.7008L119.669 94.1457C120.036 95.2258 124.585 108.87 126.716 115.177ZM107.674 106.678C109.55 106.8 111.63 106.982 113.581 107.195C112.633 104.136 111.72 101.163 111.203 99.3995L107.674 106.678Z" fill="#0A0A0A"/>
<path d="M157.816 110.017L165.471 110.687L164.084 126.537L132.8 123.8L133.503 115.771L136.498 116.033C136.693 114.289 136.882 112.126 137.122 109.38C137.319 107.134 137.479 105.303 137.568 103.802L134.573 103.54L135.275 95.5111L152.872 97.0506L152.17 105.08L148.01 104.716L147.522 110.29C147.282 113.036 147.093 115.199 146.94 116.946L147.814 117.023C151.1 117.31 153.925 117.599 156.213 117.799L157.816 110.017Z" fill="#0A0A0A"/>
<path d="M193.97 113.18L201.625 113.85L200.238 129.7L168.954 126.963L169.657 118.934L172.652 119.196C172.846 117.452 173.036 115.289 173.276 112.543C173.472 110.297 173.632 108.466 173.722 106.965L170.727 106.703L171.429 98.6741L189.026 100.214L188.324 108.243L184.164 107.879L183.676 113.453C183.436 116.199 183.246 118.362 183.094 120.109L183.967 120.186C187.254 120.473 190.079 120.762 192.367 120.963L193.97 113.18Z" fill="#0A0A0A"/>
<path d="M210.633 118.453C209.662 114.218 207.815 108.02 206.811 101.77L221.912 103.091C219.838 109.071 216.942 114.855 215.251 118.857L210.633 118.453ZM211.829 131.133C206.463 130.663 205.853 127.089 206.01 125.3C206.163 123.553 207.438 120.479 212.721 120.941C218.171 121.418 218.768 124.656 218.615 126.403C218.458 128.192 217.279 131.61 211.829 131.133Z" fill="#0A0A0A"/>
<path d="M138.577 6.27194C138.694 7.14882 138.98 7.9944 139.418 8.76045C139.856 9.52653 140.437 10.1983 141.128 10.737C141.82 11.2756 142.608 11.6705 143.448 11.8997C144.288 12.1288 145.164 12.1875 146.024 12.0723C146.885 11.9571 147.714 11.6703 148.464 11.2283C149.214 10.7863 149.871 10.1979 150.397 9.49638C150.922 8.79485 151.306 7.99386 151.527 7.13962C151.748 6.2854 151.801 5.39443 151.684 4.51755L185.434 0C185.611 1.31535 186.039 2.58385 186.696 3.73295C187.352 4.88207 188.224 5.88923 189.262 6.69715C190.299 7.50508 191.482 8.09808 192.742 8.44181C193.923 8.76405 195.151 8.86149 196.363 8.73004L196.605 8.7006L197.052 12.0394C196.73 12.0826 196.419 12.1903 196.137 12.356C195.856 12.5218 195.61 12.7423 195.413 13.0053C195.216 13.2684 195.072 13.5688 194.989 13.8891C194.906 14.2095 194.886 14.5436 194.93 14.8724C194.974 15.2013 195.081 15.5184 195.245 15.8057C195.41 16.0929 195.627 16.3449 195.887 16.5469C196.146 16.7489 196.442 16.8968 196.757 16.9827C197.072 17.0687 197.4 17.0908 197.723 17.0476L198.393 22.0558C198.07 22.099 197.759 22.2067 197.478 22.3724C197.197 22.5382 196.95 22.7586 196.753 23.0217C196.556 23.2848 196.412 23.5852 196.33 23.9055C196.247 24.2258 196.227 24.56 196.271 24.8888C196.315 25.2177 196.422 25.5348 196.586 25.822C196.75 26.1093 196.968 26.3613 197.227 26.5633C197.487 26.7653 197.782 26.9132 198.097 26.9991C198.412 27.0851 198.741 27.1072 199.063 27.064L199.734 32.0722C199.411 32.1154 199.1 32.223 198.819 32.3888C198.538 32.5546 198.291 32.775 198.094 33.0381C197.897 33.3011 197.753 33.6016 197.67 33.9219C197.587 34.2422 197.567 34.5764 197.611 34.9052C197.655 35.2341 197.763 35.5512 197.927 35.8384C198.091 36.1257 198.309 36.3777 198.568 36.5797C198.827 36.7817 199.123 36.9296 199.438 37.0155C199.753 37.1014 200.081 37.1236 200.404 37.0804L201.074 42.0886C200.752 42.1318 200.441 42.2394 200.16 42.4052C199.878 42.5709 199.632 42.7914 199.435 43.0545C199.238 43.3175 199.094 43.618 199.011 43.9383C198.928 44.2586 198.908 44.5928 198.952 44.9216C198.996 45.2505 199.103 45.5675 199.268 45.8548C199.432 46.1421 199.649 46.3941 199.909 46.5961C200.168 46.7981 200.464 46.946 200.779 47.0319C201.094 47.1178 201.422 47.14 201.745 47.0968L202.415 52.105C202.092 52.1482 201.782 52.2558 201.5 52.4216C201.219 52.5873 200.973 52.8078 200.775 53.0709C200.578 53.3339 200.435 53.6343 200.352 53.9547C200.269 54.275 200.249 54.6092 200.293 54.938C200.337 55.2669 200.444 55.5839 200.608 55.8712C200.772 56.1585 200.99 56.4105 201.249 56.6125C201.509 56.8144 201.805 56.9624 202.12 57.0483C202.435 57.1342 202.763 57.1564 203.086 57.1132L203.667 61.4536C201.059 61.8026 198.7 63.1926 197.108 65.3178C195.516 67.443 194.821 70.1293 195.177 72.7858L161.426 77.3033C161.189 75.5323 160.272 73.9261 158.875 72.8383C157.478 71.7505 155.717 71.2703 153.979 71.5029C152.241 71.7356 150.668 72.6621 149.607 74.0789C148.545 75.4957 148.082 77.2867 148.319 79.0577L18.232 96.47C18.056 95.1547 17.6275 93.8862 16.9708 92.7371C16.3141 91.588 15.442 90.5808 14.4047 89.7729C13.3674 88.9649 12.185 88.3719 10.925 88.0282C9.66493 87.6845 8.35195 87.5966 7.06104 87.7694L0 35.0164C1.29091 34.8437 2.53456 34.4136 3.65983 33.7506C4.78512 33.0876 5.76992 32.2045 6.55825 31.1522C7.34658 30.0999 7.92313 28.8989 8.25448 27.6175C8.58582 26.3361 8.66563 24.9996 8.48957 23.6843L138.577 6.27194Z" fill="#0A0A0A"/>
<path d="M34.8154 37.8399C50.1845 35.9528 54.6609 38.281 55.7663 47.2836C56.8472 56.0872 52.2643 59.8812 45.2014 60.7484C40.4763 61.3286 36.7242 60.3756 34.0671 58.8843L34.5618 62.9131L38.5906 62.4184L39.7693 72.0179L19.6751 74.4851L18.4964 64.8857L22.0775 64.4459C21.8708 62.3508 21.5532 59.7644 21.1501 56.4817C20.8081 53.6964 20.5394 51.5079 20.2637 49.6737C18.6782 49.9189 17.3911 50.1274 16.7009 50.2626L15.5222 40.6632C20.2605 39.7784 27.9516 38.6826 34.8154 37.8399ZM38.9914 52.524C43.0201 52.0293 43.4896 50.5076 43.3431 49.3138C43.1965 48.1201 42.3606 46.6576 38.3815 47.1462C36.8396 47.3355 34.8501 47.5798 32.7672 47.886C32.8946 49.3345 33.1083 51.0754 33.3587 53.1146C35.062 53.0065 36.9521 52.7744 38.9914 52.524Z" fill="#0BEAB2"/>
<path d="M89.8937 46.6274L99.0456 45.5037L101.372 64.454L63.9692 69.0465L62.7906 59.447L66.3717 59.0073C66.165 56.9122 65.8474 54.3258 65.4443 51.0431C65.1145 48.3572 64.8458 46.1687 64.5762 44.3843L60.9951 44.824L59.8164 35.2245L80.8557 32.6412L82.0343 42.2407L77.0605 42.8514L77.8789 49.5163C78.2819 52.799 78.5995 55.3854 78.856 57.4744L79.9005 57.3462C83.8298 56.8637 87.2181 56.4982 89.9537 56.1623L89.8937 46.6274Z" fill="#0BEAB2"/>
<path d="M147.248 49.0769L149.387 48.8143L150.565 58.4138L131.963 60.6979L130.785 51.0984L134.167 50.6831L132.291 47.3288L121.547 48.6479C121.209 50.0022 120.908 51.2509 120.588 52.3503L124.07 51.9228L125.249 61.5223L107.243 63.7331L106.065 54.1336L108.303 53.8588C110.063 47.6346 113.22 36.7455 114.441 32.304L113.983 28.5737L133.729 26.1492C134.429 27.3254 143.173 42.206 147.248 49.0769ZM122.776 43.8522C125.008 43.5276 127.495 43.2223 129.839 42.985C127.963 39.6307 126.149 36.3697 125.103 34.4282L122.776 43.8522Z" fill="#0BEAB2"/>
<path d="M186.448 29.4203L174.39 43.8763C174.519 44.5168 174.592 45.1137 174.665 45.7105L179.987 45.0571L181.166 54.6565L157.889 57.5146L156.71 47.9152L162.181 47.2434C162.108 46.6465 162.028 45.9999 161.993 45.2975L146.857 34.2815L144.818 34.5319L143.639 24.9324L163.733 22.4652L164.912 32.0646L161.629 32.4677C164.887 34.7435 167.686 36.9748 168.87 38.3945C169.8 36.5132 171.988 33.7707 174.362 30.9043L171.378 31.2707L170.199 21.6712L187.259 19.5765L188.438 29.176L186.448 29.4203Z" fill="#0BEAB2"/>
</svg>
